<svg width="161" height="160" viewBox="0 0 161 160" fill="none" xmlns="http://www.w3.org/2000/svg">
<g id="Images">
<path id="Vector" d="M148.82 159.223C156.406 143.276 160.787 124.463 160.787 104.316C160.787 46.7038 124.97 0 80.7868 0C36.604 0 0.786865 46.7038 0.786865 104.316C0.786865 124.463 5.16786 143.276 12.754 159.223H148.82Z" fill="#A9E8B7"/>
<path id="Vector_2" opacity="0.25" d="M138.053 33.7099C134.59 33.1292 131.07 33.6159 127.59 33.2514C124.11 32.8869 120.685 31.6631 117.548 29.6637C116.68 29.1102 115.822 28.4924 114.881 28.2033C113.618 27.8151 112.299 28.0467 111.002 28.1156C108.474 28.2501 105.927 27.7508 103.542 26.6525C102.735 26.2816 101.837 25.6684 101.703 24.5677C101.534 23.1627 102.709 22.158 103.734 21.6761C104.76 21.1941 105.992 20.5996 106.214 19.207C106.313 18.5812 106.18 17.8742 106.439 17.3322C106.617 16.9619 106.939 16.7608 107.246 16.588C110.654 14.6736 114.358 13.9257 118.044 13.7251C118.851 13.6812 119.684 13.7192 120.525 13.7667C116.111 10.4664 111.437 7.69364 106.546 5.52617C104.207 5.68818 101.863 5.72709 99.5149 5.63442C94.6002 5.44035 89.318 4.81412 85.1219 8.15499C84.5771 8.58891 84.028 9.14249 83.8486 9.94151C83.4057 11.9133 85.3374 13.2597 86.865 13.7628C87.1059 15.1296 85.722 15.9058 84.6631 16.1503C81.2486 16.9386 77.8859 18.1075 74.6236 19.64C72.3104 20.7266 69.7424 22.4623 69.2869 25.6128C68.9666 27.8285 69.88 30.1202 71.2269 31.534C72.5739 32.948 74.2888 33.6198 75.9863 34.049C81.7657 35.5097 87.7419 34.5072 93.602 35.2361C94.3842 35.3333 95.2011 35.4798 95.8376 36.0797C96.8438 37.0287 97.114 38.8083 97.8171 40.1425C99.2153 42.7916 102.016 43.2757 104.478 43.4508C109.961 43.8408 115.458 43.8992 120.944 43.6258C122.327 43.5568 123.735 43.4706 125.071 43.9433C126.475 44.4404 127.706 45.5227 129.006 46.3722C132.1 48.3922 135.585 49.094 139.004 49.7752C142.512 50.4741 146.051 51.178 149.591 51.0656C146.822 44.9942 143.591 39.3233 139.966 34.1287C139.332 33.963 138.694 33.8173 138.053 33.7099Z" fill="white"/>
<path id="Vector_3" opacity="0.25" d="M124.093 67.9227C123.555 66.9585 122.733 66.3418 121.918 65.8008C109.944 57.8506 95.6669 60.6113 82.2726 59.222C78.8431 58.8662 75.3643 58.1995 72.2751 56.2252C68.668 53.9199 65.5237 49.8284 61.5143 49.5029C58.6966 49.274 54.9629 50.4348 53.7522 47.109C53.4541 46.2901 53.4705 45.3512 53.3801 44.4525C52.1511 32.2251 34.3712 35.7796 32.6371 35.8852C28.3893 36.1436 24.1414 36.4021 19.8935 36.6606C15.6914 43.0849 12.0776 50.183 9.15863 57.8123C13.1527 57.7636 17.147 57.73 21.1409 57.6804C23.111 57.656 25.1175 57.6381 27.0017 58.3893C29.5701 59.4134 31.72 61.7919 34.2811 62.8466C36.2485 63.6566 38.3517 63.6428 40.4149 63.6217C47.8788 63.5451 55.3427 63.4684 62.8066 63.3919C64.2161 63.3774 65.6657 63.372 66.9784 64.0416C68.2672 64.6988 69.3151 65.9508 70.4795 66.9261C74.3222 70.145 79.1661 70.198 83.6513 71.322C85.075 71.6787 86.6426 72.3089 87.3243 73.9772C88.4598 76.756 86.3108 79.936 84.143 81.3231C75.4421 86.8902 64.7286 81.4895 55.4694 85.2234C52.9932 86.2219 50.6966 87.8496 48.2834 89.0827C40.3693 93.1262 31.5619 92.7716 23.1085 91.6116C15.9535 90.6302 8.76877 89.1138 1.60377 89.3644C1.06629 94.248 0.786865 99.2391 0.786865 104.316C0.786865 105.908 0.817328 107.491 0.871445 109.065C4.86893 109.182 8.86641 109.3 12.8638 109.417C20.4143 109.639 27.9809 109.86 35.5085 109.063C39.726 108.617 43.9774 107.833 47.8888 105.729C50.2474 104.46 52.458 102.724 54.8837 101.692C59.1491 99.8782 63.7542 100.362 68.235 100.068C75.1552 99.616 81.9107 97.2756 88.6056 94.9476C98.9202 91.3609 124.334 85.9917 124.987 72.3996C125.062 70.8388 124.798 69.1873 124.093 67.9227Z" fill="white"/>
<path id="Vector_4" d="M146.898 59.967C146.898 59.967 146.668 62.9235 144.879 63.128C146.668 63.3325 146.898 66.2889 146.898 66.2889C146.898 66.2889 147.128 63.3325 148.917 63.128C147.128 62.9235 146.898 59.967 146.898 59.967Z" fill="white"/>
<path id="Vector_5" d="M58.5813 17.4852C58.5813 17.4852 58.4254 19.4892 57.2126 19.6278C58.4254 19.7665 58.5813 21.7704 58.5813 21.7704C58.5813 21.7704 58.7371 19.7665 59.9499 19.6278C58.737 19.4892 58.5813 17.4852 58.5813 17.4852Z" fill="white"/>
<path id="Vector_6" d="M149.591 107.108C149.591 107.108 149.43 109.18 148.176 109.324C149.43 109.467 149.591 111.54 149.591 111.54C149.591 111.54 149.753 109.467 151.007 109.324C149.753 109.18 149.591 107.108 149.591 107.108Z" fill="white"/>
<path id="Vector_7" d="M133.367 88.1052C134.322 88.1052 134.324 86.171 133.367 86.171C132.413 86.1711 132.412 88.1052 133.367 88.1052Z" fill="white"/>
<path id="Vector_8" d="M115.732 99.6569C116.209 99.6569 116.209 98.6898 115.732 98.6898C115.255 98.6898 115.254 99.6569 115.732 99.6569Z" fill="white"/>
<path id="Vector_9" d="M142.927 79.0249C143.405 79.0249 143.406 78.0577 142.927 78.0577C142.45 78.0577 142.449 79.0249 142.927 79.0249Z" fill="white"/>
<path id="Vector_10" d="M128.422 57.5324C128.9 57.5324 128.901 56.5651 128.422 56.5651C127.946 56.5651 127.945 57.5324 128.422 57.5324Z" fill="white"/>
<path id="Vector_11" d="M50.6256 31.7419C51.1028 31.7419 51.1036 30.7748 50.6256 30.7748C50.1483 30.7748 50.1476 31.7419 50.6256 31.7419Z" fill="white"/>
<path id="Vector_12" d="M64.6357 44.0459C65.5902 44.0459 65.5918 42.1116 64.6357 42.1116C63.6812 42.1116 63.6795 44.0459 64.6357 44.0459Z" fill="white"/>
<path id="Vector_13" d="M65.2952 29.1629C65.7725 29.1629 65.7733 28.1957 65.2952 28.1957C64.8181 28.1957 64.8172 29.1629 65.2952 29.1629Z" fill="white"/>
<path id="Vector_14" d="M51.1204 19.491C51.5977 19.491 51.5984 18.5239 51.1204 18.5239C50.6432 18.5239 50.6424 19.491 51.1204 19.491Z" fill="white"/>
<path id="Vector_15" d="M45.6809 19.2492C45.9195 19.2492 45.9198 18.7656 45.6809 18.7656C45.4422 18.7656 45.4418 19.2492 45.6809 19.2492Z" fill="white"/>
<path id="Vector_16" d="M22.7702 60.5144C23.0087 60.5144 23.0092 60.0308 22.7702 60.0308C22.5316 60.0308 22.5311 60.5144 22.7702 60.5144Z" fill="white"/>
<path id="Vector_17" d="M36.2861 58.8488C37.002 58.8488 37.0032 57.398 36.2861 57.398C35.5703 57.398 35.5691 58.8488 36.2861 58.8488Z" fill="white"/>
<path id="Vector_18" d="M9.41956 85.0426C9.89684 85.0426 9.89764 84.0756 9.41956 84.0756C8.94226 84.0756 8.94144 85.0426 9.41956 85.0426Z" fill="white"/>
<path id="Vector_19" d="M125.786 30.4121C126.86 30.4121 126.862 28.2361 125.786 28.2361C124.712 28.2361 124.71 30.4121 125.786 30.4121Z" fill="white"/>
<path id="Vector_20" d="M107.16 14.5748C107.877 14.5748 107.878 13.1241 107.16 13.1241C106.445 13.1241 106.444 14.5748 107.16 14.5748Z" fill="white"/>
<path id="Vector_21" d="M90.5131 20.136C90.9905 20.136 90.9913 19.1688 90.5131 19.1688C90.0358 19.1688 90.0349 20.136 90.5131 20.136Z" fill="white"/>
<path id="Vector_22" d="M119.358 23.6685C119.716 23.6685 119.716 22.9431 119.358 22.9431C118.999 22.9431 118.999 23.6685 119.358 23.6685Z" fill="white"/>
<path id="Vector_23" d="M133.862 35.0595C134.22 35.0595 134.221 34.3342 133.862 34.3342C133.504 34.3342 133.503 35.0595 133.862 35.0595Z" fill="white"/>
<path id="Vector_24" d="M120.017 56.767C120.375 56.767 120.375 56.0417 120.017 56.0417C119.659 56.0416 119.658 56.767 120.017 56.767Z" fill="white"/>
<path id="Vector_25" d="M61.1744 58.0565C61.5324 58.0565 61.533 57.3312 61.1744 57.3312C60.8165 57.3313 60.8159 58.0565 61.1744 58.0565Z" fill="white"/>
<path id="Vector_26" d="M154.878 160H5.91676C5.3026 160 4.80469 159.446 4.80469 158.763C4.80469 158.079 5.3026 157.525 5.91676 157.525H154.878C155.492 157.525 155.99 158.079 155.99 158.763C155.99 159.445 155.492 160 154.878 160Z" fill="#F0806A"/>
<path id="Vector_27" d="M104.872 74.6446C104.138 72.8089 103.213 67.1094 102.903 65.1731C102.975 65.0225 103.355 64.1294 103.148 62.5004C103.001 61.3496 103.542 59.3506 102.889 59.5595C102.236 59.7684 102.395 61.778 101.962 61.4805C101.529 61.1832 100.941 57.008 100.349 57.1973C99.7575 57.3867 100.549 61.2906 100.161 61.0245C99.7744 60.7585 99.4064 57.1149 98.5691 57.3828C97.7326 57.6504 99.3602 61.625 98.9113 61.7685C98.4624 61.9122 97.4953 59.3777 96.8215 59.5932C96.1477 59.8086 98.2909 62.9857 98.0633 62.8292C97.8357 62.6727 96.2393 61.4614 96.026 61.8006C95.7851 62.1842 99.554 65.7474 99.6651 66.7897C99.6393 69.4692 99.5415 74.3277 100.599 77.2471C101.894 80.8191 105.09 88.719 105.09 88.719L110.084 86.75C110.084 86.75 105.743 76.8218 104.872 74.6446Z" fill="#F7A491"/>
<path id="Vector_28" d="M101.474 62.3242C101.235 62.4805 101.044 62.6996 100.882 62.9428C100.867 62.9898 100.293 63.7377 100.561 64.8102C100.609 64.1283 100.665 63.372 101.474 62.3242Z" fill="#F48C7F"/>
<path id="Vector_29" d="M119.758 69.0377C119.758 69.0377 121.886 67.952 123.35 69.4781C124.814 71.0044 124.366 72.1644 124.366 72.1644C124.366 72.1644 126.984 72.6844 126.777 75.4574C126.569 78.2303 126.111 78.4663 126.111 78.4663C126.111 78.4663 127.091 79.6602 126.789 81.09C126.486 82.5198 125.28 82.9099 125.28 82.9099C125.28 82.9099 124.486 85.2724 122.7 85.5975C120.912 85.9226 120.313 85.5482 120.313 85.5482C120.313 85.5482 119.321 87.0291 116.468 86.3762C115.423 86.1368 114.763 85.5746 114.66 85.2929C114.66 85.2929 112.437 84.8957 111.667 83.798C110.316 81.873 110.932 80.5628 110.932 80.5628C110.932 80.5628 109.47 77.6093 110.579 75.4429C111.461 73.7195 112.045 73.941 112.045 73.941C112.045 73.941 111.327 69.6948 114.763 70.4459C114.763 70.4459 116.086 67.0159 119.758 69.0377Z" fill="#A34B3D"/>
<path id="Vector_30" d="M138.189 87.8014C138.189 87.8014 137.969 86.8996 138.517 85.4006C138.869 84.4391 138.823 82.5714 139.322 82.9148C139.821 83.2581 139.285 84.961 139.703 84.8108C140.121 84.6604 141.445 81.186 141.897 81.4972C142.349 81.8081 140.911 84.9969 141.285 84.8623C141.659 84.7278 142.694 81.6597 143.333 82.0996C143.973 82.5395 141.828 85.5817 142.171 85.818C142.514 86.0538 143.822 84.0962 144.337 84.4503C144.851 84.8044 142.44 87.0273 142.66 86.9482C142.88 86.869 144.444 86.2149 144.552 86.562C144.675 86.9542 141.429 88.5351 141.128 89.4116C140.827 90.2871 135.853 99.2658 134.203 99.4667C132.553 99.6684 124.604 94.976 123.89 93.2258C123.177 91.4756 123.661 89.4711 124.717 89.0907C125.773 88.7113 133.217 93.4187 133.548 93.2987C133.879 93.1796 138.189 87.8014 138.189 87.8014Z" fill="#F7A491"/>
<path id="Vector_31" d="M139.633 85.441C139.82 85.6695 139.943 85.942 140.033 86.2276C140.035 86.2777 140.383 87.182 139.839 88.1168C139.976 87.4497 140.126 86.7093 139.633 85.441Z" fill="#F48C7F"/>
<path id="Vector_32" d="M131.437 129.673C132.291 129.342 133.837 127.604 133.837 127.604C135.819 129.308 139.928 134.627 139.928 134.627C139.928 134.627 139.16 135.215 138.505 134.884C137.849 134.553 134.834 133.052 133.432 133.593C133.067 133.734 128.976 135.277 125.351 136.317C124.905 134.871 126.131 131.979 125.526 130.62C127.461 129.919 131.154 129.782 131.437 129.673Z" fill="#F7A491"/>
<path id="Vector_33" d="M132.427 129C132.427 129 135.982 133.044 136.329 133.763C136.612 134.348 141.025 136.355 141.247 135.604C141.469 134.854 135.997 126.816 135.133 126.522C134.269 126.228 132.427 129 132.427 129Z" fill="#F0806A"/>
<path id="Vector_34" d="M109.392 141.428C109.69 142.349 111.294 144.028 111.294 144.028C109.683 146.135 104.682 150.486 104.682 150.486C104.682 150.486 104.142 149.656 104.458 148.956C104.774 148.257 106.373 143.904 105.884 142.393C105.756 141.999 104.822 139.069 103.945 137.414C105.298 136.951 106.624 136.239 107.897 135.604C108.528 137.689 109.294 141.124 109.392 141.428Z" fill="#F7A491"/>
<path id="Vector_35" d="M109.951 110.076C109.951 110.076 100.696 120.243 99.7532 122.204C99.0492 123.67 103.32 138.739 103.32 138.739C103.32 138.739 107.335 138.399 109.014 136.596C109.014 136.596 106.89 126.083 107.331 125.61C107.772 125.136 118.347 118.311 118.347 118.311L117.034 112.08L109.951 110.076Z" fill="#253A66"/>
<path id="Vector_36" d="M111.991 109.808C111.991 109.808 114.408 116.049 114.408 118.484C114.408 120.348 113.668 135.284 117.205 136.724C119.213 137.541 128.665 136.335 128.665 136.335L127.808 129.573C127.808 129.573 123.309 130.316 122.913 129.892C122.517 129.468 126.517 118.206 125.683 114.341C124.849 110.477 117.911 108.122 117.911 108.122L111.991 109.808Z" fill="#355389"/>
<path id="Vector_37" d="M107.651 80.2036C107.651 80.2036 106.523 80.58 103.049 85.8323L109.533 96.8889L112.022 86.5247L107.651 80.2036Z" fill="#D9664A"/>
<path id="Vector_38" d="M117.121 87.2202C117.121 87.2202 113.082 86.8416 111.973 86.3939C110.864 85.9462 107.02 109.683 106.828 112.939C112.141 114.209 126.213 117.911 126.213 117.911C126.213 117.911 126.453 116.385 125.709 113.748C124.421 109.183 123.691 98.7369 123.691 96.8951C123.691 95.8133 128.726 99.5635 128.726 99.5635L130.837 91.0782C130.837 91.0782 124.407 88.2041 122.154 87.6875C121.525 87.5431 117.121 87.2202 117.121 87.2202Z" fill="#F0806A"/>
<path id="Vector_39" d="M109.944 142.41C109.944 142.41 105.933 146.482 105.206 146.876C104.615 147.196 103.247 152.013 103.999 152.279C104.751 152.545 112.197 146.573 112.503 145.576C112.809 144.58 109.944 142.41 109.944 142.41Z" fill="#F0806A"/>
<path id="Vector_40" d="M115.649 82.9082C115.649 82.9082 116.208 87.4418 115.022 88.6684C113.769 89.9636 119.556 89.6071 119.964 87.4676C120.185 86.3116 119.394 81.2088 119.394 81.2088L115.649 82.9082Z" fill="#F7A491"/>
<path id="Vector_41" d="M119.394 81.2088L115.649 82.9082C115.649 82.9082 115.786 84.0193 115.781 85.29C116.696 85.4396 117.737 85.2205 118.863 84.4865C119.187 84.275 119.481 84.0419 119.749 83.791C119.582 82.417 119.394 81.2088 119.394 81.2088Z" fill="#F48C7F"/>
<path id="Vector_42" d="M121.275 79.6957C120.973 80.6292 121.189 81.5689 121.757 81.7951C122.324 82.0212 123.027 81.4478 123.327 80.5146C123.629 79.5812 123.413 78.6412 122.845 78.4152C122.278 78.189 121.575 78.7624 121.275 79.6957Z" fill="#F7A491"/>
<path id="Vector_43" d="M111.296 77.4046C111.254 78.3951 111.708 79.2236 112.309 79.2554C112.91 79.287 113.433 78.5097 113.475 77.5194C113.517 76.5289 113.063 75.7004 112.461 75.6689C111.86 75.6373 111.338 76.4143 111.296 77.4046Z" fill="#F7A491"/>
<path id="Vector_44" d="M118.471 71.3018C118.471 71.3018 120.284 71.8348 121.35 73.7971C122.415 75.7594 123.003 81.432 119.199 83.9132C115.396 86.3947 112.628 82.5517 112.7 78.917C112.772 75.2821 114.224 70.6354 118.471 71.3018Z" fill="#F7A491"/>
<path id="Vector_45" d="M104.444 24.0933C113.206 27.5564 118.758 35.2188 116.846 41.2077C115.891 44.2023 113.249 46.2115 109.752 47.039L110.489 57.2745L105.198 47.4525C102.767 47.3631 100.149 46.8202 97.5203 45.7813C88.7584 42.3181 83.2054 34.6558 85.1171 28.6669C87.0291 22.678 95.682 20.6303 104.444 24.0933Z" fill="white"/>
<path id="Vector_46" d="M107.687 34.5913C107.727 38.1969 105.132 41.1551 101.892 41.1985C98.6518 41.242 95.9932 38.3541 95.9541 34.7483C95.9141 31.1426 98.5087 28.1845 101.749 28.1411C104.99 28.0978 107.648 30.9857 107.687 34.5913Z" fill="#F7CC7F"/>
<path id="Vector_47" d="M98.6953 35.7463C98.7166 37.674 100.138 39.218 101.87 39.1948C103.602 39.1716 104.99 37.5901 104.968 35.6623L98.6953 35.7463Z" fill="#EFEFEF"/>
<path id="Vector_48" d="M54.3554 76.6322C55.7577 74.9435 58.7099 67.9143 59.7082 65.9172C59.863 65.534 59.9186 64.1344 60.3921 62.8493C60.8534 61.5972 62.0599 59.8174 62.6617 60.3514C63.2634 60.8855 61.4138 62.3342 61.9742 62.2719C63.0227 62.1555 64.6787 57.9936 65.2242 58.4775C65.7693 58.9616 63.5013 62.7179 63.9946 62.6036C64.488 62.4892 66.0634 59.4649 66.6123 60.0032C67.0527 60.4348 64.5243 63.4791 64.9821 63.7746C65.2815 63.9676 66.0698 62.1355 66.458 62.4809C67.0778 63.0326 65.4559 64.7197 65.5842 65.0173C65.7653 65.4373 66.0461 65.3949 66.1754 66.1145C66.2725 66.6548 62.9678 68.1067 62.4875 69.2074C61.5756 72.1818 59.9746 77.5983 57.8589 80.3349C55.2703 83.6834 47.8234 92.968 47.8234 92.968L44.7295 86.4394C44.7295 86.4394 52.6926 78.6346 54.3554 76.6322Z" fill="#FFB27D"/>
<path id="Vector_49" d="M62.1831 63.431C62.3759 63.7151 62.4963 64.0458 62.5779 64.3895C62.5777 64.4488 62.9091 65.542 62.2557 66.6033C62.4451 65.8268 62.6524 64.9649 62.1831 63.431Z" fill="#6B4744"/>
<path id="Vector_50" d="M29.582 145.94C29.582 145.94 29.1088 150.509 28.3403 152.503C27.572 154.496 25.0376 155.755 22.8092 156.244C20.5808 156.732 21.3231 157.123 21.6496 157.486C21.9761 157.85 31.6355 158.095 33.3396 157.752C33.3396 157.752 32.6842 154.011 32.6842 153.427C32.6842 152.844 35.3496 143.654 35.3496 143.654L29.582 145.94Z" fill="#FFB27D"/>
<path id="Vector_51" d="M33.3399 157.751C33.3399 157.751 33.2065 156.989 33.06 156.1C31.1966 156.378 26.9333 155.892 24.7973 155.615C24.1433 155.891 23.349 155.973 22.6953 156.116C20.4669 156.605 20.6341 157.255 21.1928 157.708C21.5661 158.01 31.6358 158.095 33.3399 157.751Z" fill="#466EB6"/>
<path id="Vector_52" d="M48.5869 144.868C48.5869 144.868 48.3255 150.485 48.8663 152.503C49.4235 154.581 50.2214 154.939 52.4097 155.616C54.5583 156.28 53.7425 157.345 53.4161 157.708C53.0894 158.071 45.5713 158.095 43.8669 157.752C43.8669 157.752 44.5223 154.011 44.5223 153.427C44.5223 152.844 43.7266 143.399 43.7266 143.399L48.5869 144.868Z" fill="#FFB27D"/>
<path id="Vector_53" d="M43.8672 157.751C43.8672 157.751 44.0009 156.989 44.1473 156.1C46.0107 156.378 50.2739 155.892 52.4099 155.615C53.1486 155.815 53.7468 155.979 54.3978 156.244C56.5314 157.11 56.341 157.344 56.0143 157.708C55.6881 158.071 45.5715 158.095 43.8672 157.751Z" fill="#466EB6"/>
<path id="Vector_54" d="M27.1809 146.394C27.1809 146.394 32.2929 147.925 38.093 147.925C43.8932 147.925 55.2969 144.644 55.2969 144.644C55.2969 144.644 52.1511 136.184 51.0698 129.693C49.9883 123.204 49.2019 112.045 49.2019 112.045H31.8961L30.8145 119.77L27.1809 146.394Z" fill="#466EB6"/>
<path id="Vector_55" d="M34.2794 86.0051C33.2915 87.2903 32.8739 88.3066 33.0331 91.3156C33.2717 95.8293 33.2073 101.939 32.8797 104.272C32.5517 106.606 31.5686 112.404 31.5686 112.404C31.5686 112.404 34.4524 115.066 41.9245 114.336C49.3963 113.607 49.7897 112.489 49.7897 112.489C49.7897 112.489 48.741 93.6978 48.741 91.728C48.741 89.7591 47.1369 84.0627 47.1369 84.0627C47.1369 84.0627 42.8203 83.5669 40.8539 83.7355C38.8875 83.9036 35.2673 84.7198 34.2794 86.0051Z" fill="#F47458"/>
<path id="Vector_56" d="M48.1207 70.0141C48.1207 70.0141 53.0083 75.4549 48.1138 80.1385C46.465 81.7163 44.7012 81.2266 44.7012 81.2266C44.7012 81.2266 43.5987 84.3748 38.393 83.7004C34.6158 83.211 34.5967 80.1555 34.5967 80.1555C34.5967 80.1555 31.9644 80.9317 30.0305 78.2351C27.7079 74.9961 28.5927 70.7502 31.7448 69.212C31.7448 69.212 30.1841 64.5387 34.4249 62.6545C37.8087 61.1508 40.3166 63.5816 40.3166 63.5816C40.3166 63.5816 42.645 60.7984 46.2321 63.4308C49.7897 66.0415 48.1207 70.0141 48.1207 70.0141Z" fill="#13375B"/>
<path id="Vector_57" d="M38.4668 75.4443C39.037 76.3368 39.0599 77.4078 38.5177 77.8364C37.9756 78.2654 37.0738 77.8897 36.5036 76.997C35.9336 76.1047 35.9109 75.0336 36.4529 74.6048C36.995 74.1759 37.8968 74.5518 38.4668 75.4443Z" fill="#FFB27D"/>
<path id="Vector_58" d="M43.4904 79.968L43.69 84.2207C43.69 84.2207 43.748 85.8755 42.2234 86.2617C40.6988 86.6479 39.1684 85.4737 39.0509 84.1408C39.036 83.9717 39.2851 78.082 39.2851 78.082L43.4904 79.968Z" fill="#FFB27D"/>
<path id="Vector_59" d="M39.2851 78.082L43.4904 79.968L43.5614 81.4808C42.8381 81.5652 41.7595 81.6184 40.8499 81.1417C40.0853 80.7409 39.6287 80.1758 39.231 79.3714C39.2624 78.6183 39.2851 78.082 39.2851 78.082Z" fill="#F69755"/>
<path id="Vector_60" d="M39.206 66.8706C39.206 66.8706 37.5209 68.0251 36.9435 70.4254C36.3659 72.8257 37.1959 78.9421 41.6331 80.2773C46.07 81.6127 47.5881 76.7676 46.903 72.9161C46.0923 68.3614 43.3008 64.7729 39.206 66.8706Z" fill="#FFB27D"/>
<path id="Vector_61" d="M58.4283 97.6489C56.3499 97.2845 54.9307 95.1138 55.2585 92.8018L62.3884 42.1141L69.9151 43.4347L62.7851 94.1218C62.4573 96.4347 60.5068 98.0142 58.4283 97.6489Z" fill="#C5DDF9"/>
<path id="Vector_62" d="M67.2566 61.3047C66.1043 62.2985 66.4701 62.6815 67.1683 62.2932C67.8196 61.9309 67.6102 60.9998 67.2566 61.3047Z" fill="#966259"/>
<path id="Vector_63" d="M67.1566 62.5114C66.3414 63.2204 66.687 63.4388 67.1152 63.2077C67.5202 62.9892 67.4188 62.2833 67.1566 62.5114Z" fill="#966259"/>
<path id="Vector_64" d="M67.3625 59.9623C66.2747 60.6424 66.1537 61.036 66.2668 61.2508C66.3728 61.4521 67.5131 61.0581 67.6898 60.6057C67.8361 60.231 67.6456 59.7853 67.3625 59.9623Z" fill="#966259"/>
<path id="Vector_65" d="M70.0916 48.0035L60.9573 46.4008C60.607 46.3394 60.3677 45.9734 60.423 45.5836L61.2736 39.5804C61.3289 39.1905 61.6577 38.9244 62.0081 38.9858L71.1424 40.5884C71.4928 40.65 71.732 41.0157 71.6768 41.4056L70.8261 47.4089C70.7708 47.7987 70.442 48.065 70.0916 48.0035Z" fill="#FAE0B2"/>
<path id="Vector_66" d="M63.6154 39.2675L62.4196 39.0577L61.373 46.4462L62.5687 46.6559L63.6154 39.2675Z" fill="#F7CC7F"/>
<path id="Vector_67" d="M65.9869 39.6832L64.7913 39.4735L63.7446 46.862L64.9404 47.0717L65.9869 39.6832Z" fill="#F7CC7F"/>
<path id="Vector_68" d="M68.3611 40.0964L67.1653 39.8868L66.1187 47.2751L67.3145 47.4848L68.3611 40.0964Z" fill="#F7CC7F"/>
<path id="Vector_69" d="M70.733 40.5123L69.5373 40.3025L68.4907 47.6908L69.6864 47.9006L70.733 40.5123Z" fill="#F7CC7F"/>
<path id="Vector_70" d="M67.2008 49.8884L63.1863 49.184C62.6604 49.0916 62.3013 48.5424 62.3842 47.9572L62.5686 46.6563L68.4875 47.6948L68.3032 48.9957C68.2202 49.5811 67.7266 49.9806 67.2008 49.8884Z" fill="#F7CC7F"/>
<path id="Vector_71" d="M59.3032 95.4827L58.2063 95.2898C56.8678 95.0551 55.9531 93.6587 56.1621 92.1689L59.764 66.3381L62.1501 67.8229L65.7133 67.382L62.1126 93.2044C61.9031 94.6969 60.6446 95.7182 59.3032 95.4827Z" fill="#F47458"/>
<path id="Vector_72" d="M59.7639 66.3381C59.7639 66.3381 62.23 67.6524 63.904 66.9348C65.578 66.217 66.5743 67.4393 64.8117 68.5906C62.9973 69.7757 59.7639 66.3381 59.7639 66.3381Z" fill="#B75742"/>
<path id="Vector_73" opacity="0.5" d="M57.4554 93.1867L56.9178 93.0924C56.7416 93.0622 56.6212 92.8782 56.649 92.6818L62.9392 48.2948C62.967 48.0988 63.1323 47.9649 63.3086 47.9957L63.8462 48.0901C64.0224 48.121 64.1427 48.305 64.1149 48.5012L57.8248 92.888C57.797 93.0844 57.6316 93.2178 57.4554 93.1867Z" fill="white"/>
<path id="Vector_74" d="M52.9855 94.5209C52.9855 94.5209 53.4799 92.6667 54.3703 91.6444C55.2342 90.6524 56.4721 88.6609 56.8263 89.4347C57.1806 90.208 55.5162 91.7342 56.0846 91.8836C56.653 92.0338 60.3141 89.0995 60.6351 89.8C60.956 90.5013 57.3428 93.0231 57.8515 93.1573C58.3601 93.2916 61.5824 90.864 61.8943 91.5876C62.3261 92.5911 58.0225 94.392 58.2659 94.9244C58.5095 95.4551 61.2123 94.2347 61.5775 95.032C61.9427 95.8293 57.8222 96.5067 58.1214 96.5849C58.4206 96.664 60.6047 97.1209 60.5128 97.5991C60.4089 98.1396 55.2737 96.9831 54.3878 97.7484C53.5018 98.5138 42.7394 105.365 40.7385 104.327C38.7375 103.29 32.8905 91.8667 32.8816 89.3102C32.8727 86.7427 34.3946 84.766 36.3866 85.2428C37.8294 85.5882 42.616 98.5929 43.0669 98.712C43.5176 98.8311 52.9855 94.5209 52.9855 94.5209Z" fill="#FFB27D"/>
</g>
</svg>
