<svg width="162" height="160" viewBox="0 0 162 160" fill="none" xmlns="http://www.w3.org/2000/svg">
<g id="Property 1=Images, Property 2=Parents">
<path id="Vector" d="M86.4963 18.1491H71.5221C69.5551 18.1491 67.9454 19.8382 67.9454 21.9021V27.8467C67.9454 28.7896 68.2823 29.6542 68.8352 30.3154L67.9454 34.5823L73.0758 31.5997H86.4972C88.4642 31.5997 90.0739 29.9107 90.0739 27.8467V21.9021C90.0739 19.8382 88.4642 18.1491 86.4972 18.1491H86.4963Z" fill="#A9E8B7"/>
<path id="Vector_2" d="M86.7781 22.678H71.2537C70.9337 22.678 70.6724 22.4039 70.6724 22.0681C70.6724 21.7323 70.9337 21.4582 71.2537 21.4582H86.7781C87.0981 21.4582 87.3594 21.7323 87.3594 22.0681C87.3594 22.4029 87.0981 22.678 86.7781 22.678Z" fill="#B7D3F3"/>
<path id="Vector_3" d="M86.7781 25.3463H71.2537C70.9337 25.3463 70.6724 25.0721 70.6724 24.7364C70.6724 24.4006 70.9337 24.1264 71.2537 24.1264H86.7781C87.0981 24.1264 87.3594 24.4006 87.3594 24.7364C87.3594 25.0721 87.0981 25.3463 86.7781 25.3463Z" fill="#B7D3F3"/>
<path id="Vector_4" d="M86.7781 27.9139H71.2537C70.9337 27.9139 70.6724 27.6397 70.6724 27.3039C70.6724 26.9691 70.9337 26.694 71.2537 26.694H86.7781C87.0981 26.694 87.3594 26.9682 87.3594 27.3039C87.3594 27.6397 87.0981 27.9139 86.7781 27.9139Z" fill="#B7D3F3"/>
<path id="Vector_5" d="M155.333 160H6.4449C5.83104 160 5.33337 159.446 5.33337 158.763C5.33337 158.079 5.83104 157.525 6.4449 157.525H155.333C155.947 157.525 156.444 158.079 156.444 158.763C156.444 159.446 155.947 160 155.333 160Z" fill="#F0806A"/>
<path id="Vector_6" d="M16.0268 159.923C16.0268 159.923 -8.06153 108.674 4.83104 68.6516C43.8074 -52.3436 163.939 10.2609 152.71 76.3561C146.536 112.706 169.474 123.596 157.536 160L16.0268 159.923Z" fill="#A9E8B7"/>
<path id="Intersect" fill-rule="evenodd" clip-rule="evenodd" d="M11.7336 50.8186C15.4662 42.7313 19.6384 35.7398 24.1441 29.7539L35.5375 29.1257C35.7083 29.1163 36.0213 29.0791 36.4506 29.0282C40.786 28.5137 56.9796 26.5922 58.2014 37.6092C58.2264 37.8346 58.2439 38.0627 58.2615 38.2907C58.3131 38.9626 58.3648 39.6343 58.6079 40.2397C59.6186 42.756 62.2388 42.6786 64.7923 42.6031C65.5806 42.5798 66.3626 42.5567 67.0888 42.6102C70.0406 42.8273 72.5632 44.7377 75.1006 46.6592C76.3288 47.5893 77.5606 48.5221 78.8461 49.2667C82.2212 51.2216 86.0222 51.8819 89.7692 52.2342C93.8559 52.6183 98.0177 52.682 102.179 52.7457C112.92 52.9102 123.656 53.0745 133.086 58.7487C133.976 59.2843 134.875 59.895 135.462 60.8497C136.233 62.102 136.521 63.7374 136.439 65.2828C135.835 76.6939 115.783 82.2522 102.827 85.8439C100.501 86.4886 98.4038 87.0699 96.6888 87.6104C89.3738 89.9152 81.9929 92.2329 74.4319 92.6811C73.1942 92.7545 71.9479 92.7788 70.701 92.803C67.0158 92.8747 63.3264 92.9464 59.8442 94.2884C58.2547 94.9011 56.7496 95.7648 55.2436 96.6292C54.2385 97.2061 53.233 97.7832 52.2016 98.2861C47.9279 100.37 43.2829 101.146 38.6749 101.588C30.4502 102.377 22.183 102.158 13.9333 101.938L1.2318 101.601C0.859888 95.1419 0.990353 88.5555 1.8519 82.0754C7.79784 81.9118 13.756 82.7449 19.7025 83.5765C21.5119 83.8295 23.3201 84.0824 25.1266 84.3069C34.3628 85.4554 43.9858 85.8066 52.6328 81.8027C53.6523 81.3306 54.6528 80.8 55.653 80.2696C57.2393 79.4284 58.8248 78.5876 60.4841 77.9812C65.0837 76.3002 70.0117 76.4889 74.9122 76.6766C80.7902 76.9018 86.6285 77.1254 91.8129 74.1191C94.1814 72.7455 96.5294 69.5967 95.2888 66.845C94.544 65.1931 92.8311 64.569 91.2757 64.2158C90.0339 63.9338 88.7668 63.7198 87.4988 63.5057C83.763 62.8749 80.0187 62.2426 76.8841 59.8629C76.4773 59.554 76.0834 59.2171 75.6898 58.8804C74.8527 58.1644 74.0167 57.4492 73.0589 57.0066C71.6246 56.3436 70.0408 56.349 68.5008 56.3633L44.0355 56.5908C41.7813 56.6118 39.4834 56.6254 37.3338 55.8233C35.95 55.3068 34.676 54.4697 33.4022 53.6328C32.1004 52.7774 30.7988 51.9222 29.3804 51.4096C27.3217 50.6657 25.1294 50.6835 22.9768 50.7076C20.7294 50.7329 18.4818 50.754 16.2342 50.7751C14.734 50.7892 13.2338 50.8033 11.7336 50.8186Z" fill="#D4F3DB"/>
<path id="Vector_7" d="M93.4088 83.3323C94.4995 83.8154 96.0345 85.497 98.4894 84.4776C100.246 83.7623 102.103 83.2614 103.007 83.0283C103.366 82.9564 103.57 82.9033 103.57 82.9033L102.599 79.9338C102.599 79.9338 102.565 79.9515 102.479 79.9692C101.848 80.1119 98.6432 80.8282 97.1437 80.47C95.4558 80.0587 92.6258 82.187 92.6258 82.187C92.6258 82.187 92.3191 82.8669 93.4097 83.3323H93.4088Z" fill="#FFB27D"/>
<path id="Vector_8" d="M75.8517 85.9036L77.6027 86.5005C77.6027 86.5005 80.3848 85.5333 82.8175 88.9571C82.8175 88.9571 83.5792 90.231 82.6415 91.2019C81.7785 92.0954 81.6096 89.9895 79.9475 90.4101C78.2853 90.8298 77.1592 90.1742 76.4179 89.1091L75.194 88.3415L75.8517 85.9036Z" fill="#FFB27D"/>
<path id="Vector_9" d="M52.9971 45.5044C52.9971 45.5044 59.219 55.7112 57.2502 74.3603C56.636 80.1819 76.0873 89.4215 76.0873 89.4215C76.0873 89.4215 77.5477 88.2221 76.9219 86.0724C76.9219 86.0724 66.1243 74.7641 65.0275 73.3764C64.0542 72.1444 61.4188 59.023 60.282 54.6555C58.3275 47.144 52.9962 45.5054 52.9962 45.5054L52.9971 45.5044Z" fill="#233862"/>
<path id="Vector_10" d="M24.4547 149.106C24.4547 149.106 22.3251 151.146 22.7402 152.594C23.1553 154.043 25.0778 155.009 25.3374 156.78C25.5969 158.551 26.6359 159.517 27.571 159.517H32.0285C32.0285 159.517 32.7165 158.271 31.0544 157.895C29.3922 157.519 28.7656 155.438 28.8687 153.506C28.9727 151.574 28.7132 148.998 28.7132 148.998L25.1809 148.139L24.4539 149.105L24.4547 149.106Z" fill="#233862"/>
<path id="Vector_11" d="M50.5829 154.38C50.5829 154.38 50.2007 159.021 51.1358 159.504L63.1022 159.478C63.1022 159.478 63.1022 158.028 61.1805 157.707C59.258 157.385 55.8822 156.204 55.3107 153.574C54.7391 150.944 50.5838 154.379 50.5838 154.379L50.5829 154.38Z" fill="#233862"/>
<path id="Vector_12" d="M60.6854 88.8172C60.6854 88.8172 60.0544 96.9526 59.3131 106.732C58.3043 120.017 57.0919 136.335 56.9719 139.426C56.7648 144.794 55.9328 153.38 55.9328 153.38C55.9328 153.38 53.9596 155.42 50.0105 154.56C50.0105 154.56 46.4916 142.302 45.4864 129.333C45.4704 129.12 45.4552 128.907 45.4392 128.692C44.5042 115.49 43.05 87.6887 43.05 87.6887L60.6846 88.8153L60.6854 88.8172Z" fill="#FFB93E"/>
<path id="Vector_13" d="M60.6855 88.8172C60.6855 88.8172 60.0545 96.9526 59.3132 106.732L45.4873 129.334C45.4713 129.121 45.4562 128.908 45.4402 128.693C44.5052 115.491 43.051 87.6896 43.051 87.6896L60.6855 88.8162V88.8172Z" fill="#E3A330"/>
<path id="Vector_14" d="M57.803 89.7843C57.803 89.7843 46.4268 119.248 38.9472 133.095C31.4668 146.942 29.1291 150.806 29.1291 150.806C29.1291 150.806 24.8441 149.035 24.4539 147.827C24.4539 147.827 27.3141 121.096 32.3236 114.58C35.1537 110.897 38.4788 99.8475 38.6352 95.9827C38.7908 92.1187 39.6476 84.4701 39.6476 84.4701L57.803 89.7834V89.7843Z" fill="#FFB93E"/>
<path id="Vector_15" d="M42.8358 44.3768C42.8358 44.3768 50.5331 48.2734 54.9702 46.8278C54.9702 46.8278 53.8778 45.3822 51.9668 44.306C52.1206 43.3715 52.2397 42.5601 52.3081 41.8727C52.4957 40.2854 52.4957 39.3863 52.4957 39.3863L49.5261 36.9353L46.7103 34.5897C46.9325 41.1844 42.8358 44.3759 42.8358 44.3759V44.3768Z" fill="#FFB27D"/>
<path id="Vector_16" d="M61.1717 89.4896C61.0357 89.6136 60.882 89.6826 60.7095 89.6826C59.0376 89.6472 54.1739 90.6162 50.0613 90.176C46.5797 89.8235 43.507 88.7659 40.213 87.2503C39.7686 87.0386 38.7615 86.4744 38.7793 85.981C38.7971 85.4168 38.8468 84.6231 38.9153 83.599C39.053 81.5845 39.2477 78.7241 39.309 75.333C39.3553 72.8186 39.3295 70.0133 39.1553 67.0419C39.1455 66.8423 39.1348 66.6408 39.1268 66.4394C39.077 65.3501 39.053 64.2523 39.053 63.1798C39.0353 59.7234 39.2735 56.4266 39.7508 53.4822C40.589 48.3676 42.1426 44.3367 44.4625 42.5554C44.77 42.3073 46.6988 43.3062 48.4729 44.2062C50.0951 45.0353 51.7154 45.1239 53.2513 44.8068L54.7872 46.2169C56.6493 47.9964 58.6972 50.4474 59.6012 54.1518C60.3513 57.2911 60.7949 62.9681 61.0349 68.8587C61.1531 71.5381 61.2393 74.2185 61.2731 76.7749V76.8635C61.2908 77.1274 61.2908 77.3942 61.2908 77.6591C61.3744 84.2006 61.2908 89.4029 61.1708 89.4905L61.1717 89.4896Z" fill="#2B478B"/>
<path id="Vector_17" d="M46.6587 37.1125C46.6587 37.1125 48.6044 40.8328 52.3081 41.8736C52.4957 40.2863 52.4957 39.3872 52.4957 39.3872L49.5261 36.9362L46.6587 37.1125Z" fill="#ED985F"/>
<path id="Vector_18" d="M53.8495 39.279C53.8495 39.279 46.5068 40.539 45.8171 35.8031C45.1274 31.0662 43.7159 28.0389 48.3752 27.0344C53.0344 26.03 54.2104 27.6947 54.813 29.2177C55.4148 30.7407 55.7418 38.8295 53.8495 39.279Z" fill="#FFB27D"/>
<path id="Vector_19" d="M43.1487 26.4674C43.082 26.3872 42.9283 26.3228 42.5861 26.3032C42.5861 26.3032 42.8598 26.1232 43.2251 26.1139C43.2962 25.6149 43.5496 24.7308 44.3682 24.5163C44.3682 24.5163 43.9282 24.7625 43.8704 25.2932C44.8188 24.271 46.8516 23.5267 52.4788 23.9931C59.8953 24.6077 57.451 29.5898 56.491 30.1839C55.5311 30.778 53.1143 29.1496 51.3251 29.2989C49.5359 29.4481 49.1954 32.1602 48.5893 32.5323C47.9822 32.9044 48.2213 32.246 47.4 31.8571C46.5787 31.4672 46.5005 32.8951 46.7378 33.824C46.9751 34.752 45.8463 35.9766 45.8463 35.9766L44.7059 34.6877C43.5656 33.3997 42.491 27.9419 43.0091 26.7789C43.0554 26.6763 43.1007 26.5718 43.1469 26.4674H43.1487Z" fill="#ED7D2B"/>
<path id="Vector_20" d="M78.3902 86.8661C78.3902 86.8661 79.3297 86.424 79.8906 87.0591C80.4514 87.6933 81.7633 88.1307 81.6505 88.4628C81.4176 89.1492 80.2079 88.3751 78.9297 88.7929C78.4826 88.9384 77.0952 88.0403 78.3902 86.867V86.8661Z" fill="#FFB27D"/>
<path id="Vector_21" d="M39.3089 75.333C39.3551 72.8187 39.3294 70.0133 39.1551 67.0419C39.1454 66.8423 39.1347 66.6408 39.1267 66.4394C39.8244 62.8105 40.8804 59.5919 42.435 59.4866C42.435 59.4866 47.0649 67.1212 39.3089 75.333Z" fill="#233862"/>
<path id="Vector_22" d="M33.1849 88.4982C33.1849 88.4982 33.5707 92.4349 33.9947 93.1801C34.4178 93.9243 36.2212 96.3044 36.9892 96.7717C37.7571 97.2389 36.5199 93.6361 36.6763 92.9348C36.8327 92.2334 37.3082 94.2144 37.6469 94.261C37.9855 94.3076 37.8984 92.5253 37.9109 91.8772C37.9233 91.228 36.2639 89.6276 35.679 88.2464C35.0942 86.8652 33.1858 88.4991 33.1858 88.4991L33.1849 88.4982Z" fill="#FFB27D"/>
<path id="Vector_23" d="M44.4829 42.5452C44.4829 42.5452 39.8369 44.8534 37.6095 48.4021C34.1546 53.9066 30.1486 73.9686 30.0748 75.8274C30.0011 77.6852 32.9982 90.8009 32.9982 90.8009C32.9982 90.8009 36.038 90.591 36.822 88.9804C36.822 88.9804 36.2149 75.5047 36.5998 74.6382C36.9846 73.7718 49.2728 56.5609 47.8916 52.8891C46.5103 49.2163 44.4837 42.5452 44.4837 42.5452H44.4829Z" fill="#2B478B"/>
<path id="Vector_24" d="M111.795 27.968C111.806 27.6462 112.043 24.1749 117.082 23.9931C117.082 23.9931 114.604 24.3027 114.177 25.4461C114.177 25.4461 115.864 24.0341 117.238 24.4883C118.612 24.9425 119.419 27.4681 119.427 28.2991C119.435 29.1301 118.672 31.8077 117.8 32.0352C117.469 32.121 117.089 32.0986 116.744 32.0362C116.976 32.4167 117.203 32.8354 117.42 33.3036C119.431 37.6339 117.357 41.8662 115.655 41.3989C114.563 41.0986 114.254 43.0534 114.254 43.0534L103.648 34.0441C103.648 34.0441 107.544 25.587 111.795 27.9671V27.968Z" fill="#2C3A64"/>
<path id="Vector_25" d="M85.7711 77.5901C85.7711 77.5901 83.6699 77.1601 83.1891 77.5901C82.7082 78.02 80.4292 80.4495 80.9172 81.2479C81.4052 82.0453 83.7446 80.5876 84.2317 80.4495C84.7179 80.3124 86.0778 79.7547 86.0778 79.7547L85.7711 77.5901Z" fill="#FFB27D"/>
<path id="Vector_26" d="M108.101 155.549L110.354 156.429C110.354 156.429 120.138 142.189 121.343 129.661C121.558 127.425 121.486 125.257 121.021 123.256C121.021 123.256 121.117 122.683 121.285 121.669C121.362 121.197 121.458 120.628 121.566 119.975C121.885 118.062 122.322 115.446 122.822 112.466C123.973 105.609 125.465 96.8444 126.624 90.4008L126.017 90.1965L119.449 87.9731L118.092 83.4498L113.201 82.0994C113.201 82.0994 112.109 84.3414 111.132 94.9344C110.952 96.324 110.788 97.8563 110.665 99.5174C110.284 104.589 110.257 110.88 111.13 118.072C111.354 119.913 111.637 121.814 111.988 123.767C112.246 125.199 112.284 127.15 112.176 129.391C111.682 139.632 108.1 155.549 108.1 155.549H108.101Z" fill="#2B478B"/>
<path id="Vector_27" d="M110.666 99.5174L121.285 121.669C121.362 121.197 121.458 120.628 121.566 119.975C121.885 118.062 122.322 115.446 122.822 112.466C123.973 105.609 125.465 96.8444 126.624 90.4008L126.017 90.1965L119.449 87.9731L118.092 83.4498L113.202 82.0994C113.202 82.0994 112.109 84.3414 111.132 94.9344C110.952 96.324 110.788 97.8563 110.665 99.5174H110.666Z" fill="#233862"/>
<path id="Vector_28" d="M115.338 84.942L115.584 82.7298C119.703 83.8779 130.706 79.5225 130.706 79.5225C130.706 79.5225 134.696 83.2027 134.173 92.0236C133.917 96.3296 133.45 114.625 132.962 120.039C132.786 122.001 132.632 123.398 132.569 123.955C132.568 123.958 132.568 123.959 132.568 123.961C132.548 124.131 132.605 124.292 132.688 124.44C133.406 125.719 134 127.051 134.488 128.413C139.277 141.8 133.751 158.288 133.751 158.288L132.317 157.681C132.317 157.681 129.172 139.334 126.618 131.228C126.184 129.853 125.768 128.772 125.388 128.127C124.277 126.246 123.246 123.172 122.31 119.516C120.542 112.604 119.119 103.613 118.171 96.6728C118.04 96.6793 115.339 84.9411 115.339 84.9411L115.338 84.942Z" fill="#2B478B"/>
<path id="Vector_29" d="M85.7712 77.59L86.0779 79.7547C86.0779 79.7547 86.2139 79.7547 86.453 79.737C87.2031 79.6829 89.027 79.5756 91.09 79.3434C94.193 79.0216 97.8754 78.449 99.3411 77.5014C101.575 76.0708 105.239 71.6874 107.627 67.3049C107.695 67.1976 107.746 67.0904 107.797 66.9831C109.042 64.6571 109.911 62.3498 109.98 60.5078C110.031 59.3812 109.911 58.415 109.69 57.5737C109.4 56.4648 108.923 55.5881 108.429 54.9259C108.36 54.8187 108.293 54.7114 108.189 54.6219C107.371 53.6025 106.57 53.1735 106.57 53.1735C106.161 52.9944 105.718 53.209 105.257 53.7275V53.7452C104.882 54.1565 104.473 54.7823 104.081 55.5695C104.064 55.5872 104.047 55.6049 104.047 55.6236C103.962 55.7849 103.877 55.963 103.775 56.1598C103.741 56.1953 103.724 56.2494 103.706 56.2848C103.519 56.6961 103.331 57.1251 103.144 57.5728C101.047 62.3666 99.2513 69.4117 97.3928 71.5764C96.5919 72.5062 92.4891 74.5487 89.5737 75.9085C87.4769 76.8747 85.7721 77.59 85.7721 77.59H85.7712Z" fill="#FFB27D"/>
<path id="Vector_30" d="M89.4873 72.9138C91.9325 71.748 94.7403 72.7235 95.8514 77.6236C96.5927 80.8944 103.806 84.5251 100.559 89.5194C97.4513 93.4412 89.9771 90.8746 90.6073 85.9045C91.2374 80.9345 92.8276 76.7796 91.0934 75.9868C88.9282 74.9973 89.4873 72.9138 89.4873 72.9138Z" fill="#ED7D2B"/>
<path id="Vector_31" d="M85.2645 87.2811C90.3931 86.5117 95.311 86.6963 95.5857 92.6195C95.8594 98.5418 97.1927 109.682 95.5928 111.876C93.9929 114.069 85.6058 113.757 85.6058 113.757C79.9946 103.718 85.2645 87.2811 85.2645 87.2811Z" fill="#FFB93E"/>
<path id="Vector_32" d="M107.469 58.1109C108.763 58.7404 110.323 59.1685 112.212 59.2767C119.293 59.6843 120.901 53.1707 121.193 48.8479C120.173 48.4599 119.278 48.4963 118.764 48.5252C118.262 48.5541 117.737 48.6082 117.305 48.6642C116.439 48.1895 114.883 45.8831 113.984 42.0257L113.678 42.174L108.569 44.6939C108.569 44.6939 109.111 46.4389 109.513 48.1074C109.826 49.414 110.05 50.6759 109.862 51.0294C109.459 51.201 109.219 51.3092 109.219 51.3092C109.219 51.3092 109.219 51.311 109.217 51.3148C109.165 51.4519 108.054 54.4214 107.469 58.11V58.1109Z" fill="#FFB27D"/>
<path id="Vector_33" d="M108.569 44.6958C108.569 44.6958 109.112 46.4389 109.512 48.1093C112.498 47.2345 113.405 43.9413 113.678 42.1749L108.568 44.6949L108.569 44.6958Z" fill="#ED985F"/>
<path id="Vector_34" d="M107.94 46.5415C107.94 46.5415 115.085 44.8068 113.986 40.1539C112.888 35.5018 113.071 32.1443 108.462 33.0555C103.854 33.9667 103.39 35.971 103.397 37.618C103.403 39.2641 106.053 46.8726 107.94 46.5415Z" fill="#FFB27D"/>
<path id="Vector_35" d="M102.995 34.9768C103.763 33.2906 104.667 33.381 105.232 33.6795C108.589 30.4199 111.882 33.0826 111.882 33.0826C113.15 36.2955 115.896 37.6078 115.896 37.6078C115.896 37.6078 114.799 38.7875 111.618 38.7614C110.646 38.753 109.669 38.2849 108.78 37.6404C110.494 39.4525 112.505 40.5558 112.505 40.5558C108.523 39.7566 105.852 34.919 105.578 34.4051C105.24 34.9283 104.595 36.0409 104.541 36.9801C104.467 38.2569 104.886 40.7368 104.189 40.831C104.189 40.831 101.841 37.5052 102.993 34.9768H102.995Z" fill="#2C3A64"/>
<path id="Vector_36" d="M103.126 57.5653C103.383 56.7549 105.103 53.6063 105.103 53.6063C105.103 53.6063 105.103 53.6063 105.104 53.6063C105.111 53.5988 106.197 52.5542 109.218 51.3101C109.218 51.3101 109.218 51.312 109.216 51.3157C109.168 51.5013 107.879 56.4005 108.349 57.4469C108.828 58.5101 117.878 55.077 118.373 54.2936C118.768 53.6641 118.779 50.3392 118.768 49.0447C118.767 48.722 118.763 48.5252 118.763 48.5252C118.763 48.5252 122.141 48.0449 124.042 48.8517C124.042 48.8517 123.292 50.5612 123.015 52.447C122.989 52.6261 122.967 52.8061 122.951 52.9851C122.915 53.3656 122.903 53.7452 122.924 54.1164C122.951 54.607 123.192 55.0407 123.576 55.465C123.925 55.8549 124.4 56.2391 124.937 56.6495C125.288 56.9162 125.665 57.196 126.055 57.4982C126.088 59.7179 125.939 63.3691 126.331 67.2648C126.43 68.2524 126.742 69.1981 127.235 70.0357C127.43 70.3695 127.655 70.6857 127.905 70.9813C129.9 73.3297 133.439 78.0116 132.661 80.9261C132.604 83.6746 110.514 87.2848 110.986 84.2668C110.986 84.2668 107.666 67.4793 105.873 63.427C105.809 63.2787 105.75 63.1332 105.696 62.9849C105.121 61.3854 105.218 59.7412 105.413 58.2685C104.4 57.5131 103.124 57.5644 103.124 57.5644L103.126 57.5653Z" fill="#F99746"/>
<path id="Vector_37" d="M116.936 78.6271C121.293 78.5786 124.982 73.8315 127.237 70.0375C126.744 69.2 126.432 68.2543 126.332 67.2666C125.94 63.371 126.09 59.7197 126.057 57.5C125.667 57.1969 125.29 56.9171 124.939 56.6504C124.402 56.2391 123.927 55.8558 123.578 55.466C120.01 61.7939 111.029 78.6934 116.937 78.6271H116.936Z" fill="#ED7D2B"/>
<path id="Vector_38" d="M100.466 81.1145L101.063 83.4041C101.063 83.4041 101.813 83.2614 103.007 83.0283C103.365 82.9565 103.569 82.9033 103.569 82.9033C104.524 82.7065 105.666 82.4379 106.91 82.1516H106.927C109.059 81.6144 111.445 80.9709 113.457 80.2555C114.872 79.737 116.099 79.1821 116.935 78.6281C117.02 78.574 117.089 78.5208 117.174 78.449C119.168 76.9288 121.538 72.4568 123.379 67.663C123.635 67.0008 123.873 66.3396 124.112 65.6952C124.965 63.2983 125.646 60.9368 126.055 58.8971C126.311 57.681 126.482 56.5711 126.516 55.659C126.532 55.3372 126.549 55.0332 126.532 54.7469C126.499 49.5595 124.044 48.8442 124.044 48.8442C123.993 48.8265 123.941 48.8088 123.873 48.791C123.446 48.7192 123.004 49.0233 122.543 49.6136C121.964 50.3467 121.35 51.5451 120.719 52.9945C119.748 55.3018 118.725 58.2891 117.77 61.2586C117.241 62.886 116.73 64.5144 116.219 66.0169C115.93 66.929 115.64 67.788 115.367 68.5751C114.838 70.0776 114.361 71.2938 113.935 72.0632C113.662 72.564 112.878 73.2617 111.838 74.0488C110.031 75.4263 107.389 77.0902 105.087 78.449C104.133 79.0217 103.229 79.5402 102.48 79.9692C101.269 80.6668 100.468 81.1145 100.468 81.1145H100.466Z" fill="#FFB27D"/>
<path id="Vector_39" d="M120.725 53.001C124.008 52.0515 126.539 54.7403 126.539 54.7403C126.498 49.5614 124.041 48.8526 124.041 48.8526C123.052 48.4226 121.907 50.2189 120.725 53.001Z" fill="#F99746"/>
<path id="Vector_40" d="M125.413 159.517H136.759C136.759 159.517 137.031 157.703 136.438 156.326C135.87 155.006 134.981 154.405 135.194 152.807C134.473 153.585 133.298 154.457 131.657 154.226C131.456 154.568 130.36 156.397 129.689 156.904C128.947 157.462 125.641 157.264 125.412 159.517H125.413Z" fill="#233862"/>
<path id="Vector_41" d="M101.052 159.517H112.398C112.398 159.517 112.822 157.618 112.077 156.326C111.418 155.183 111.67 154.532 112.159 153.586C111.645 153.807 110.98 154.008 110.248 153.964C109.683 153.929 109.084 153.661 108.561 153.341C108.073 153.925 105.981 156.412 105.328 156.905C104.587 157.463 101.28 157.265 101.052 159.518V159.517Z" fill="#233862"/>
<path id="Vector_42" d="M75.6224 117.699C75.6224 117.699 80.1946 151.726 79.6666 155.927L82.5518 155.56C82.5518 155.56 86.1631 140.706 85.7285 136.55C85.2939 132.393 89.3061 115.262 85.605 113.757C81.9038 112.251 75.6224 117.699 75.6224 117.699Z" fill="#F0995E"/>
<path id="Vector_43" d="M79.7804 117.74C79.7804 117.74 86.3027 151.798 86.0227 156.026L88.8767 155.334C88.8767 155.334 91.6517 140.023 90.9744 135.902C90.2971 131.782 93.296 114.425 89.5132 113.161C85.7303 111.897 79.7804 117.741 79.7804 117.741V117.74Z" fill="#FFB27D"/>
<path id="Vector_44" d="M79.7022 155.329C79.7022 155.329 79.0169 156.651 77.7103 156.957C76.8872 157.15 76.1851 157.604 75.7495 158.237C75.3815 158.773 75.7442 159.521 76.3735 159.517L83.0113 159.477C83.5766 159.473 84.0148 158.959 83.9553 158.369C83.9028 157.853 83.8477 157.252 83.8228 156.792C83.7686 155.786 82.7295 154.883 82.7295 154.883C82.7295 154.883 81.8185 155.431 81.4665 155.496C80.7021 155.637 79.7013 155.328 79.7013 155.328L79.7022 155.329Z" fill="#2C3A64"/>
<path id="Vector_45" d="M85.9436 155.329C85.9436 155.329 85.2583 156.651 83.9517 156.957C83.1287 157.15 82.4265 157.604 81.991 158.237C81.623 158.773 81.9856 159.521 82.6149 159.517L89.2528 159.477C89.8181 159.473 90.2563 158.959 90.1967 158.369C90.1443 157.853 90.0892 157.252 90.0643 156.792C90.0101 155.786 88.971 154.883 88.971 154.883C88.971 154.883 88.0599 155.431 87.708 155.496C86.9436 155.637 85.9427 155.328 85.9427 155.328L85.9436 155.329Z" fill="#35488B"/>
<path id="Vector_46" d="M78.4364 88.2222C78.4364 88.2222 74.0989 95.8959 73.2234 102.153C73.2234 102.153 75.3335 105.14 76.1912 103.043C77.0498 100.945 83.2086 89.7172 78.4364 88.2222Z" fill="#FFB27D"/>
<path id="Vector_47" d="M79.2631 74.6C79.3093 74.5189 81.2505 71.2985 84.8787 70.6559C87.8181 70.1355 90.5691 72.3141 91.0215 75.4058C91.4757 78.5124 91.0126 82.5386 86.1818 83.9889L79.2631 74.6Z" fill="#ED7D2B"/>
<path id="Vector_48" d="M80.1511 88.4432L85.6175 91.8501L87.0609 87.8174C87.0609 87.8174 86.3659 86.341 86.1819 83.988C86.1054 82.9984 86.1072 81.8522 86.2699 80.595L81.5164 82.7615C81.5164 82.7615 81.599 83.2157 81.6328 83.8798C81.6684 84.597 81.6453 85.5595 81.3964 86.4595C81.1822 87.2317 80.8035 87.9573 80.1511 88.4441V88.4432Z" fill="#FFB27D"/>
<path id="Vector_49" d="M92.7157 124.405C92.2055 118.275 91.4438 110.215 90.9647 106.907C90.8065 105.815 90.7976 104.706 90.9407 103.613L92.066 94.9082L92.4198 92.1765C92.6064 90.7309 91.842 89.3338 90.5594 88.7705C89.3906 88.2585 88.5347 88.1401 87.0619 87.8183C86.1472 88.6847 84.3696 89.9289 82.4888 89.5427C81.0755 89.2518 80.7947 88.5187 80.8711 87.6672C80.512 87.7045 80.184 87.6803 79.8774 87.725C78.6926 87.8938 77.6713 88.584 77.0225 89.5698L77.0216 89.5651L76.9985 89.6062C76.8971 89.7647 76.8038 89.9289 76.722 90.1014L74.6439 93.8301C74.6439 93.8301 74.8448 95.1274 75.8661 95.7262C74.8448 107.524 73.6627 134.163 74.6164 134.504C80.792 136.716 91.7505 133.64 93.2348 132.152C93.3095 132.077 93.0748 128.718 92.7157 124.406V124.405Z" fill="#2C3A64"/>
<path id="Vector_50" d="M79.2169 88.4413C76.0162 91.1311 74.9416 97.9085 75.3611 102.521C76.1628 100.427 76.1122 97.32 76.889 94.0222C77.6445 90.8158 79.7537 88.3163 79.7537 88.3163C79.6737 88.3163 79.216 88.4413 79.216 88.4413H79.2169Z" fill="#FFB93E"/>
<path id="Vector_51" d="M81.3962 86.4585C84.0183 86.5602 86.1817 83.988 86.1817 83.988L81.6327 83.8788C81.6682 84.596 81.6451 85.5585 81.3962 86.4585Z" fill="#ED985F"/>
<path id="Vector_52" d="M80.2195 84.8432C80.2195 84.8432 85.3534 86.6385 87.4191 82.4015C89.6483 77.8288 87.723 74.2614 85.964 73.9117C82.4558 73.215 80.3164 74.4927 79.6044 75.9467C78.8925 77.4007 77.3859 83.8798 80.2204 84.8432H80.2195Z" fill="#FFB27D"/>
<path id="Vector_53" d="M82.438 82.5284C82.438 82.5284 82.1856 83.0786 80.8274 82.6692C80.8274 82.6692 79.6871 82.326 79.8568 81.6955C79.8568 81.6955 81.0737 81.5015 82.438 82.5274V82.5284Z" fill="white"/>
<path id="Vector_54" d="M92.7156 124.405C92.5529 124.207 82.1615 111.486 81.7865 104.718C81.4105 97.8964 87.0004 92.9124 87.0004 92.9124C89.2278 92.7585 90.873 93.5233 92.0659 94.9082L90.9406 103.613C90.7975 104.706 90.8064 105.815 90.9646 106.907C91.4437 110.215 92.2054 118.275 92.7156 124.405Z" fill="#232E4F"/>
<path id="Vector_55" d="M88.6332 88.0048C83.6744 89.2042 82.3411 97.8022 84.6192 104.385C86.3098 109.27 91.5228 111.597 91.5228 111.597C92.089 110.929 91.6517 109.427 91.6517 109.427C84.0068 104.314 85.2921 97.0869 87.0608 93.4412C88.8296 89.7955 89.1852 88.4423 91.7957 89.4215C91.4695 87.8901 88.6332 88.0058 88.6332 88.0058V88.0048Z" fill="#FFB93E"/>
<path id="Vector_56" d="M83.8166 74.4144C83.8166 74.4144 83.3295 79.4684 87.899 81.259C89.7158 81.9707 90.6615 74.2521 86.8653 72.7114C83.0691 71.1697 79.3253 73.0005 78.8773 75.6949C78.4302 78.3893 78.7706 78.9508 78.7706 78.9508C78.7706 78.9508 80.5474 73.825 83.8166 74.4144Z" fill="#ED7D2B"/>
<path id="Vector_57" d="M86.5907 90.9464C86.5907 90.9464 84.4948 99.6423 84.4139 103.101C84.4139 103.101 79.8151 111.529 79.5449 112.129C79.2746 112.728 81.2052 113.547 81.2052 113.547C81.2052 113.547 86.9746 107.091 88.0866 104.378C89.1985 101.665 93.144 92.8434 91.5646 90.2096C89.986 87.5768 86.5907 90.9464 86.5907 90.9464Z" fill="#FFB27D"/>
<path id="Vector_58" d="M73.2243 102.153C73.2243 102.153 72.8128 108.077 76.8303 112.744C76.8303 112.744 77.9271 111.359 77.7885 110.929C77.6498 110.499 76.0775 103.897 74.9291 102.958C73.7807 102.019 73.2243 102.154 73.2243 102.154V102.153Z" fill="#FFB27D"/>
<path id="Vector_59" d="M79.545 112.129C79.545 112.129 76.9736 112.109 76.8296 112.743C76.6856 113.377 77.4909 115.363 79.3716 114.671C81.2524 113.979 81.2053 113.547 81.2053 113.547L79.545 112.129Z" fill="#FFB27D"/>
<path id="Vector_60" d="M77.7885 110.928C77.7885 110.928 79.8541 111.93 79.1528 112.998C78.4506 114.066 77.0472 113.427 76.8303 112.744C76.6134 112.06 77.7885 110.929 77.7885 110.929V110.928Z" fill="#FFB27D"/>
<path id="Vector_61" d="M85.0779 95.535C85.0779 95.535 87.7747 98.1669 91.9326 97.7593C91.9326 97.7593 93.9814 90.1397 90.6954 89.2042C87.4093 88.2688 84.694 92.7846 85.0779 95.535Z" fill="#2C3A64"/>
</g>
</svg>
