<svg width="201" height="180" viewBox="0 0 201 180" fill="none" xmlns="http://www.w3.org/2000/svg">
<g id="Property 1=Keeds">
<path id="Vector" d="M186.02 179.126C195.516 161.185 201 140.021 201 117.356C201 52.5418 156.164 0 100.857 0C45.5489 0 0.713379 52.5418 0.713379 117.356C0.713379 140.021 6.19747 161.185 15.6937 179.126L186.02 179.126Z" fill="#A9E8B7"/>
<path id="Vector_2" opacity="0.25" d="M172.541 37.9236C168.206 37.2704 163.801 37.8179 159.444 37.4078C155.088 36.9979 150.8 35.621 146.874 33.3717C145.787 32.749 144.713 32.0539 143.536 31.7287C141.954 31.292 140.303 31.5525 138.679 31.6301C135.515 31.7814 132.327 31.2196 129.34 29.9841C128.332 29.5668 127.206 28.877 127.04 27.6387C126.828 26.058 128.298 24.9278 129.582 24.3856C130.867 23.8435 132.409 23.1745 132.686 21.6079C132.811 20.9038 132.643 20.1085 132.968 19.4987C133.191 19.0821 133.594 18.8559 133.978 18.6615C138.244 16.5078 142.88 15.6664 147.494 15.4407C148.505 15.3913 149.548 15.4341 150.6 15.4875C145.076 11.7747 139.223 8.65536 133.101 6.21695C130.174 6.39921 127.24 6.44299 124.3 6.33873C118.149 6.1204 111.536 5.4159 106.283 9.17438C105.601 9.66253 104.914 10.2853 104.689 11.1842C104.135 13.4025 106.553 14.9172 108.465 15.4831C108.767 17.0209 107.034 17.894 105.709 18.1691C101.435 19.0559 97.2252 20.3709 93.1415 22.095C90.2459 23.3174 87.0312 25.2701 86.461 28.8144C86.0601 31.3071 87.2034 33.8852 88.8895 35.4758C90.5757 37.0665 92.7223 37.8223 94.8473 38.3051C102.082 39.9484 109.563 38.8206 116.899 39.6407C117.877 39.75 118.9 39.9149 119.696 40.5897C120.956 41.6573 121.294 43.6593 122.175 45.1603C123.925 48.1405 127.431 48.6852 130.514 48.8822C137.377 49.3209 144.257 49.3866 151.126 49.079C152.856 49.0014 154.62 48.9044 156.291 49.4362C158.048 49.9955 159.59 51.213 161.218 52.1687C165.089 54.4412 169.452 55.2307 173.732 55.9971C178.124 56.7834 182.553 57.5753 186.986 57.4488C183.519 50.6185 179.475 44.2387 174.937 38.3948C174.142 38.2084 173.344 38.0445 172.541 37.9236Z" fill="white"/>
<path id="Vector_3" opacity="0.25" d="M155.067 76.413C154.394 75.3284 153.364 74.6346 152.344 74.026C137.355 65.0819 119.483 68.1878 102.716 66.6248C98.4235 66.2246 94.0687 65.4745 90.2018 63.2535C85.6864 60.66 81.7504 56.057 76.7315 55.6909C73.2042 55.4334 68.5304 56.7392 67.0149 52.9977C66.6418 52.0765 66.6623 51.0202 66.5491 50.0092C65.0107 36.2533 42.754 40.2522 40.5832 40.371C35.2658 40.6617 29.9483 40.9524 24.6309 41.2432C19.3708 48.4706 14.8471 56.456 11.1931 65.0389C16.1928 64.9841 21.1928 64.9462 26.1923 64.8905C28.6585 64.8631 31.1703 64.8429 33.5289 65.6881C36.7439 66.8402 39.4352 69.516 42.6412 70.7025C45.1039 71.6138 47.7367 71.5983 50.3193 71.5745C59.6626 71.4883 69.0059 71.4021 78.3491 71.3159C80.1136 71.2997 81.9281 71.2936 83.5714 72.0468C85.1846 72.7861 86.4964 74.1947 87.9539 75.2919C92.7642 78.9132 98.8278 78.9728 104.442 80.2373C106.224 80.6386 108.187 81.3476 109.04 83.2244C110.462 86.3506 107.771 89.9281 105.058 91.4886C94.1662 97.7516 80.7551 91.6758 69.1644 95.8763C66.0648 96.9996 63.19 98.8309 60.1692 100.218C50.2623 104.767 39.2373 104.368 28.6554 103.063C19.6989 101.959 10.7051 100.253 1.73598 100.535C1.06315 106.029 0.713379 111.644 0.713379 117.356C0.713379 119.147 0.751512 120.927 0.819256 122.699C5.82327 122.83 10.8273 122.962 15.8312 123.094C25.2829 123.344 34.7546 123.592 44.1776 122.696C49.457 122.194 54.7789 121.312 59.6752 118.945C62.6276 117.517 65.3949 115.564 68.4313 114.403C73.7707 112.363 79.5353 112.907 85.1444 112.577C93.807 112.068 102.263 109.435 110.644 106.816C123.556 102.781 155.37 96.7408 156.186 81.4496C156.28 79.6938 155.95 77.8358 155.067 76.413Z" fill="white"/>
<path id="Vector_4" d="M183.614 67.4631C183.614 67.4631 183.326 70.7891 181.087 71.0192C183.326 71.2493 183.614 74.5752 183.614 74.5752C183.614 74.5752 183.902 71.2493 186.142 71.0192C183.902 70.7891 183.614 67.4631 183.614 67.4631Z" fill="white"/>
<path id="Vector_5" d="M73.0599 19.671C73.0599 19.671 72.8648 21.9254 71.3467 22.0814C72.8648 22.2374 73.0599 24.4918 73.0599 24.4918C73.0599 24.4918 73.255 22.2374 74.7731 22.0814C73.2549 21.9254 73.0599 19.671 73.0599 19.671Z" fill="white"/>
<path id="Vector_6" d="M186.986 120.496C186.986 120.496 186.784 122.827 185.214 122.989C186.784 123.15 186.986 125.482 186.986 125.482C186.986 125.482 187.188 123.15 188.758 122.989C187.188 122.827 186.986 120.496 186.986 120.496Z" fill="white"/>
<path id="Vector_7" d="M166.677 99.1184C167.872 99.1184 167.874 96.9425 166.677 96.9425C165.482 96.9426 165.48 99.1184 166.677 99.1184Z" fill="white"/>
<path id="Vector_8" d="M144.6 112.115C145.197 112.115 145.198 111.027 144.6 111.027C144.002 111.027 144.001 112.115 144.6 112.115Z" fill="white"/>
<path id="Vector_9" d="M178.644 88.9029C179.241 88.9029 179.242 87.8149 178.644 87.8149C178.046 87.8149 178.045 88.9029 178.644 88.9029Z" fill="white"/>
<path id="Vector_10" d="M160.487 64.7241C161.084 64.7241 161.085 63.6359 160.487 63.6359C159.89 63.6359 159.889 64.7241 160.487 64.7241Z" fill="white"/>
<path id="Vector_11" d="M63.1013 35.7095C63.6986 35.7095 63.6997 34.6214 63.1013 34.6214C62.5038 34.6214 62.5029 35.7095 63.1013 35.7095Z" fill="white"/>
<path id="Vector_12" d="M80.6389 49.5518C81.8337 49.5518 81.8356 47.3757 80.6389 47.3757C79.444 47.3758 79.4419 49.5518 80.6389 49.5518Z" fill="white"/>
<path id="Vector_13" d="M81.464 32.808C82.0614 32.808 82.0624 31.72 81.464 31.72C80.8667 31.72 80.8656 32.808 81.464 32.808Z" fill="white"/>
<path id="Vector_14" d="M63.7201 21.9275C64.3176 21.9275 64.3185 20.8395 63.7201 20.8395C63.1228 20.8395 63.1217 21.9275 63.7201 21.9275Z" fill="white"/>
<path id="Vector_15" d="M56.9115 21.6555C57.2103 21.6555 57.2107 21.1115 56.9115 21.1115C56.6128 21.1115 56.6122 21.6555 56.9115 21.6555Z" fill="white"/>
<path id="Vector_16" d="M28.2322 68.0789C28.531 68.0789 28.5314 67.5349 28.2322 67.5349C27.9336 67.5349 27.933 68.0789 28.2322 68.0789Z" fill="white"/>
<path id="Vector_17" d="M45.1509 66.2051C46.047 66.2051 46.0486 64.5729 45.1509 64.5729C44.2548 64.5729 44.2533 66.2051 45.1509 66.2051Z" fill="white"/>
<path id="Vector_18" d="M11.5198 95.673C12.1173 95.673 12.1182 94.5851 11.5198 94.5851C10.9223 94.5851 10.9213 95.673 11.5198 95.673Z" fill="white"/>
<path id="Vector_19" d="M157.186 34.2134C158.53 34.2134 158.532 31.7654 157.186 31.7654C155.842 31.7654 155.839 34.2134 157.186 34.2134Z" fill="white"/>
<path id="Vector_20" d="M133.871 16.3966C134.767 16.3966 134.769 14.7646 133.871 14.7646C132.975 14.7646 132.973 16.3966 133.871 16.3966Z" fill="white"/>
<path id="Vector_21" d="M113.032 22.6529C113.629 22.6529 113.63 21.5648 113.032 21.5648C112.435 21.5648 112.433 22.6529 113.032 22.6529Z" fill="white"/>
<path id="Vector_22" d="M149.139 26.6273C149.587 26.6273 149.588 25.8112 149.139 25.8112C148.691 25.8112 148.69 26.6273 149.139 26.6273Z" fill="white"/>
<path id="Vector_23" d="M167.296 39.442C167.744 39.442 167.745 38.6261 167.296 38.6261C166.848 38.6261 166.847 39.442 167.296 39.442Z" fill="white"/>
<path id="Vector_24" d="M149.964 63.8628C150.412 63.8628 150.413 63.0468 149.964 63.0468C149.516 63.0466 149.515 63.8628 149.964 63.8628Z" fill="white"/>
<path id="Vector_25" d="M76.306 65.3134C76.7541 65.3134 76.7549 64.4974 76.306 64.4974C75.858 64.4975 75.8573 65.3134 76.306 65.3134Z" fill="white"/>
<path id="Vector_26" d="M193.603 180H7.13475C6.36596 180 5.74268 179.377 5.74268 178.608C5.74268 177.839 6.36596 177.216 7.13475 177.216H193.603C194.372 177.216 194.995 177.839 194.995 178.608C194.995 179.376 194.372 180 193.603 180Z" fill="#F0806A"/>
<path id="Vector_27" d="M131.006 83.9752C130.087 81.9099 128.929 75.498 128.542 73.3197C128.632 73.1502 129.107 72.1456 128.847 70.3128C128.664 69.0182 129.341 66.7693 128.523 67.0043C127.706 67.2393 127.905 69.5001 127.364 69.1655C126.822 68.831 126.085 64.1339 125.344 64.3468C124.603 64.5599 125.594 68.9518 125.11 68.6525C124.625 68.3532 124.164 64.2543 123.116 64.5555C122.069 64.8566 124.107 69.328 123.544 69.4895C122.982 69.6511 121.771 66.7998 120.928 67.0422C120.085 67.2846 122.768 70.8588 122.483 70.6828C122.198 70.5067 120.2 69.144 119.933 69.5256C119.631 69.9571 124.349 73.9657 124.488 75.1383C124.456 78.1528 124.334 83.6186 125.658 86.9029C127.278 90.9214 131.279 99.8088 131.279 99.8088L137.53 97.5936C137.53 97.5938 132.097 86.4244 131.006 83.9752Z" fill="#F7A491"/>
<path id="Vector_28" d="M126.753 70.1146C126.453 70.2904 126.214 70.537 126.012 70.8105C125.992 70.8634 125.273 71.7048 125.609 72.9114C125.67 72.1442 125.74 71.2933 126.753 70.1146Z" fill="#F48C7F"/>
<path id="Vector_29" d="M149.641 77.6675C149.641 77.6675 152.303 76.4461 154.136 78.163C155.969 79.88 155.408 81.1851 155.408 81.1851C155.408 81.1851 158.686 81.77 158.426 84.8897C158.166 88.0092 157.593 88.2747 157.593 88.2747C157.593 88.2747 158.82 89.6178 158.441 91.2265C158.062 92.8349 156.553 93.2737 156.553 93.2737C156.553 93.2737 155.56 95.9316 153.322 96.2973C151.085 96.663 150.335 96.2418 150.335 96.2418C150.335 96.2418 149.094 97.9078 145.522 97.1733C144.214 96.904 143.388 96.2715 143.258 95.9547C143.258 95.9547 140.476 95.5078 139.511 94.273C137.82 92.1072 138.592 90.6334 138.592 90.6334C138.592 90.6334 136.762 87.3106 138.15 84.8735C139.254 82.9345 139.985 83.1837 139.985 83.1837C139.985 83.1837 139.086 78.4068 143.388 79.2517C143.388 79.2518 145.044 75.393 149.641 77.6675Z" fill="#A34B3D"/>
<path id="Vector_30" d="M172.712 98.7765C172.712 98.7765 172.437 97.7618 173.124 96.0756C173.564 94.9939 173.506 92.8927 174.13 93.2791C174.754 93.6653 174.085 95.581 174.608 95.412C175.131 95.2429 176.789 91.3341 177.354 91.6842C177.92 92.034 176.12 95.6214 176.588 95.47C177.056 95.3187 178.352 91.8671 179.152 92.362C179.952 92.8568 177.268 96.2793 177.697 96.5451C178.126 96.8104 179.764 94.6081 180.408 95.0065C181.052 95.4049 178.034 97.9056 178.309 97.8166C178.585 97.7275 180.542 96.9917 180.678 97.3821C180.831 97.8234 176.769 99.6019 176.392 100.588C176.015 101.573 169.787 111.674 167.723 111.9C165.658 112.127 155.706 106.848 154.813 104.879C153.92 102.91 154.527 100.655 155.848 100.227C157.17 99.8001 166.488 105.095 166.903 104.961C167.318 104.827 172.712 98.7765 172.712 98.7765Z" fill="#F7A491"/>
<path id="Vector_31" d="M174.52 96.121C174.754 96.3782 174.909 96.6847 175.02 97.0061C175.023 97.0623 175.459 98.0796 174.778 99.1313C174.949 98.3809 175.136 97.5479 174.52 96.121Z" fill="#F48C7F"/>
<path id="Vector_32" d="M164.26 145.882C165.329 145.511 167.264 143.554 167.264 143.554C169.745 145.472 174.889 151.455 174.889 151.455C174.889 151.455 173.928 152.117 173.108 151.745C172.287 151.372 168.512 149.683 166.757 150.292C166.3 150.451 161.18 152.187 156.642 153.357C156.083 151.73 157.617 148.476 156.86 146.948C159.282 146.159 163.906 146.005 164.26 145.882Z" fill="#F7A491"/>
<path id="Vector_33" d="M165.499 145.125C165.499 145.125 169.95 149.675 170.384 150.483C170.738 151.141 176.262 153.399 176.54 152.555C176.817 151.711 169.968 142.668 168.887 142.337C167.806 142.007 165.499 145.125 165.499 145.125Z" fill="#F0806A"/>
<path id="Vector_34" d="M136.665 159.108C137.037 160.143 139.044 162.031 139.044 162.031C137.028 164.403 130.768 169.297 130.768 169.297C130.768 169.297 130.093 168.363 130.488 167.576C130.883 166.789 132.884 161.892 132.272 160.192C132.113 159.75 130.944 156.453 129.846 154.591C131.539 154.07 133.2 153.269 134.793 152.555C135.583 154.901 136.541 158.765 136.665 159.108Z" fill="#F7A491"/>
<path id="Vector_35" d="M137.364 123.835C137.364 123.835 125.779 135.273 124.599 137.479C123.716 139.128 129.063 156.081 129.063 156.081C129.063 156.081 134.089 155.699 136.191 153.671C136.191 153.671 133.532 141.843 134.084 141.311C134.636 140.778 147.874 133.099 147.874 133.099L146.23 126.09L137.364 123.835Z" fill="#253A66"/>
<path id="Vector_36" d="M139.919 123.534C139.919 123.534 142.943 130.555 142.943 133.293C142.943 135.391 142.017 152.194 146.445 153.814C148.958 154.734 160.79 153.377 160.79 153.377L159.718 145.769C159.718 145.769 154.085 146.606 153.59 146.129C153.095 145.652 158.102 132.982 157.058 128.634C156.013 124.287 147.329 121.637 147.329 121.637L139.919 123.534Z" fill="#355389"/>
<path id="Vector_37" d="M134.485 90.2289C134.485 90.2289 133.072 90.6524 128.725 96.5611L136.84 109L139.957 97.3402L134.485 90.2289Z" fill="#D9664A"/>
<path id="Vector_38" d="M146.339 98.1227C146.339 98.1227 141.284 97.6968 139.896 97.1931C138.507 96.6895 133.695 123.393 133.454 127.056C140.106 128.485 157.721 132.65 157.721 132.65C157.721 132.65 158.022 130.933 157.091 127.967C155.477 122.831 154.563 111.079 154.563 109.007C154.563 107.79 160.868 112.009 160.868 112.009L163.51 102.463C163.51 102.463 155.461 99.2296 152.64 98.6485C151.853 98.4859 146.339 98.1227 146.339 98.1227Z" fill="#F0806A"/>
<path id="Vector_39" d="M137.356 160.211C137.356 160.211 132.334 164.793 131.425 165.235C130.685 165.595 128.972 171.016 129.914 171.315C130.855 171.614 140.176 164.895 140.559 163.774C140.942 162.652 137.356 160.211 137.356 160.211Z" fill="#F0806A"/>
<path id="Vector_40" d="M144.497 93.2716C144.497 93.2716 145.197 98.3719 143.712 99.7519C142.144 101.209 149.387 100.808 149.898 98.401C150.175 97.1004 149.185 91.3598 149.185 91.3598L144.497 93.2716Z" fill="#F7A491"/>
<path id="Vector_41" d="M149.185 91.3599L144.497 93.2717C144.497 93.2717 144.668 94.5217 144.661 95.9512C145.808 96.1195 147.111 95.8731 148.52 95.0473C148.925 94.8094 149.294 94.5472 149.628 94.2649C149.419 92.7191 149.185 91.3599 149.185 91.3599Z" fill="#F48C7F"/>
<path id="Vector_42" d="M151.539 89.6578C151.162 90.7079 151.433 91.7651 152.142 92.0196C152.852 92.2738 153.733 91.6289 154.109 90.579C154.485 89.5289 154.215 88.4714 153.505 88.2172C152.795 87.9627 151.915 88.6077 151.539 89.6578Z" fill="#F7A491"/>
<path id="Vector_43" d="M139.048 87.08C138.995 88.1943 139.563 89.1263 140.316 89.162C141.069 89.1976 141.723 88.3232 141.775 87.2091C141.828 86.0948 141.26 85.1628 140.507 85.1273C139.754 85.0918 139.101 85.9659 139.048 87.08Z" fill="#F7A491"/>
<path id="Vector_44" d="M148.03 80.2146C148.03 80.2146 150.299 80.8143 151.632 83.0218C152.966 85.2295 153.702 91.6112 148.941 94.4026C144.18 97.1941 140.715 92.8709 140.805 88.7817C140.895 84.6926 142.713 79.465 148.03 80.2146Z" fill="#F7A491"/>
<path id="Vector_45" d="M130.47 27.1049C141.438 31.001 148.389 39.6211 145.996 46.3586C144.799 49.7275 141.493 51.9878 137.115 52.9188L138.038 64.4338L131.413 53.384C128.372 53.2834 125.094 52.6726 121.803 51.5039C110.835 47.6079 103.884 38.9878 106.277 32.2502C108.67 25.5126 119.502 23.209 130.47 27.1049Z" fill="white"/>
<path id="Vector_46" d="M134.53 38.9153C134.579 42.9716 131.332 46.2995 127.276 46.3484C123.22 46.3972 119.892 43.1484 119.842 39.0919C119.793 35.0355 123.041 31.7077 127.097 31.6588C131.152 31.6101 134.481 34.859 134.53 38.9153Z" fill="#F7CC7F"/>
<path id="Vector_47" d="M123.274 40.2144C123.301 42.3831 125.08 44.1201 127.248 44.094C129.417 44.0679 131.153 42.2887 131.127 40.1199L123.274 40.2144Z" fill="#EFEFEF"/>
<path id="Vector_48" d="M67.7701 86.2111C69.5253 84.3113 73.221 76.4036 74.4706 74.1569C74.6644 73.7258 74.7341 72.1512 75.3267 70.7054C75.9042 69.2968 77.4144 67.2945 78.1678 67.8952C78.921 68.4962 76.6057 70.1259 77.3072 70.0559C78.6198 69.9249 80.6927 65.2428 81.3755 65.7871C82.0578 66.3317 79.2189 70.5575 79.8363 70.4289C80.4539 70.3002 82.4261 66.898 83.1132 67.5035C83.6643 67.989 80.4993 71.414 81.0725 71.7464C81.4472 71.9635 82.4341 69.9023 82.92 70.2909C83.6958 70.9117 81.6656 72.8096 81.8262 73.1443C82.0529 73.6169 82.4044 73.5692 82.5663 74.3788C82.6878 74.9866 78.551 76.6199 77.9498 77.8582C76.8082 81.2045 74.804 87.298 72.1557 90.3767C68.9153 94.1438 59.5932 104.589 59.5932 104.589L55.7205 97.2442C55.7205 97.2442 65.6885 88.4638 67.7701 86.2111Z" fill="#FFB27D"/>
<path id="Vector_49" d="M77.5684 71.3598C77.8097 71.6794 77.9605 72.0514 78.0626 72.4382C78.0623 72.5049 78.4772 73.7348 77.6593 74.9287C77.8962 74.0552 78.1558 73.0854 77.5684 71.3598Z" fill="#6B4744"/>
<path id="Vector_50" d="M36.7593 164.181C36.7593 164.181 36.1669 169.323 35.2049 171.566C34.2431 173.808 31.0707 175.224 28.2811 175.774C25.4915 176.324 26.4208 176.763 26.8296 177.172C27.2382 177.581 39.3298 177.857 41.4629 177.471C41.4629 177.471 40.6425 173.261 40.6425 172.605C40.6425 171.948 43.9791 161.611 43.9791 161.611L36.7593 164.181Z" fill="#FFB27D"/>
<path id="Vector_51" d="M41.463 177.47C41.463 177.47 41.2959 176.614 41.1125 175.612C38.78 175.925 33.4431 175.38 30.7695 175.067C29.9507 175.377 28.9564 175.47 28.1381 175.631C25.3486 176.181 25.558 176.912 26.2573 177.421C26.7247 177.761 39.3298 177.857 41.463 177.47Z" fill="#466EB6"/>
<path id="Vector_52" d="M60.5492 162.977C60.5492 162.977 60.222 169.296 60.899 171.566C61.5963 173.904 62.5952 174.306 65.3345 175.068C68.0241 175.815 67.0029 177.013 66.5942 177.421C66.1854 177.83 56.7742 177.857 54.6408 177.471C54.6408 177.471 55.4612 173.261 55.4612 172.605C55.4612 171.949 54.4651 161.324 54.4651 161.324L60.5492 162.977Z" fill="#FFB27D"/>
<path id="Vector_53" d="M54.6409 177.47C54.6409 177.47 54.8081 176.614 54.9914 175.612C57.3241 175.925 62.6607 175.38 65.3346 175.067C66.2592 175.292 67.008 175.476 67.8229 175.774C70.4937 176.749 70.2553 177.012 69.8465 177.421C69.4382 177.83 56.7743 177.857 54.6409 177.47Z" fill="#466EB6"/>
<path id="Vector_54" d="M33.7537 164.693C33.7537 164.693 40.1529 166.416 47.4134 166.416C54.674 166.416 68.9491 162.724 68.9491 162.724C68.9491 162.724 65.0112 153.207 63.6576 145.905C62.3038 138.604 61.3194 126.051 61.3194 126.051H39.6562L38.3023 134.741L33.7537 164.693Z" fill="#466EB6"/>
<path id="Vector_55" d="M42.6389 96.7557C41.4022 98.2016 40.8796 99.3449 41.0788 102.73C41.3776 107.808 41.2969 114.681 40.8869 117.306C40.4763 119.932 39.2456 126.454 39.2456 126.454C39.2456 126.454 42.8556 129.449 52.209 128.628C61.5622 127.808 62.0546 126.55 62.0546 126.55C62.0546 126.55 60.7418 105.41 60.7418 103.194C60.7418 100.979 58.7338 94.5705 58.7338 94.5705C58.7338 94.5705 53.3303 94.0128 50.8689 94.2024C48.4074 94.3915 43.8755 95.3098 42.6389 96.7557Z" fill="#F47458"/>
<path id="Vector_56" d="M59.9652 78.7661C59.9652 78.7661 66.0834 84.8869 59.9566 90.1559C57.8926 91.931 55.6847 91.38 55.6847 91.38C55.6847 91.38 54.3046 94.9218 47.7881 94.163C43.0598 93.6126 43.036 90.1751 43.036 90.1751C43.036 90.1751 39.7409 91.0483 37.3201 88.0146C34.4126 84.3708 35.5202 79.5942 39.4661 77.8636C39.4661 77.8636 37.5124 72.6063 42.821 70.4864C47.0567 68.7949 50.196 71.5294 50.196 71.5294C50.196 71.5294 53.1108 68.3984 57.6011 71.3598C62.0544 74.2969 59.9652 78.7661 59.9652 78.7661Z" fill="#13375B"/>
<path id="Vector_57" d="M47.881 84.8748C48.5947 85.8789 48.6234 87.0839 47.9446 87.566C47.2661 88.0486 46.1373 87.6259 45.4235 86.6216C44.7099 85.6178 44.6815 84.4128 45.36 83.9305C46.0386 83.448 47.1674 83.8708 47.881 84.8748Z" fill="#FFB27D"/>
<path id="Vector_58" d="M54.1694 89.9638L54.4192 94.7481C54.4192 94.7481 54.4919 96.6096 52.5834 97.0442C50.6748 97.4787 48.7593 96.1577 48.6121 94.6582C48.5935 94.468 48.9052 87.8421 48.9052 87.8421L54.1694 89.9638Z" fill="#FFB27D"/>
<path id="Vector_59" d="M48.9051 87.8421L54.1693 89.9638L54.2582 91.6656C53.3527 91.7607 52.0026 91.8205 50.8639 91.2842C49.9068 90.8333 49.3353 90.1975 48.8374 89.2926C48.8768 88.4454 48.9051 87.8421 48.9051 87.8421Z" fill="#F69755"/>
<path id="Vector_60" d="M48.8063 75.2294C48.8063 75.2294 46.6969 76.5283 45.9741 79.2287C45.2511 81.9289 46.29 88.8099 51.8445 90.3121C57.3986 91.8143 59.299 86.3636 58.4413 82.0307C57.4265 76.9066 53.9321 72.8695 48.8063 75.2294Z" fill="#FFB27D"/>
<path id="Vector_61" d="M72.8683 109.856C70.2665 109.445 68.4899 107.004 68.9002 104.402L77.8255 47.3785L87.2472 48.8641L78.3219 105.887C77.9117 108.489 75.47 110.266 72.8683 109.856Z" fill="#C5DDF9"/>
<path id="Vector_62" d="M83.9196 68.9679C82.477 70.0859 82.9349 70.5167 83.809 70.0799C84.6242 69.6724 84.3622 68.6249 83.9196 68.9679Z" fill="#966259"/>
<path id="Vector_63" d="M83.7943 70.3255C82.7739 71.1231 83.2065 71.3688 83.7425 71.1088C84.2496 70.8629 84.1226 70.0688 83.7943 70.3255Z" fill="#966259"/>
<path id="Vector_64" d="M84.052 67.4577C82.6903 68.2228 82.5388 68.6655 82.6804 68.9071C82.8131 69.1336 84.2404 68.6904 84.4616 68.1814C84.6448 67.76 84.4063 67.2585 84.052 67.4577Z" fill="#966259"/>
<path id="Vector_65" d="M87.468 54.0039L76.0338 52.2009C75.5952 52.1318 75.2957 51.7201 75.3649 51.2815L76.4298 44.528C76.4991 44.0894 76.9106 43.7899 77.3492 43.8591L88.7834 45.662C89.222 45.7312 89.5215 46.1427 89.4523 46.5813L88.3874 53.335C88.3183 53.7735 87.9067 54.0731 87.468 54.0039Z" fill="#FAE0B2"/>
<path id="Vector_66" d="M79.3613 44.1758L77.8645 43.9399L76.5543 52.2519L78.0511 52.4878L79.3613 44.1758Z" fill="#F7CC7F"/>
<path id="Vector_67" d="M82.33 44.6438L80.8333 44.4078L79.5231 52.7199L81.0198 52.9558L82.33 44.6438Z" fill="#F7CC7F"/>
<path id="Vector_68" d="M85.3025 45.1087L83.8057 44.8728L82.4955 53.1847L83.9924 53.4206L85.3025 45.1087Z" fill="#F7CC7F"/>
<path id="Vector_69" d="M88.2714 45.5762L86.7747 45.3402L85.4645 53.6521L86.9613 53.8881L88.2714 45.5762Z" fill="#F7CC7F"/>
<path id="Vector_70" d="M83.8496 56.1243L78.8244 55.3319C78.1661 55.2279 77.7165 54.6101 77.8203 53.9518L78.0511 52.4881L85.4603 53.6565L85.2296 55.1201C85.1258 55.7785 84.5079 56.2281 83.8496 56.1243Z" fill="#F7CC7F"/>
<path id="Vector_71" d="M73.9634 107.418L72.5903 107.201C70.9147 106.937 69.7697 105.366 70.0314 103.69L74.5402 74.6302L77.527 76.3006L81.9875 75.8045L77.4801 104.855C77.2179 106.534 75.6425 107.682 73.9634 107.418Z" fill="#F47458"/>
<path id="Vector_72" d="M74.5403 74.6303C74.5403 74.6303 77.6273 76.1089 79.7228 75.3015C81.8182 74.494 83.0654 75.8691 80.8591 77.1643C78.5877 78.4977 74.5403 74.6303 74.5403 74.6303Z" fill="#B75742"/>
<path id="Vector_73" opacity="0.5" d="M71.6504 104.835L70.9774 104.729C70.7568 104.694 70.6061 104.487 70.641 104.267L78.5149 54.3316C78.5497 54.111 78.7567 53.9604 78.9774 53.9951L79.6503 54.1013C79.8709 54.136 80.0215 54.343 79.9867 54.5638L72.1128 104.499C72.078 104.719 71.871 104.87 71.6504 104.835Z" fill="white"/>
<path id="Vector_74" d="M66.0548 106.336C66.0548 106.336 66.6737 104.25 67.7882 103.1C68.8697 101.984 70.4194 99.7433 70.8627 100.614C71.3062 101.484 69.2227 103.201 69.9342 103.369C70.6458 103.538 75.2287 100.237 75.6304 101.025C76.0323 101.813 71.5093 104.651 72.146 104.802C72.7827 104.953 76.8164 102.221 77.2067 103.036C77.7473 104.165 72.3601 106.191 72.6648 106.789C72.9697 107.387 76.353 106.014 76.8102 106.911C77.2673 107.808 72.1093 108.569 72.4838 108.658C72.8584 108.747 75.5925 109.261 75.4774 109.798C75.3474 110.406 68.9192 109.105 67.8101 109.966C66.7011 110.827 53.2288 118.536 50.7242 117.368C48.2193 116.201 40.9001 103.349 40.889 100.473C40.8778 97.5853 42.7829 95.3615 45.2765 95.8979C47.0825 96.2865 53.0745 110.917 53.6388 111.05C54.2031 111.184 66.0548 106.336 66.0548 106.336Z" fill="#FFB27D"/>
</g>
</svg>
