<svg width="180" height="181" viewBox="0 0 180 181" fill="none" xmlns="http://www.w3.org/2000/svg">
<g id="Property 1=Teacher 3">
<path id="Vector" d="M20.9933 180C8.26101 163.143 7.38333 135.633 20.1156 109.03C32.8478 82.4275 -3.8038 48.0954 31.6895 14.3905C52.1347 -5.02504 107.769 -12.0444 149.699 40.868C185.154 85.6124 171.733 159.142 146.794 179.999H20.9933V180Z" fill="#A9E8B7"/>
<path id="Vector_2" d="M178.676 180.465H1.32402C0.592813 180.465 0 179.689 0 178.733C0 177.776 0.592813 177 1.32402 177H178.676C179.407 177 180 177.776 180 178.732C180 179.689 179.407 180.465 178.676 180.465Z" fill="#F0806A"/>
<path id="Vector_3" opacity="0.25" d="M19.7222 39.0673C23.3516 38.4626 27.0398 38.9692 30.6865 38.5895C34.3333 38.2098 37.9231 36.9352 41.2091 34.8532C42.1186 34.2772 43.0175 33.633 44.0042 33.3322C45.3284 32.9279 46.7106 33.169 48.0695 33.2404C50.719 33.3802 53.3877 32.8607 55.8877 31.7163C56.7316 31.3301 57.6739 30.6912 57.8128 29.5446C57.9903 28.0812 56.7606 27.0349 55.6852 26.5325C54.6097 26.0301 53.3193 25.4115 53.0868 23.9609C52.9826 23.3092 53.1225 22.5733 52.8505 22.008C52.6644 21.6218 52.3268 21.4128 52.0047 21.2325C48.4341 19.239 44.553 18.4593 40.6902 18.2514C39.8434 18.2055 20.6037 18.2012 19.7232 18.2514C24.3479 14.8137 22.9961 12.0831 28.1214 9.82512C30.5722 9.99365 57.6469 9.92112 60.1073 9.82512C65.2568 9.62353 70.7929 8.97077 75.19 12.4501C75.761 12.9023 76.3368 13.4783 76.5239 14.3102C76.9879 16.3635 74.9634 17.766 73.3633 18.2897C73.1106 19.7137 74.5612 20.5222 75.6713 20.776C79.2496 21.5973 82.7738 22.8143 86.192 24.411C88.6157 25.5427 91.3076 27.3506 91.7851 30.6315C92.1207 32.9397 91.1639 35.3257 89.7519 36.7987C88.3399 38.2716 86.5431 38.9713 84.7645 39.4183C78.7075 40.9392 72.4451 39.895 66.3042 40.6545C65.4853 40.7558 64.6289 40.9083 63.9624 41.5333C62.9082 42.5221 62.6247 44.3748 61.8868 45.7646C60.4227 48.5239 57.4868 49.0284 54.9068 49.2097C49.1613 49.6161 43.4014 49.6769 37.6511 49.3921C36.2024 49.3207 34.7258 49.23 33.3263 49.7228C31.8555 50.2401 30.565 51.3675 29.2022 52.2528C25.9615 54.3572 22.309 55.0878 18.7259 55.7971C15.0492 56.5246 11.3417 57.2584 7.63037 57.1411C10.5325 50.8171 13.9179 44.9113 17.717 39.5004C18.3825 39.3276 19.0499 39.1761 19.7232 39.0641L19.7222 39.0673Z" fill="#FEFFFE"/>
<path id="Vector_4" opacity="0.25" d="M42.3278 74.1293C42.891 73.1246 43.7533 72.4825 44.6078 71.9193C57.1558 63.6392 72.118 66.5148 86.1542 65.0674C89.7479 64.6973 93.3937 64.0029 96.6305 61.9465C100.41 59.5455 103.706 55.2844 107.907 54.9452C110.861 54.7074 114.773 55.9159 116.042 52.4515C116.354 51.5982 116.337 50.6201 116.431 49.6847C117.719 36.9494 136.352 40.6516 138.169 40.7615C142.621 41.0302 147.072 41.3001 151.524 41.5689C155.927 48.2597 159.714 55.6524 162.773 63.5987C158.587 63.5475 154.402 63.5123 150.217 63.4611C148.152 63.4355 146.049 63.4173 144.075 64.1992C141.383 65.2658 139.13 67.7435 136.447 68.8411C134.385 69.6847 132.181 69.6709 130.019 69.6485C122.197 69.5685 114.375 69.4885 106.554 69.4096C105.078 69.3946 103.558 69.3893 102.182 70.0858C100.832 70.7706 99.7333 72.074 98.5132 73.0904C94.4864 76.4428 89.4103 76.4983 84.7094 77.6694C83.2173 78.0406 81.5748 78.6976 80.8601 80.4351C79.6699 83.3288 81.922 86.6417 84.1944 88.0859C93.3127 93.884 104.539 88.2587 114.243 92.1486C116.838 93.1886 119.245 94.8834 121.774 96.1676C130.067 100.38 139.297 100.01 148.156 98.8022C155.653 97.7803 163.183 96.2007 170.692 96.462C171.255 101.548 171.548 106.746 171.548 112.035C171.548 113.692 171.516 115.341 171.46 116.98C167.271 117.103 163.081 117.225 158.892 117.347C150.98 117.578 143.05 117.808 135.162 116.978C130.743 116.513 126.287 115.697 122.188 113.505C119.716 112.184 117.399 110.375 114.857 109.301C110.388 107.412 105.562 107.915 100.866 107.61C93.6136 107.139 86.5342 104.701 79.5185 102.276C68.7085 98.5408 42.076 92.9486 41.3932 78.7915C41.315 77.166 41.5909 75.4455 42.3297 74.1283L42.3278 74.1293Z" fill="#FEFFFE"/>
<path id="Vector_5" d="M127.255 89.9801L126.727 88.1861L130.183 86.9411L130.712 88.7352C130.952 89.5496 130.548 90.4262 129.812 90.6914L129.024 90.9752C128.288 91.2404 127.495 90.7945 127.255 89.9801Z" fill="#FAE1B4"/>
<path id="Vector_6" d="M121.796 71.4456L126.727 88.1867L130.183 86.9417L125.253 70.2007L121.796 71.4456Z" fill="#B75742"/>
<path id="Vector_7" d="M121.714 66.6758L121.798 71.4446C122.564 72.2531 123.295 72.4974 123.526 70.8217C124.588 71.2879 125.57 72.1753 125.255 70.1988L122.783 66.2897L121.715 66.6737L121.714 66.6758Z" fill="#FAE1B4"/>
<path id="Vector_8" d="M126.789 88.4804L126.67 88.0757C126.653 88.0179 126.682 87.9561 126.734 87.9373L130.059 86.7396C130.111 86.7207 130.167 86.7522 130.184 86.81L130.304 87.2147C130.321 87.2725 130.292 87.3343 130.24 87.3531L126.915 88.5508C126.862 88.5697 126.806 88.5382 126.789 88.4804Z" fill="#A1A1A1"/>
<path id="Vector_9" d="M121.714 66.6758C122.055 66.9478 122.411 66.8198 122.782 66.2918C122.782 66.2918 121.85 64.7474 121.796 64.7581C121.706 64.7751 121.714 66.6769 121.714 66.6769V66.6758Z" fill="#F47458"/>
<path id="Vector_10" d="M137.343 29.2399C137.977 29.1524 138.608 29.0351 139.227 28.8612C139.928 28.665 140.828 28.4527 141.368 28.4815C142.502 28.5423 144.367 29.0937 145.179 30.5806C146.191 32.4322 148.735 31.676 146.764 39.7353C144.532 48.857 140.073 46.7942 139.989 46.6128C139.905 46.4304 136.937 39.7663 136.937 39.7663C136.937 39.7663 134.898 42.8573 134.921 42.7325C134.943 42.612 129.721 30.2873 137.343 29.2399Z" fill="#13375B"/>
<path id="Vector_11" d="M102.268 44.6417C102.526 44.0178 104.91 45.8193 105.429 45.462C105.948 45.1046 106.643 44.6641 106.891 44.2396C107.139 43.8162 107.701 44.0274 108.15 43.7031C108.599 43.3789 110.091 45.9345 110.876 46.2555C111.661 46.5776 112.089 43.1325 112.826 43.2594C113.563 43.3863 110.902 49.6665 111.062 50.1572C111.221 50.6457 114.151 61.5699 115.889 64.6535C116.905 64.0978 122.822 61.7086 123.767 61.1635C124.177 63.5453 125.481 65.3521 126.011 67.688C122.731 69.3391 113.717 72.4099 112.754 72.0334C109.822 70.8878 108.196 55.2481 107.692 52.332C107.188 49.4137 105.934 48.8591 105.206 47.3339C104.477 45.8086 102.011 45.2657 102.269 44.6417H102.268Z" fill="#F7A491"/>
<path id="Vector_12" d="M121.033 71.4649C121.033 71.4649 133.742 67.3765 136.9 64.4274C140.058 61.4782 140.664 54.67 137.659 52.3629C134.654 50.0569 118.709 62.0094 118.709 62.0094L121.033 71.4649Z" fill="#EAB054"/>
<path id="Vector_13" d="M125.383 169.489C125.383 169.489 125.636 174.515 125.637 174.526C125.729 175.164 126.095 176.742 126.095 177.322C126.095 179.502 117.485 175.471 119.415 174.506C119.589 174.418 120.505 173.757 120.562 173.015C120.65 171.871 120.875 169.559 120.875 169.559L125.382 169.489H125.383Z" fill="#F7A491"/>
<path id="Vector_14" d="M119.437 174.485C119.437 174.485 121.458 175.151 122.493 175.318C123.529 175.484 124.894 174.08 125.626 174.46C126.432 174.877 126.35 178.987 126.35 178.987C126.35 178.987 114.001 179.51 112.599 178.827C111.435 178.26 115.303 176.038 119.436 174.485H119.437Z" fill="#F47458"/>
<path id="Vector_15" d="M144.353 169.814C144.353 169.814 144.605 174.841 144.606 174.852C144.699 175.489 145.065 177.067 145.065 177.647C145.065 179.827 136.455 175.797 138.384 174.831C138.559 174.744 139.745 173.589 139.803 172.847C139.892 171.704 139.845 169.885 139.845 169.885L144.353 169.815V169.814Z" fill="#F7A491"/>
<path id="Vector_16" d="M138.406 174.81C138.406 174.81 140.428 175.477 141.463 175.643C142.498 175.809 143.863 174.406 144.596 174.785C145.402 175.202 145.434 178.381 145.434 178.959C145.434 179.537 134.698 179.643 131.186 179.017C129.932 178.793 134.275 176.363 138.406 174.81Z" fill="#F47458"/>
<path id="Vector_17" d="M130.708 97.2427L127.068 99.0111L119.411 140.202L119.721 171.08L125.859 171.241C125.859 171.241 128.714 144.23 128.714 142.136C128.714 140.043 141.938 105.505 141.938 105.505L130.708 97.2427Z" fill="#355389"/>
<path id="Vector_18" d="M133.518 99.5093C133.518 99.5093 136.2 131.245 136.2 136.594C136.2 141.943 138.374 171.884 138.374 171.884L144.526 171.844C144.526 171.844 144.97 162.718 145.629 149.291C145.733 147.189 145.496 142.946 145.629 140.769C146.586 125.112 148.479 110.374 147.576 104.531C147.43 103.59 147.157 101.132 146.624 100.511C142.594 95.8156 133.517 99.5083 133.517 99.5083L133.518 99.5093Z" fill="#466EB6"/>
<path id="Vector_19" d="M143.651 52.0483C143.651 52.0483 147.897 52.7128 149.014 53.6375C150.273 54.6786 151.669 57.008 151.669 57.008C151.669 57.008 146.457 84.7634 146.447 89.4341C146.44 93.0478 147.576 101.92 147.576 101.92C147.576 101.92 131.824 103.04 125.858 100.387C125.858 100.387 127.743 89.8351 127.743 87.0641C127.743 84.293 129.996 59.0986 130.509 57.3387C130.975 55.742 131.825 52.8739 134.704 52.1656C137.582 51.4585 143.652 52.0472 143.652 52.0472L143.651 52.0483Z" fill="#F7CC7F"/>
<path id="Vector_20" d="M142.493 44.5767L143.543 52.3278C143.543 52.3278 139.706 61.5561 137.414 60.7561C135.492 60.0842 136.674 51.9193 136.674 51.9193C136.703 51.7155 137.76 47.2646 137.408 45.3393C137.01 43.1624 142.492 44.5778 142.492 44.5778L142.493 44.5767Z" fill="#F7A491"/>
<path id="Vector_21" d="M137.408 45.3383C137.094 43.1443 142.492 44.5767 142.492 44.5767L142.579 45.2199L142.74 46.406C142.74 46.406 140.909 51.2068 136.958 50.538C137.121 49.3551 137.536 46.2385 137.408 45.3393V45.3383Z" fill="#F47458"/>
<path id="Vector_22" d="M123.808 82.2921C123.935 82.1886 123.922 82.1097 123.922 82.1097C123.762 81.8718 123.822 81.01 124.087 80.8298C124.35 80.6495 124.864 80.5951 125.858 80.4053C126.71 80.2421 127.955 80.0341 128.445 79.7664C129.613 79.8101 130.677 80.8255 131.502 81.1551C131.696 81.2329 135.343 81.0697 136.288 81.0292C137.315 80.9855 138.108 80.8831 138.108 80.8831C138.108 80.8831 144.138 79.9007 150.423 79.3888L149.302 73.6664L155.228 72.908C155.628 76.1537 156.684 81.1913 156.731 82.7241C156.824 85.7383 147.528 85.4311 139.3 85.0098C138.395 84.9639 137.541 84.9149 136.763 84.8669C135.702 84.8466 133.925 84.9714 133.107 85.0237C132.592 85.1047 131.887 85.2231 131.799 85.2743C131.658 85.3565 130.718 85.5506 130.637 85.557C130.557 85.5634 130.23 85.766 130.09 85.8482C129.949 85.9303 128.064 85.9986 127.758 86.021C127.453 86.0434 126.779 85.8439 126.779 85.8439L125.518 85.83C124.592 85.8194 124.902 84.7816 124.902 84.7816C124.465 84.7741 124.248 84.5885 124.183 84.3122C124.118 84.036 124.208 83.7213 124.193 83.6691C124.177 83.6168 124.042 83.5859 124.042 83.5859C123.765 83.5934 123.573 83.2328 123.547 83.0067C123.521 82.7806 123.679 82.3945 123.806 82.291L123.808 82.2921Z" fill="#F7A491"/>
<path id="Vector_23" d="M148.233 53.2013C148.233 53.2013 150.718 53.8466 153.287 57.0966C155.622 60.0522 157.094 76.607 157.094 76.607L149.029 78.0758L148.386 70.0676L146.231 66.4049L148.233 53.2013Z" fill="#F7CC7F"/>
<path id="Vector_24" d="M140.649 32.572C138.28 31.5822 135.681 33.2642 135.242 35.9894C135.051 37.1744 134.867 38.6655 134.795 40.3006C134.625 44.2322 136.357 48.12 137.967 48.1712C139.577 48.2224 144.096 45.8171 144.408 40.2377C144.601 36.7925 143.134 33.6108 140.649 32.572Z" fill="#F7A491"/>
<path id="Vector_25" d="M143.21 40.6409C143.187 41.5091 143.687 42.2291 144.326 42.2493C144.966 42.2696 145.504 41.5827 145.527 40.7145C145.55 39.8462 145.051 39.1263 144.411 39.106C143.772 39.0857 143.235 39.7726 143.21 40.6409Z" fill="#F7A491"/>
<path id="Vector_26" d="M144.412 39.1071C144.412 39.1071 142.436 39.1999 141.985 37.7045C141.534 36.2101 139.572 32.7607 136.18 33.2418C132.787 33.7228 139.507 30.9624 139.761 31.02C140.014 31.0776 143.063 31.741 143.063 31.741C143.063 31.741 145.016 34.4054 145.057 34.6593C145.098 34.9131 145.303 37.6223 145.303 37.6223L144.411 39.1071H144.412Z" fill="#13375B"/>
<path id="Vector_27" d="M136.556 43.6679L139.406 43.9751C139.406 43.9751 139.236 45.1654 137.979 45.0705C136.446 44.9553 136.556 43.669 136.556 43.669V43.6679Z" fill="white"/>
<path id="Vector_28" d="M113.606 66.4465C113.606 66.4465 113.697 67.8544 113.299 68.3738C111.587 69.3668 103.526 71.8126 100.724 73.7197C99.5702 74.0855 94.1585 74.638 92.3472 70.2735C94.0398 69.8863 95.8762 69.5247 96.9005 69.2111C98.1862 68.8175 107.059 64.6759 108.538 64.4818C111.53 64.0882 113.607 66.4465 113.607 66.4465H113.606Z" fill="#C8D2DE"/>
<path id="Vector_29" d="M94.1575 47.6901C94.1575 47.6901 103.37 43.7874 112.27 39.7257C116.701 54.3628 116.831 66.4603 113.298 68.3738C111.023 69.6068 108.92 67.3968 110.209 65.1335C101.111 68.3194 96.8985 69.2111 96.8985 69.2111C96.8985 69.2111 98.7224 58.9205 94.1565 47.6901H94.1575Z" fill="white"/>
<path id="Vector_30" d="M103.686 47.8138C103.521 47.3797 103.705 46.8794 104.098 46.696L109.978 43.9569C110.371 43.7745 110.823 43.9782 110.989 44.4124C111.154 44.8465 110.97 45.3467 110.577 45.5302L104.696 48.2692C104.304 48.4516 103.852 48.2479 103.686 47.8138Z" fill="#DFE5ED"/>
<path id="Vector_31" d="M105.282 54.7105C105.117 54.2764 105.301 53.7761 105.694 53.5927L111.574 50.8536C111.967 50.6712 112.419 50.875 112.585 51.3091C112.75 51.7432 112.566 52.2434 112.173 52.4269L106.293 55.1659C105.9 55.3483 105.448 55.1446 105.282 54.7105Z" fill="#DFE5ED"/>
<path id="Vector_32" d="M105.861 57.1382C105.697 56.7041 105.881 56.2038 106.273 56.0204L112.154 53.2813C112.546 53.0989 112.999 53.3026 113.165 53.7368C113.33 54.1709 113.145 54.6711 112.753 54.8546L106.872 57.5936C106.48 57.776 106.027 57.5723 105.861 57.1382Z" fill="#DFE5ED"/>
<path id="Vector_33" d="M100.233 51.9459C98.8883 51.7582 97.9325 50.3961 98.1023 48.9093C98.272 47.4224 99.5037 46.3654 100.848 46.5531C102.193 46.7408 103.149 48.1029 102.979 49.5898C102.809 51.0766 101.577 52.1336 100.233 51.947V51.9459ZM100.816 46.824C99.6069 46.6555 98.4987 47.6069 98.3463 48.9445C98.1939 50.282 99.0542 51.5075 100.264 51.6761C101.473 51.8446 102.581 50.8932 102.734 49.5556C102.886 48.2181 102.026 46.9926 100.816 46.824Z" fill="#466EB6"/>
<path id="Vector_34" d="M101.591 59.425C100.246 59.2373 99.2905 57.8752 99.4602 56.3884C99.63 54.9015 100.862 53.8445 102.206 54.0311C103.551 54.2189 104.506 55.5809 104.338 57.0678C104.168 58.5546 102.936 59.6117 101.592 59.4239L101.591 59.425ZM102.174 54.3031C100.965 54.1346 99.8566 55.086 99.7042 56.4236C99.5518 57.7611 100.412 58.9866 101.622 59.1551C102.831 59.3237 103.939 58.3722 104.092 57.0347C104.244 55.6972 103.384 54.4717 102.174 54.3031Z" fill="#466EB6"/>
<path id="Vector_35" d="M101.232 46.8602C100.046 49.6324 99.2268 52.6359 99.2268 52.6359C100.433 50.6339 101.166 48.0623 101.461 46.8912L101.232 46.8592V46.8602Z" fill="#F47458"/>
<path id="Vector_36" d="M97.9131 48.2128C100.844 48.9018 103.767 50.8868 103.767 50.8868C99.7832 49.3668 97.6797 48.2693 97.6797 48.2693L97.9131 48.2117V48.2128Z" fill="#F47458"/>
<path id="Vector_37" d="M58.5573 47.6432C58.6991 43.8631 58.1956 40.1289 56.6659 36.6102C55.3504 33.582 52.0942 31.8637 49.1246 31.8595C39.6957 31.8456 38.4968 45.623 32.4948 50.9369C30.6613 52.5603 28.6108 53.8829 26.8757 55.6342C20.4676 62.1 23.3543 74.0695 29.2377 79.7386C33.3214 83.6722 39.7381 85.9079 44.7709 82.8328C47.3981 81.2276 49.3917 78.5589 50.8124 75.6353C52.8292 71.4862 54.1283 66.6982 55.5625 62.276C57.0893 57.5691 58.3682 52.6691 58.5563 47.6442L58.5573 47.6432Z" fill="#F7CC7F"/>
<path id="Vector_38" d="M53.9912 59.5359C53.9912 59.5359 52.5493 61.7897 53.1492 65.1591C53.7501 68.5285 62.8781 78.9418 64.0219 79.6117C65.2671 80.3412 66.031 80.0543 66.5894 79.7034C71.4003 76.6753 78.1971 60.5492 78.985 59.3994L79.6776 58.3914L79.0082 55.6801L65.7117 71.8467C65.7117 71.8467 54.8458 58.4138 53.9912 59.5359Z" fill="#F7A491"/>
<path id="Vector_39" d="M52.3871 56.7553C52.3871 56.7553 53.4191 57.215 53.7326 57.4315C55.8506 58.8981 62.793 67.2593 62.793 67.2593C62.793 67.2593 59.1395 71.6004 57.5221 73.4574L48.2832 65.7714L52.3871 56.7553Z" fill="#C8D2DE"/>
<path id="Vector_40" d="M42.3421 93.579C36.4192 101.735 36.4414 107.271 36.4973 117.744C36.5542 128.216 37.8968 131.508 32.6934 142.13C42.101 148.264 55.5373 146.768 55.5373 146.768C59.0105 111.161 60.1187 102.816 57.5801 94.8226C49.2701 94.8536 42.3412 93.579 42.3412 93.579H42.3421Z" fill="#F47458"/>
<path id="Vector_41" d="M45.8353 55.3154C45.8353 55.3154 40.4091 54.9336 38.2621 57.5158C36.1152 60.0981 43.0238 80.5258 43.4144 83.8121C43.805 87.0983 40.4583 94.0782 40.4583 94.0782C40.4583 94.0782 50.2594 98.6668 58.3698 96.0994C58.3698 96.0994 58.2049 72.3737 57.8143 70.0261C57.4236 67.6785 54.1714 58.1313 53.3911 57.1916C52.6099 56.253 45.8353 55.3133 45.8353 55.3133V55.3154Z" fill="white"/>
<path id="Vector_42" d="M47.642 47.3126C47.642 47.3126 47.614 47.4886 47.5638 47.7894C47.3217 49.2293 46.3901 54.0056 45.7612 55.3186C45.0002 56.9057 48.3653 61.9667 51.6031 61.3492C52.5676 61.1657 50.7881 56.6988 50.874 56.2262C51.0379 55.3207 51.2598 54.0856 51.4864 52.8184C51.6147 52.1038 51.7439 51.3796 51.8664 50.698C52.2127 48.7632 52.4953 47.1803 52.4953 47.1803L47.6429 47.3136L47.642 47.3126Z" fill="#F7A491"/>
<path id="Vector_43" d="M47.5638 47.7893C47.614 47.4896 47.642 47.3125 47.642 47.3125L52.4943 47.1792C52.4943 47.1792 52.2117 48.7621 51.8655 50.6969C51.7439 51.3742 51.6157 52.0942 51.4883 52.8056C50.7389 52.684 49.9567 52.2819 49.1716 51.5235C48.3161 50.6969 47.7548 49.7039 47.4163 48.6426C47.4761 48.3045 47.5262 48.0122 47.5638 47.7893Z" fill="#F47458"/>
<path id="Vector_44" d="M50.9086 35.1393C50.9086 35.1393 48.6218 34.8481 47.1876 36.8939C45.7544 38.9407 44.2083 45.2689 47.7702 48.7098C51.332 52.1507 54.8505 48.2554 55.3723 44.1266C55.8941 39.9967 56.0966 34.99 50.9086 35.1393Z" fill="#F7A491"/>
<path id="Vector_45" d="M51.1642 34.4631C51.1642 34.4631 48.1077 40.5023 45.9212 40.7807C43.7357 41.059 43.4492 44.2354 43.4492 44.2354C43.4492 44.2354 44.2305 36.8673 46.3948 35.4455C48.5591 34.0247 51.1642 34.4631 51.1642 34.4631Z" fill="#F7CC7F"/>
<path id="Vector_46" d="M46.4963 42.2717C46.6737 43.3405 46.3217 44.3676 45.7034 44.5084C45.0842 44.6481 44.4332 43.8492 44.2557 42.7805C44.0783 41.7117 44.4351 40.7315 45.0543 40.5918C45.6735 40.451 46.3188 41.204 46.4972 42.2728L46.4963 42.2717Z" fill="#F7A491"/>
<path id="Vector_47" d="M61.3987 93.1768L47.0383 93.579L46.2986 71.5502L61.5009 71.6025L61.3987 93.1768Z" fill="#466EB6"/>
<path id="Vector_48" d="M61.438 80.9726C61.4023 80.8862 60.3095 81.4835 59.4492 81.2745C59.2775 81.2329 59.9112 80.6548 59.9961 80.4841C60.0077 80.4617 61.2808 79.5711 61.1747 78.9642C61.0686 78.3573 59.9739 78.7477 59.9739 78.7477C59.9739 78.7477 56.8789 80.3262 56.4419 80.8126C56.005 81.299 55.8208 81.6648 55.7928 81.7096C55.6028 81.7747 55.4379 81.8227 55.3154 81.8408C52.4682 82.2451 47.8194 81.5272 40.7342 80.2964L40.7256 76.1857C39.2258 76.2838 36.6062 75.9947 35.3987 75.8454C35.4623 78.9802 35.4266 84.4167 36.0323 85.4534C36.4577 86.1809 40.197 86.6704 44.3578 87.0224C49.6587 87.4715 51.0495 87.1366 55.6539 86.7814C57.0486 86.6672 58.9641 87.1387 59.6923 87.143C60.7735 87.1504 61.1535 87.2837 61.7003 86.6555C62.1614 86.1254 62.1074 84.8209 62.0302 84.0125C61.8855 82.4819 61.8402 81.8963 61.437 80.9715L61.438 80.9726Z" fill="#F7A491"/>
<path id="Vector_49" d="M40.9116 55.8806C40.9116 55.8806 37.8494 56.5013 36.3621 59.5167C35.3813 61.5059 34.3357 70.7118 34.6579 77.5562C36.7306 77.0699 40.2095 76.9813 42.342 76.9717C42.261 70.8387 41.9543 55.6747 40.9116 55.8806Z" fill="#E4E8ED"/>
<path id="Vector_50" d="M68.8127 68.6895C68.8127 68.6895 76.1168 58.6911 77.5501 57.12C78.9842 55.5489 84.8271 50.9635 84.9969 51.4478C85.1657 51.9309 81.8247 55.5414 81.871 55.6747C81.9182 55.8091 82.4564 56.8437 82.6484 57.3952C82.8413 57.9466 82.8914 59.2703 82.7274 59.6799C82.5635 60.0894 81.3771 60.787 80.7088 61.0729C80.0404 61.3587 79.0807 61.2062 78.2811 61.9955C77.4816 62.7858 71.1159 73.2226 71.1159 73.2226L68.8118 68.6885L68.8127 68.6895Z" fill="#F7A491"/>
<path id="Vector_51" d="M30.1788 164.659C30.1788 164.659 29.5558 169.465 28.4842 171.016C28.1245 171.536 27.4677 172.195 27.0356 173.135C26.3643 174.6 26.7356 176.78 27.2304 177.981C27.2728 178.085 27.5824 178.352 27.7927 178.434C29.5066 179.022 31.3295 178.392 32.0596 176.566C32.4676 175.546 32.8254 174.185 32.8968 172.471C33.08 168.107 34.3001 165.889 34.3001 165.889L30.1788 164.66V164.659Z" fill="#F7A491"/>
<path id="Vector_52" d="M48.9295 166.856C48.9295 166.856 49.3143 172.276 49.0018 174.037C48.835 174.98 47.9033 176.921 48.3305 177.808C48.7578 178.696 49.4908 178.328 49.4908 178.328L59.4251 178.564C60.0279 178.575 60.5188 178.696 60.0327 178.298C59.237 177.647 58.5946 177.217 56.0532 175.849C55.8873 175.76 55.2836 175.333 55.0665 175.185C54.5149 174.811 53.9603 174.221 53.4828 173.63C52.6881 172.646 52.6187 167.874 52.6187 167.874L48.9295 166.856Z" fill="#F7A491"/>
<path id="Vector_53" d="M57.5811 94.8226C57.5811 94.8226 58.9748 103.621 58.0595 109.39C57.1442 115.159 52.8512 171.302 52.8512 171.302L49.0714 169.477C49.0714 169.477 46.8473 146.599 47.0305 143.492C47.2138 140.386 48.6624 135.189 48.6624 135.189L48.1763 117.155L54.3356 93.4648L57.5801 94.8226H57.5811Z" fill="#F7A491"/>
<path id="Vector_54" d="M43.2343 92.972C43.2343 92.972 39.3908 99.4058 38.4755 104.73C37.5602 110.055 39.1468 126.419 37.3866 133.397C36.4337 137.173 32.8217 143.007 32.2729 147.888C31.7241 152.768 29.7334 167.254 29.7334 167.254L33.3194 168.932L45.7873 134.699L54.6819 105.839L56.96 90.9742L43.2334 92.9709L43.2343 92.972Z" fill="#F7A491"/>
<path id="Vector_55" d="M32.3927 175.604C29.7336 176.144 27.9647 174.414 27.0436 173.119C26.3675 174.586 26.0376 176.776 26.5353 177.981C26.9732 179.042 28.2521 179.012 29.26 179.054C30.3248 179.098 31.1494 178.44 31.678 177.408C31.9249 176.926 32.1795 176.327 32.3927 175.606V175.604Z" fill="#F47458"/>
<path id="Vector_56" d="M55.0647 175.185C52.1375 176.02 49.9742 175.453 48.7637 174.91C48.4512 175.894 48.0375 177.129 48.2574 177.84C48.5265 178.712 48.9084 178.909 49.2469 178.918C51.9205 178.996 59.0404 179.103 61.0793 179.133C61.3638 179.137 61.521 178.767 61.3378 178.524C60.8324 177.852 55.2827 175.334 55.0647 175.186V175.185Z" fill="#F47458"/>
<path id="Vector_57" d="M103.238 44.7921C103.626 46.7898 104.003 45.7339 104.2 44.2406C104.229 45.1537 104.438 45.2315 104.639 45.1249C104.882 44.9947 105.252 42.9767 105.066 42.5874C104.893 42.2269 103.754 42.8295 103.45 43.0908C103.253 43.1932 103.03 43.318 102.777 43.4151C102.065 43.6881 101.927 43.7532 101.673 43.9249C101.28 44.1905 101.438 44.6492 101.527 45.3403C101.735 46.2629 102.277 46.248 102.287 44.8507C102.314 44.9851 102.516 46.2149 102.812 46.2373C103.094 46.2587 103.147 45.7808 103.239 44.7921H103.238Z" fill="#F8A492"/>
</g>
</svg>
