<svg width="160" height="160" viewBox="0 0 160 160" fill="none" xmlns="http://www.w3.org/2000/svg">
<g id="Property 1=Images, Property 2=Teacher" clip-path="url(#clip0_2978_365)">
<path id="Vector" d="M132.613 137.494C129.533 140.937 126.619 143.157 124.316 144.911C97.2493 165.53 65.2224 159.52 58.4159 158.052C48.3646 155.884 28.9357 151.695 14.8888 134.157C-6.36317 107.624 -3.05388 65.8209 13.4302 38.2265C16.4454 33.1789 32.3728 5.16428 64.7447 0.671303C84.3361 -2.04757 107.173 3.43635 123.711 18.1469C158.425 49.0252 155.955 111.405 132.613 137.494Z" fill="#A9E8B7"/>
<path id="Intersect" fill-rule="evenodd" clip-rule="evenodd" d="M125.274 28.2584C126.089 28.9584 126.883 29.675 127.656 30.4074C136.853 59.9553 57.8266 48.6729 33.7094 24.9933C34.4891 24.3824 35.2937 23.7778 36.1233 23.1824C47.2322 27.9422 70.2009 34.7854 97 35.5C117.275 36.0407 124.076 32.1966 125.274 28.2584Z" fill="#D4F3DB"/>
<path id="Vector_2" d="M154.411 160H1.14422C0.512308 160 0 159.403 0 158.667C0 157.93 0.512308 157.333 1.14422 157.333H154.411C155.043 157.333 155.556 157.93 155.556 158.667C155.556 159.403 155.043 160 154.411 160Z" fill="#F0806A"/>
<path id="Vector_3" d="M112.087 153.571H95.3139V135.631C95.3139 133.835 93.4674 132.639 91.8006 133.337C89.9789 134.1 87.5042 134.826 84.5075 134.963C77.7936 135.268 72.6824 129.776 73.7011 122.15C74.7198 114.523 81.2557 112.693 84.4428 113.608C86.1064 114.086 88.9958 115.918 91.3778 117.56C93.0409 118.707 95.3139 117.524 95.3139 115.515V95H114.468C115.835 95 116.743 96.3932 116.193 97.6348C114.46 101.553 112.203 108.689 117.505 110.863C124.942 113.913 133.428 111.473 134.043 105.982C134.379 102.975 132.991 99.9668 131.667 97.8618C130.883 96.6153 131.771 95 133.252 95H151.715C151.715 95 152.156 132.158 152.143 134.391L152.046 150.354C152.035 152.134 150.578 153.571 148.785 153.571H135.681C133.538 153.571 114.127 153.571 112.087 153.571Z" fill="url(#paint0_linear_2978_365)"/>
<path id="Vector_4" d="M59.3451 153.571H45.407C43.2096 153.571 41.4286 151.791 41.4286 149.595V136.42C41.4286 134.477 41.4671 116.438 41.4671 114.462V94.556H59.8556C61.3709 94.556 62.2604 92.8337 61.364 91.6119C57.0601 85.7449 60.8156 77.3943 64.0291 75.9812C67.8376 74.3064 75.6062 73.8496 77.8913 82.376C79.0812 86.8166 77.9897 90.0599 76.6699 92.1482C75.8837 93.3919 76.7539 95.0134 78.2259 95.0134H95.7143V115.491C95.7143 117.497 93.4613 118.677 91.8129 117.532C89.4519 115.893 86.5879 114.065 84.9389 113.588C81.7805 112.674 75.3021 114.501 74.2919 122.114C73.2822 129.726 78.3483 135.208 85.0031 134.903C87.9739 134.767 90.4268 134.042 92.2319 133.281C93.8841 132.584 95.7143 133.777 95.7143 135.57V153.477H79.4163C77.3258 153.477 61.5286 153.571 59.3451 153.571Z" fill="#B8A8E9"/>
<path id="Vector_5" d="M28.7693 46.164C28.7693 46.164 26.2889 47.3696 25.8332 48.7549C25.4674 49.8661 22.7248 50.0098 22.454 52.1956C22.3144 53.324 21.4786 54.2281 20.3537 54.4003C17.5528 54.8295 13.2365 56.2834 12.5456 61.1443C12.0184 64.8545 13.9109 66.2616 15.8967 66.7485C17.3553 67.1062 18.3244 68.5241 18.0296 69.9964C17.7468 71.408 18.1687 73.0405 20.6154 74.3309C26.0988 77.2228 31.5748 67.4792 31.5748 67.4792L32.6968 50.4658L28.7687 46.164H28.7693Z" fill="url(#paint1_linear_2978_365)"/>
<path id="Vector_6" d="M6.23103 152.844L5.87611 155.76C5.80856 156.313 5.37293 156.75 4.81938 156.814C3.884 156.921 2.38363 157.03 0.915306 156.875C0.270733 156.807 -0.147724 156.155 0.0486245 155.537C0.406402 154.412 1.06128 152.722 2.00524 151.728H5.24127C5.83947 151.728 6.30315 152.251 6.23103 152.845V152.844Z" fill="url(#paint2_linear_2978_365)"/>
<path id="Vector_7" d="M31.5755 118.688L32.1216 121.899C32.1216 121.899 30.2927 140.417 29.9675 147.825C29.9166 148.986 30.2171 150.133 30.8268 151.123L34.0073 156.286L25.9243 151.518L25.7635 150.532L27.0864 148.714L25.353 127.968C25.2511 126.75 25.503 125.527 26.0778 124.448L27.7493 121.309L31.5749 118.687L31.5755 118.688Z" fill="url(#paint3_linear_2978_365)"/>
<path id="Vector_8" d="M34.5391 157.034H31.9596C31.4771 157.034 31.0214 156.812 30.7272 156.429C29.9229 155.385 28.2571 153.348 27.4602 153.294C26.388 153.223 26.5249 157.034 26.5249 157.034H25.9238L25.1624 152.298C24.9707 151.107 25.5637 149.926 26.6342 149.368C26.6342 149.368 26.8792 151.18 28.2084 151.982C29.5376 152.783 33.6174 155.654 33.6174 155.654C33.6174 155.654 34.1172 155.583 34.6656 155.682C35.4796 155.829 35.3657 157.034 34.5385 157.034H34.5391Z" fill="url(#paint4_linear_2978_365)"/>
<path id="Vector_9" d="M20.5044 120.213C20.5044 120.213 9.78942 140.529 8.0864 145.168C6.38338 149.806 5.78632 153.676 5.76342 154.042C5.72793 154.615 5.01524 155.164 3.05118 155.164C2.03795 155.164 1.54107 154.757 1.29835 154.364C1.09113 154.029 1.08025 153.61 1.25485 153.256C1.8748 152.002 3.84172 147.995 4.56987 146.178C5.43942 144.008 7.31017 134.175 8.33656 130.756C9.36238 127.337 10.5222 123.628 14.9907 120.212C14.9907 120.212 18.0578 117.209 20.5039 120.212L20.5044 120.213Z" fill="url(#paint5_linear_2978_365)"/>
<path id="Vector_10" d="M27.2736 86.9234C30.0373 75.2166 23.0358 68.5951 23.0358 68.5951C27.4539 64.3561 35.5036 62.4272 35.5036 62.4272C35.5036 62.4272 43.1847 68.0406 42.2733 72.434C41.7393 75.0089 36.874 87.8584 36.874 87.8584C36.874 87.8584 32.3752 89.9864 27.2736 86.9234Z" fill="url(#paint6_linear_2978_365)"/>
<path id="Vector_11" d="M21.1455 92.7193C22.2704 89.3319 27.2735 86.9234 27.2735 86.9234C32.3752 89.9865 36.874 87.8584 36.874 87.8584C36.874 87.8584 37.8826 91.7128 37.1866 95.2954C36.4905 98.8774 32.1216 121.9 32.1216 121.9C25.2379 123.294 14.6511 120.497 14.6511 120.497C19.0355 112.716 20.0207 96.1074 21.1455 92.7199V92.7193Z" fill="url(#paint7_linear_2978_365)"/>
<path id="Vector_12" d="M30.4816 54.6904L28.2341 64.7802C28.0189 65.6688 28.8295 65.5235 29.7282 65.3541C31.2005 65.0766 33.0976 64.5055 33.7319 63.3605C33.7966 63.2438 33.8286 63.1122 33.847 62.9806L34.8121 55.9842C34.8888 55.4291 34.5883 54.8901 34.0759 54.6635L32.2132 53.8378C31.4959 53.5197 30.6659 53.9288 30.481 54.6916L30.4816 54.6904Z" fill="url(#paint8_linear_2978_365)"/>
<path id="Vector_13" d="M21.793 71.7113C21.793 71.7113 42.3478 96.7997 57.7048 68.2334C57.7048 68.2334 57.9996 67.5033 57.8152 66.4493C57.7219 65.9171 58.0746 64.0288 58.268 63.0641C58.3304 62.754 58.11 62.461 57.7946 62.4307C57.5479 62.4072 57.3058 62.5102 57.1529 62.7053L54.3479 66.2759C54.139 66.9832 54.4756 67.7368 55.1419 68.0526C55.5672 68.254 55.7012 68.7936 55.4156 69.1678C43.7365 84.471 24.2024 67.6784 23.8452 67.8758C22.5767 68.5756 21.1118 69.3492 21.793 71.7113Z" fill="url(#paint9_linear_2978_365)"/>
<path id="Vector_14" d="M33.1182 45.0842C33.1182 45.0842 35.7795 46.2074 37.589 50.0515C39.3985 53.8956 38.0475 55.6706 36.3496 55.9144C34.6523 56.1581 32.1136 56.1209 29.4288 53.6376C26.744 51.1542 29.6583 43.7527 33.1182 45.0842Z" fill="url(#paint10_linear_2978_365)"/>
<path id="Vector_15" d="M31.2337 51.5851C31.2337 51.5851 29.2255 45.9608 34.2144 45.8945L35.3885 46.7144C35.3885 46.7144 37.2186 43.5965 34.2144 42.1076C31.2102 40.6193 27.6942 41.8484 26.416 45.8945C25.1377 49.94 24.919 52.6482 27.0462 54.584C29.1729 56.5198 30.0498 54.3248 30.0498 54.3248C30.0498 54.3248 28.8918 52.5143 29.3629 51.5456C29.8346 50.5768 30.9217 51.7458 30.9217 51.7458L31.2337 51.5851Z" fill="url(#paint11_linear_2978_365)"/>
<path id="Vector_16" d="M30.6744 52.2116C30.6744 52.2116 29.6594 49.3145 28.305 50.4681C26.9506 51.6217 29.4058 53.1443 30.367 53.6376L30.675 52.2116H30.6744Z" fill="url(#paint12_linear_2978_365)"/>
<path id="Vector_17" d="M62.2723 46.8134C62.2723 46.8134 48.2411 61.736 34.8247 62.5537C34.8247 62.5537 35.9467 70.1251 37.7127 71.3079C37.7127 71.3079 55.9714 61.2245 62.4549 49.354L62.2723 46.814V46.8134Z" fill="url(#paint13_linear_2978_365)"/>
<path id="Vector_18" d="M79.4173 73.14C80.608 71.2631 81.5927 68.3485 80.5195 64.3573C78.4578 56.6944 71.449 57.1048 68.0131 58.6104C65.1143 59.8804 61.726 67.3851 65.609 72.6581C66.4177 73.7561 65.6154 75.3039 64.2481 75.3039H47.6586L47.1429 21.9155C47.1327 20.8539 47.9994 19.9905 49.0656 20.0001L94.7114 20.4142C95.8641 20.4248 96.7924 21.3577 96.7924 22.5054V37.2231C96.7924 39.0819 98.947 40.1339 100.412 38.9825C101.663 37.9994 103.235 37.221 105.119 37.1275C110.616 36.8539 115.839 40.9589 116.389 46.4322C116.938 51.9055 111.716 57.653 106.494 56.8317C104.017 56.4422 101.665 55.4554 99.8753 54.5252C98.3819 53.7489 96.5987 54.8276 96.5987 56.5048V75.7143H80.8211C79.4929 75.7143 78.7084 74.2578 79.4173 73.1395V73.14Z" fill="url(#paint14_linear_2978_365)"/>
<path id="Vector_19" d="M133.231 152.956C133.231 152.956 133.67 155.31 133.897 157.641C133.985 158.553 133.289 159.351 132.374 159.398C129.267 159.557 122.618 159.872 120.231 159.788C119.872 159.776 119.634 159.411 119.763 159.076C119.872 158.796 120.084 158.567 120.356 158.439L131.294 153.287L133.231 152.956V152.956Z" fill="url(#paint15_linear_2978_365)"/>
<path id="Vector_20" d="M133.559 151.568L133.251 154.391C133.251 154.391 131.335 155.305 130.011 154.309L130.778 151.159L133.559 151.569V151.568Z" fill="url(#paint16_linear_2978_365)"/>
<path id="Vector_21" d="M132.801 98.5535C132.953 99.2888 133.928 135.296 130.231 151.471C130.171 151.734 130.306 152.005 130.558 152.105C131.151 152.34 132.313 152.679 133.701 152.712C134.131 152.722 134.513 152.439 134.631 152.026C135.696 148.271 140.792 129.46 141.309 111.532C141.886 91.4988 141.302 110.85 141.302 110.85L140.733 98.4757L132.802 98.553L132.801 98.5535Z" fill="url(#paint17_linear_2978_365)"/>
<path id="Vector_22" d="M145.88 154.066C145.88 154.066 146.554 155.25 147.226 158.406C147.348 158.976 146.954 159.526 146.374 159.589C145.348 159.7 143.769 159.845 142.503 159.848C141.919 159.85 141.459 159.346 141.524 158.766C141.653 157.61 142.072 155.712 143.407 154.223L145.88 154.066Z" fill="url(#paint18_linear_2978_365)"/>
<path id="Vector_23" d="M146.427 150.433L145.686 154.705C145.686 154.705 144.918 155.288 143.384 154.886L143.714 150.294L146.427 150.433Z" fill="url(#paint19_linear_2978_365)"/>
<path id="Vector_24" d="M148.054 99.5131C151.385 118.484 147.819 146.482 146.579 151.967C146.503 152.303 146.235 152.562 145.896 152.621C145.32 152.723 144.37 152.81 143.431 152.546C143.108 152.456 142.878 152.167 142.862 151.832C142.646 147.409 142.699 120.244 139.662 109.537C139.508 108.995 139.171 108.523 138.708 108.201L132.973 104.208L132.474 97.6689L148.054 99.5137V99.5131Z" fill="url(#paint20_linear_2978_365)"/>
<path id="Vector_25" d="M127.641 63.7021C137.078 63.4561 147.519 65.9904 147.519 65.9904C150.489 82.3738 148.348 101.324 148.348 101.324C141.059 103.309 132.786 100.301 132.786 100.301C131.506 93.4535 125.655 74.2038 125.655 74.2038C121.038 73.6757 117.226 72.3819 114.08 70.6533C116.441 67.8655 117.532 64.3361 118 62.2516C121.348 63.2564 124.73 63.7782 127.641 63.7021Z" fill="url(#paint21_linear_2978_365)"/>
<path id="Vector_26" d="M99.6272 50.0704C100.544 48.942 101.722 49.4604 101.722 49.4604C103.167 55.3124 110.496 59.9982 118.001 62.2516C117.532 64.3361 116.44 67.8655 114.081 70.6533C101.596 63.7925 99.6278 50.0704 99.6278 50.0704H99.6272Z" fill="url(#paint22_linear_2978_365)"/>
<path id="Vector_27" d="M99.855 50.3531C99.7611 50.6621 100.889 51.121 101.539 49.8541C101.556 49.2493 101.899 46.6572 101.533 46.168C99.5837 43.5644 95.8222 40.3131 95.8222 40.3131C95.1976 40.9409 95.7231 41.5468 95.7231 41.5468L97.5509 43.4139C97.1788 44.1012 96.7226 44.6831 96.5142 45.5116C96.3562 46.1394 96.4627 46.8077 96.785 47.3747C97.1079 47.9435 97.5486 48.6834 97.9637 49.2613C98.7496 50.3554 99.8556 50.3531 99.8556 50.3531H99.855Z" fill="url(#paint23_linear_2978_365)"/>
<path id="Vector_28" d="M98.3535 44.6287L100.016 46.0106L100.547 47.3971L99.0925 49.0416C99.0925 49.0416 98.5716 46.2858 98.1989 45.6919C97.8257 45.0979 98.0135 44.8073 98.3541 44.6293L98.3535 44.6287Z" fill="url(#paint24_linear_2978_365)"/>
<path id="Vector_29" d="M143.985 75.1606L147.518 65.9904C147.518 65.9904 156.393 71.8944 157.915 79.4727C156.25 79.6112 153.223 80.0735 150.27 81.599C149.583 78.0204 143.985 75.1606 143.985 75.1606Z" fill="url(#paint25_linear_2978_365)"/>
<path id="Vector_30" d="M136.363 83.8306C136.363 83.8306 146.315 89.3284 149.609 84.5213C150.293 83.5234 150.45 82.5363 150.27 81.5985C153.222 80.0724 156.25 79.6106 157.915 79.4721C158.374 81.757 158.166 84.1934 156.844 86.6665C151.095 97.42 135.076 86.2831 135.076 86.2831L136.363 83.8312V83.8306Z" fill="url(#paint26_linear_2978_365)"/>
<path id="Vector_31" d="M137.129 55.951L140.215 64.6045C140.266 64.7475 140.208 64.9077 140.075 64.9827C139.261 65.4428 136.324 66.7789 132.748 64.5604C132.376 64.3292 132.12 63.9487 132.06 63.515L131.015 56.0099L137.129 55.9516V55.951Z" fill="url(#paint27_linear_2978_365)"/>
<path id="Vector_32" d="M138.397 92.519L132.975 73.5944C132.913 73.3799 132.73 73.2231 132.508 73.1967C131.526 73.0823 128.679 72.7607 125.393 72.4826C121.434 72.1479 116.838 71.8767 114.091 72.1073C113.7 72.1399 113.464 72.553 113.638 72.9043C115.2 76.0635 121.625 88.913 124.843 93.1227C124.949 93.2623 125.114 93.3436 125.29 93.3419L137.868 93.2251C138.234 93.2217 138.496 92.8709 138.395 92.519H138.397Z" fill="url(#paint28_linear_2978_365)"/>
<path id="Vector_33" d="M137.087 87.9465C137.087 87.9465 137.842 84.8423 137.537 83.7414C137.233 82.6399 136.643 81.2242 134.675 81.539C132.708 81.8537 130.387 82.6822 130.387 82.6822C130.387 82.6822 130.504 84.1168 132 83.6538L131.072 84.3708C131.072 84.3708 131.204 85.5192 132.468 84.9058L131.605 85.8568C131.605 85.8568 132.148 86.8004 133.077 86.195C134.006 85.5902 134.451 88.3208 137.087 87.9465Z" fill="url(#paint29_linear_2978_365)"/>
<path id="Vector_34" d="M125.755 78.132C125.755 79.0104 125.042 79.7228 124.163 79.7228C123.285 79.7228 122.572 79.0104 122.572 78.132C122.572 77.2537 123.285 76.5413 124.163 76.5413C125.042 76.5413 125.755 77.2537 125.755 78.132Z" fill="#91B3FA"/>
<path id="Vector_35" d="M132.348 79.1849L131.244 75.4421C131.11 74.9877 130.744 74.6467 130.29 74.5517C126.832 73.8308 117.363 73.6774 117.268 73.6763L117.276 73.2236C117.666 73.2294 126.882 73.3787 130.383 74.1088C131 74.2382 131.496 74.6999 131.678 75.3139L132.782 79.0567L132.348 79.1849H132.348Z" fill="#BDD0FB"/>
<path id="Vector_36" d="M130.71 46.2704C130.608 46.3911 126.975 56.165 126.975 56.165L132.602 58.1202L137.423 49.3677C137.423 49.3677 132.412 44.2511 130.71 46.2698L130.71 46.2704Z" fill="url(#paint30_linear_2978_365)"/>
<path id="Vector_37" d="M135.091 49.8644C135.214 50.099 135.222 50.3766 135.113 50.618L132.967 55.3548C132.935 55.4269 132.894 55.4932 132.843 55.5527C132.56 55.8835 131.577 56.8654 130.605 55.7965C129.777 54.8855 129.003 54.0593 128.242 53.7697C127.798 53.6004 127.303 53.8338 127.139 54.2796C126.802 55.198 126.158 57.0645 125.819 58.8034C125.735 59.2395 126.004 59.6652 126.432 59.7836C127.562 60.0961 129.786 60.6397 131.709 60.682C132.025 60.6889 132.318 60.5224 132.473 60.2477C133.159 59.0386 135.093 55.6569 135.786 54.786C136.43 53.9769 137.805 54.0948 138.43 54.1989C138.668 54.2384 138.909 54.1783 139.099 54.0312C139.67 53.5906 140.635 52.5458 139.474 51.1004C139.186 50.741 139.251 50.2106 139.604 49.9148C140.237 49.3849 140.883 48.4522 140.016 47.1642C139.138 45.8601 137.842 45.8836 136.982 46.0913C136.601 46.1834 136.186 46.0261 135.996 45.6839C135.912 45.5317 135.766 45.4104 135.518 45.3892C135.049 45.3491 134.701 44.9658 134.737 44.4977C134.8 43.6949 134.567 42.6884 133.233 42.1448C130.787 41.1469 129.011 43.4391 128.7 45.237C128.39 47.0349 131.103 47.9658 132.744 47.9836C133.949 47.9967 134.751 49.2173 135.091 49.8644H135.091Z" fill="url(#paint31_linear_2978_365)"/>
<path id="Vector_38" d="M134.976 56.5284C134.976 56.5284 135.652 53.4196 136.974 53.3778C138.296 53.336 139.477 54.5205 138.024 56.1736C136.218 58.2295 134.976 56.5289 134.976 56.5289V56.5284Z" fill="url(#paint32_linear_2978_365)"/>
</g>
<defs>
<linearGradient id="paint0_linear_2978_365" x1="73.5404" y1="169.833" x2="176.711" y2="72.772" gradientUnits="userSpaceOnUse">
<stop stop-color="#00BB29"/>
<stop offset="1" stop-color="#00BB29"/>
</linearGradient>
<linearGradient id="paint1_linear_2978_365" x1="33.1313" y1="36.2407" x2="25.7801" y2="54.6897" gradientUnits="userSpaceOnUse">
<stop stop-color="#09005D"/>
<stop offset="1" stop-color="#1A0F91"/>
</linearGradient>
<linearGradient id="paint2_linear_2978_365" x1="6.2379" y1="154.34" x2="-3.35796e-05" y2="154.34" gradientUnits="userSpaceOnUse">
<stop stop-color="#09005D"/>
<stop offset="1" stop-color="#1A0F91"/>
</linearGradient>
<linearGradient id="paint3_linear_2978_365" x1="32.5985" y1="178.93" x2="23.6282" y2="74.0493" gradientUnits="userSpaceOnUse">
<stop stop-color="#FEBBBA"/>
<stop offset="1" stop-color="#FF928E"/>
</linearGradient>
<linearGradient id="paint4_linear_2978_365" x1="35.2209" y1="153.201" x2="25.1269" y2="153.201" gradientUnits="userSpaceOnUse">
<stop stop-color="#09005D"/>
<stop offset="1" stop-color="#1A0F91"/>
</linearGradient>
<linearGradient id="paint5_linear_2978_365" x1="14.5396" y1="180.491" x2="5.5676" y2="75.5823" gradientUnits="userSpaceOnUse">
<stop stop-color="#FEBBBA"/>
<stop offset="1" stop-color="#FF928E"/>
</linearGradient>
<linearGradient id="paint6_linear_2978_365" x1="74.613" y1="-15.5177" x2="63.0592" y2="8.7562" gradientUnits="userSpaceOnUse">
<stop stop-color="#FF928E"/>
<stop offset="1" stop-color="#FE7062"/>
</linearGradient>
<linearGradient id="paint7_linear_2978_365" x1="39.4489" y1="62.8221" x2="8.49301" y2="170.352" gradientUnits="userSpaceOnUse">
<stop stop-color="#09005D"/>
<stop offset="1" stop-color="#1A0F91"/>
</linearGradient>
<linearGradient id="paint8_linear_2978_365" x1="33.5831" y1="75.5497" x2="31.898" y2="63.2173" gradientUnits="userSpaceOnUse">
<stop stop-color="#FEBBBA"/>
<stop offset="1" stop-color="#FF928E"/>
</linearGradient>
<linearGradient id="paint9_linear_2978_365" x1="37.0206" y1="61.2696" x2="46.5641" y2="80.3771" gradientUnits="userSpaceOnUse">
<stop stop-color="#FEBBBA"/>
<stop offset="1" stop-color="#FF928E"/>
</linearGradient>
<linearGradient id="paint10_linear_2978_365" x1="37.8392" y1="59.6497" x2="23.1349" y2="33.4701" gradientUnits="userSpaceOnUse">
<stop stop-color="#FEBBBA"/>
<stop offset="1" stop-color="#FF928E"/>
</linearGradient>
<linearGradient id="paint11_linear_2978_365" x1="34.6752" y1="36.8559" x2="27.3234" y2="55.3048" gradientUnits="userSpaceOnUse">
<stop stop-color="#09005D"/>
<stop offset="1" stop-color="#1A0F91"/>
</linearGradient>
<linearGradient id="paint12_linear_2978_365" x1="34.7073" y1="61.4093" x2="20.003" y2="35.229" gradientUnits="userSpaceOnUse">
<stop stop-color="#FEBBBA"/>
<stop offset="1" stop-color="#FF928E"/>
</linearGradient>
<linearGradient id="paint13_linear_2978_365" x1="52.6935" y1="53.2866" x2="28.0777" y2="76.4071" gradientUnits="userSpaceOnUse">
<stop stop-color="#FEBBBA"/>
<stop offset="1" stop-color="#FF928E"/>
</linearGradient>
<linearGradient id="paint14_linear_2978_365" x1="44.807" y1="88.2622" x2="131.95" y2="-36.6101" gradientUnits="userSpaceOnUse">
<stop stop-color="#00BB29"/>
<stop offset="1" stop-color="#00BB29"/>
</linearGradient>
<linearGradient id="paint15_linear_2978_365" x1="120.497" y1="149.772" x2="161.117" y2="193.146" gradientUnits="userSpaceOnUse">
<stop stop-color="#09005D"/>
<stop offset="1" stop-color="#1A0F91"/>
</linearGradient>
<linearGradient id="paint16_linear_2978_365" x1="133.584" y1="152.896" x2="130.011" y2="152.93" gradientUnits="userSpaceOnUse">
<stop stop-color="#FEBBBA"/>
<stop offset="1" stop-color="#FF928E"/>
</linearGradient>
<linearGradient id="paint17_linear_2978_365" x1="116.861" y1="100.337" x2="151.51" y2="146.404" gradientUnits="userSpaceOnUse">
<stop stop-color="#09005D"/>
<stop offset="1" stop-color="#1A0F91"/>
</linearGradient>
<linearGradient id="paint18_linear_2978_365" x1="129.442" y1="141.392" x2="170.065" y2="184.768" gradientUnits="userSpaceOnUse">
<stop stop-color="#09005D"/>
<stop offset="1" stop-color="#1A0F91"/>
</linearGradient>
<linearGradient id="paint19_linear_2978_365" x1="146.46" y1="152.591" x2="143.375" y2="152.62" gradientUnits="userSpaceOnUse">
<stop stop-color="#FEBBBA"/>
<stop offset="1" stop-color="#FF928E"/>
</linearGradient>
<linearGradient id="paint20_linear_2978_365" x1="122.919" y1="95.7804" x2="157.568" y2="141.847" gradientUnits="userSpaceOnUse">
<stop stop-color="#09005D"/>
<stop offset="1" stop-color="#1A0F91"/>
</linearGradient>
<linearGradient id="paint21_linear_2978_365" x1="145.596" y1="17.3018" x2="140.397" y2="42.1508" gradientUnits="userSpaceOnUse">
<stop stop-color="#FF928E"/>
<stop offset="1" stop-color="#FE7062"/>
</linearGradient>
<linearGradient id="paint22_linear_2978_365" x1="117.998" y1="59.8545" x2="99.7425" y2="60.0266" gradientUnits="userSpaceOnUse">
<stop stop-color="#FEBBBA"/>
<stop offset="1" stop-color="#FF928E"/>
</linearGradient>
<linearGradient id="paint23_linear_2978_365" x1="103.757" y1="56.9714" x2="116.26" y2="84.7183" gradientUnits="userSpaceOnUse">
<stop stop-color="#FEBBBA"/>
<stop offset="1" stop-color="#FF928E"/>
</linearGradient>
<linearGradient id="paint24_linear_2978_365" x1="99.7138" y1="47.6894" x2="94.5316" y2="39.8801" gradientUnits="userSpaceOnUse">
<stop stop-color="#FEBBBA"/>
<stop offset="1" stop-color="#FF928E"/>
</linearGradient>
<linearGradient id="paint25_linear_2978_365" x1="162.764" y1="20.8936" x2="157.566" y2="45.7425" gradientUnits="userSpaceOnUse">
<stop stop-color="#FF928E"/>
<stop offset="1" stop-color="#FE7062"/>
</linearGradient>
<linearGradient id="paint26_linear_2978_365" x1="158.188" y1="85.323" x2="135.086" y2="85.5409" gradientUnits="userSpaceOnUse">
<stop stop-color="#FEBBBA"/>
<stop offset="1" stop-color="#FF928E"/>
</linearGradient>
<linearGradient id="paint27_linear_2978_365" x1="140.215" y1="60.804" x2="131.082" y2="60.8901" gradientUnits="userSpaceOnUse">
<stop stop-color="#FEBBBA"/>
<stop offset="1" stop-color="#FF928E"/>
</linearGradient>
<linearGradient id="paint28_linear_2978_365" x1="128.875" y1="70.6916" x2="116.137" y2="123.789" gradientUnits="userSpaceOnUse">
<stop stop-color="#09005D"/>
<stop offset="1" stop-color="#1A0F91"/>
</linearGradient>
<linearGradient id="paint29_linear_2978_365" x1="137.609" y1="84.7382" x2="130.387" y2="84.7382" gradientUnits="userSpaceOnUse">
<stop stop-color="#FEBBBA"/>
<stop offset="1" stop-color="#FF928E"/>
</linearGradient>
<linearGradient id="paint30_linear_2978_365" x1="132.45" y1="47.844" x2="131.397" y2="67.6554" gradientUnits="userSpaceOnUse">
<stop stop-color="#FEBBBA"/>
<stop offset="1" stop-color="#FF928E"/>
</linearGradient>
<linearGradient id="paint31_linear_2978_365" x1="136.988" y1="56.6386" x2="126.061" y2="47.4237" gradientUnits="userSpaceOnUse">
<stop stop-color="#09005D"/>
<stop offset="1" stop-color="#1A0F91"/>
</linearGradient>
<linearGradient id="paint32_linear_2978_365" x1="137.771" y1="68.7197" x2="136.78" y2="55.008" gradientUnits="userSpaceOnUse">
<stop stop-color="#FEBBBA"/>
<stop offset="1" stop-color="#FF928E"/>
</linearGradient>
<clipPath id="clip0_2978_365">
<rect width="160" height="160" fill="white"/>
</clipPath>
</defs>
</svg>
