<svg width="154" height="161" viewBox="0 0 154 161" fill="none" xmlns="http://www.w3.org/2000/svg">
<g id="Property 1=Images, Property 2=Teacher dwa">
<path id="Vector" d="M10.9511 159.925C10.9511 159.925 -9.40142 101.121 7.4676 62.8404C56.9058 -49.353 156.553 7.24329 144.988 88.457C139.972 123.685 161.864 124.874 150.439 160L10.9511 159.925Z" fill="#A9E8B7"/>
<path id="Intersect" fill-rule="evenodd" clip-rule="evenodd" d="M13.6865 50.0748C16.3529 45.1251 19.129 40.5843 21.9944 36.4344C36.2078 36.517 62.6911 36.4193 65.7626 36.2992C66.5723 36.2675 67.3879 36.2289 68.207 36.1901C75.9239 35.8251 83.9626 35.4448 90.476 40.6087C91.4116 41.3511 92.3551 42.2967 92.6617 43.6626C93.4218 47.0335 90.1046 49.3361 87.4829 50.1959C87.0688 52.5336 89.4456 53.861 91.2646 54.2777C97.1277 55.6261 102.902 57.6241 108.503 60.2455C112.474 62.1034 116.885 65.0715 117.667 70.4579C118.217 74.2472 116.65 78.1644 114.336 80.5827C112.022 83.001 109.078 84.1497 106.164 84.8834C100.337 86.3496 94.3933 86.3638 88.4423 86.3781C84.2582 86.3882 80.0703 86.3982 75.9163 86.9129C74.5746 87.0793 73.1713 87.3297 72.0793 88.3558C70.9817 89.3872 70.394 90.9913 69.8012 92.6091C69.461 93.5375 69.1192 94.4705 68.6784 95.3024C66.2794 99.8325 61.4688 100.661 57.2414 100.958C47.8273 101.626 38.3895 101.725 28.9675 101.258C28.8967 101.254 28.8259 101.251 28.7551 101.247C26.4497 101.133 24.106 101.016 21.8812 101.801C20.1568 102.408 18.5837 103.529 17.0102 104.65C16.3846 105.095 15.759 105.541 15.1237 105.954C9.96379 109.312 6.82923 110.753 1.26898 111.901C0.552066 102.758 0.533673 93.1404 1.79564 83.8488C4.6447 83.4773 7.26358 83.5615 9.9104 83.6467C12.3661 83.7257 14.8459 83.8055 17.5559 83.5228C23.5311 82.8994 29.4132 80.8068 34.7974 77.3887C35.0329 77.2393 35.268 77.087 35.5033 76.9346C36.7568 76.1229 38.016 75.3074 39.3772 74.8916C41.0968 74.3657 42.8759 74.5051 44.6485 74.644C45.1126 74.6804 45.5763 74.7167 46.0384 74.741C50.3796 74.9704 54.7524 74.1177 58.8486 72.2387C60.2314 71.6048 61.7754 70.5559 62.003 68.6735C62.2938 66.271 60.2788 64.5532 58.5168 63.7284C56.7547 62.9036 54.6402 61.888 54.2593 59.5065C54.1959 59.1088 54.1877 58.6919 54.1795 58.2774C54.1657 57.577 54.1521 56.8833 53.8721 56.3002C53.5671 55.6664 53.014 55.3231 52.4862 55.0272C46.6357 51.7544 40.2764 50.4744 33.9472 50.1329C33.1449 50.0894 22.6644 50.0686 13.6865 50.0748Z" fill="#D4F3DB"/>
<path id="Vector_2" d="M151.373 160.413H2.48482C1.87096 160.413 1.37329 159.724 1.37329 158.873C1.37329 158.023 1.87096 157.333 2.48482 157.333H151.373C151.987 157.333 152.484 158.023 152.484 158.873C152.484 159.723 151.987 160.413 151.373 160.413Z" fill="#F0806A"/>
<path id="Vector_3" d="M76.7171 157.406L76.7152 156.476C76.7152 156.476 72.6473 151.699 71.3988 149.269L67.9647 142.558L63.469 143.734L69.1757 152.29L76.718 157.406H76.7171Z" fill="#FFB27D"/>
<path id="Vector_4" d="M51.6254 34.2806C52.4104 30.8625 51.2718 29.2702 50.245 28.4223C49.7577 27.1644 49.2017 26.2573 48.6328 25.9152C47.5959 25.2911 46.3529 25.2232 45.4836 25.2775C45.7071 25.0333 46.1477 24.9441 46.1477 24.9441C45.6091 24.8588 44.4055 25.4248 44.4055 25.4248C36.9071 22.3682 35.7282 34.049 35.8867 36.7625C36.0434 39.476 36.0223 42.6721 32.121 44.81C24.6777 48.89 34.5952 64.263 34.5952 64.263C34.4055 62.0699 43.9695 50.4977 48.9589 47.0322C50.1735 45.1405 50.605 41.798 50.6379 41.5354C50.4282 44.1849 49.9995 45.6715 49.6166 46.5089C51.891 44.2944 52.2272 38.9769 51.6254 34.2806Z" fill="#A9453D"/>
<path id="Vector_5" d="M48.6629 47.2057C48.6877 47.2173 46.2539 48.5547 44.4228 48.0246C42.7007 47.5274 41.5749 45.1657 41.5988 45.1599C42.3279 45.0067 42.5386 43.9465 42.523 39.3897L42.8528 39.4585L48.3964 40.6205C48.3964 40.6205 48.27 42.4667 48.2663 44.2053C48.2626 45.6657 48.346 47.0496 48.662 47.2057H48.6629Z" fill="#FFB27D"/>
<path id="Vector_6" d="M48.3963 40.6205C48.3963 40.6205 48.2699 42.4667 48.2663 44.2053C45.1638 44.1122 43.5241 41.1187 42.8518 39.4586L48.3954 40.6205H48.3963Z" fill="#ED975D"/>
<path id="Vector_7" d="M70.493 146.923L67.5545 147.018L64.3732 147.12C64.3732 147.12 57.026 138.465 52.904 124.591C52.8079 124.269 52.7071 123.943 52.599 123.613C50.3438 116.654 45.6677 107.921 43.2036 100.015C42.8116 98.7558 42.4589 97.5706 42.1429 96.4483C42.0421 96.0888 41.9432 95.736 41.8498 95.3891C40.0334 88.7138 39.5085 84.3305 39.0239 79.6477L56.8172 79.798C56.8172 79.798 59.6898 111.775 70.493 146.922V146.923Z" fill="#2A4E96"/>
<path id="Vector_8" d="M54.3265 68.9817C54.2816 77.9402 55.5686 81.7827 55.5686 81.7827C55.5686 81.7827 47.9502 85.8782 38.8956 82.8633C38.7893 82.8274 33.0698 81.21 33.0698 81.21C33.221 80.8475 34.5693 74.8099 34.7168 74.4775C36.6285 70.1339 36.4086 68.0629 36.6358 66.7275C37.0562 64.2349 37.0654 61.6552 36.8556 59.2227C36.3033 52.7829 34.66 47.4363 34.66 47.4363C37.1268 46.8422 39.4378 45.7985 42.0054 44.78C42.5962 45.5582 44.4016 46.3722 45.968 46.3354C47.7716 46.2937 48.3569 45.4768 48.2626 44.5852C50.1843 45.7161 51.7186 46.7851 51.7186 46.7851C53.3518 49.7874 56.665 52.7025 56.905 57.3077C56.9645 58.4406 54.3283 68.7307 54.3274 68.9817H54.3265Z" fill="#E7F1FD"/>
<path id="Vector_9" d="M49.4323 42.267C49.4323 42.267 42.0924 42.395 42.0869 37.5581C42.0814 32.7213 41.1306 29.4796 45.8168 29.1937C50.5031 28.9078 51.4154 30.752 51.7882 32.3666C52.161 33.9811 51.3403 42.1101 49.4314 42.268L49.4323 42.267Z" fill="#FFB27D"/>
<path id="Vector_10" d="M49.1613 29.0745C49.1613 29.0745 47.1516 34.7496 44.0675 35.5889C40.9833 36.4281 39.645 35.554 39.645 35.554C39.645 35.554 40.1278 32.635 40.6187 29.1636C40.6187 29.1636 47.6444 26.3736 49.1604 29.0745H49.1613Z" fill="#A9453D"/>
<path id="Vector_11" d="M48.6631 29.5348C48.6631 29.5348 50.1644 30.8015 50.5299 32.0342C50.8963 33.2659 51.0603 35.8021 51.7592 35.7158C51.7592 35.7158 53.2733 31.8588 51.5714 29.6763C49.7669 27.3621 48.6631 29.5358 48.6631 29.5358V29.5348Z" fill="#A9453D"/>
<path id="Vector_12" d="M43.9336 156.238C43.6835 154.784 43.2091 152.27 43.2091 152.27L43.319 143.352H38.1995L40.1148 151.888C40.1542 152.285 40.2586 153.823 39.7209 155.453C39.7209 155.453 39.229 157.823 41.4357 157.867C43.6423 157.911 44.1837 157.691 43.9336 156.237V156.238Z" fill="#FFB27D"/>
<path id="Vector_13" d="M39.7212 155.454C39.7212 155.454 39.3053 158.288 39.5554 159.478C39.5554 159.478 40.2066 159.523 41.8096 159.523C43.3293 159.523 44.1418 159.478 44.1418 159.478C44.1418 159.478 44.1885 156.428 43.7827 155.393C43.7827 155.393 42.2191 157.876 39.7212 155.454Z" fill="#1E3D70"/>
<path id="Vector_14" d="M60.9822 75.1995L64.4492 86.3821L62.4716 87.2204L56.7393 77.3413L60.9822 75.1995Z" fill="#FFB27D"/>
<path id="Vector_15" d="M79.3333 159.478C79.3333 159.478 74.9044 159.567 74.1551 159.478C73.4058 159.39 72.8269 157.954 72.0154 156.236C71.6829 155.533 70.9372 155.146 70.1733 154.933L70.209 159.478H69.0851L67.9245 154.683C67.2036 153.283 67.7505 152.02 68.2579 150.914C68.8478 150.913 70.5498 151.332 73.5552 154.914C74.5426 156.09 75.6336 156.51 76.7163 156.474C76.7309 156.485 76.7465 156.493 76.7611 156.5C79.2591 157.689 79.3342 159.477 79.3342 159.477L79.3333 159.478Z" fill="#1E3D70"/>
<path id="Vector_16" d="M61.8433 76.2869C61.8433 76.2869 61.3065 74.8274 60.5939 72.9841C59.8803 71.1409 58.0886 53.1938 56.906 50.5181C55.7226 47.8424 51.6354 46.1261 51.6354 46.1261L48.2627 44.5842C48.2627 44.5842 52.5093 55.6835 52.6348 57.9299C52.7593 60.1763 53.134 94.6632 53.134 94.6632C53.134 94.6632 52.8839 96.2487 55.7565 95.5877C58.629 94.9268 59.3783 94.2668 59.3783 94.2668C59.3783 94.2668 58.335 86.1902 57.7103 78.259C59.7832 78.1233 61.8442 76.2869 61.8442 76.2869H61.8433Z" fill="#2A4E96"/>
<path id="Vector_17" d="M67.5546 147.018L64.3733 147.12C64.3733 147.12 57.0261 138.465 52.9041 124.591C52.8079 124.269 52.7072 123.943 52.5991 123.613C50.3439 116.654 45.6677 107.921 43.2037 100.015C42.8116 98.7558 42.459 97.5706 42.143 96.4483C42.0422 96.0888 41.9433 95.736 41.8499 95.3891L44.4705 93.2851C44.4705 93.2851 52.3371 106.763 54.7727 119.446C56.8887 130.463 65.3608 143.721 67.5537 147.018H67.5546Z" fill="#1E3D70"/>
<path id="Vector_18" d="M44.7442 120.628C44.7891 126.796 44.4941 140.976 43.7348 146.847H40.9171C39.3599 146.847 38.5832 146.823 38.5832 146.823C36.6788 136.615 35.3231 128.169 34.3366 120.891C33.5278 114.919 32.8078 109.799 32.2546 105.39C31.6976 100.955 31.3102 97.2401 31.1718 94.1021C31.1508 93.6079 31.1343 93.1272 31.126 92.661C31.1169 92.192 31.115 91.7355 31.1187 91.2936L46.4928 89.7081C46.2995 100.516 44.7194 117.043 44.7442 120.628Z" fill="#2A4E96"/>
<path id="Vector_19" d="M40.9182 146.847C39.361 146.847 38.5842 146.823 38.5842 146.823C36.6798 136.615 35.3242 128.169 34.3376 120.891C33.5288 114.919 32.8088 109.799 32.2556 105.39C31.6986 100.955 31.3112 97.2401 31.1729 94.1021L36.8145 97.6132C36.8145 97.6132 33.2137 98.9573 34.5877 109.131C35.9617 119.305 39.0065 145.406 40.9182 146.846V146.847Z" fill="#1E3D70"/>
<path id="Vector_20" d="M41.6437 94.0032C41.6437 94.0032 40.561 98.1433 36.8145 97.6142C33.0681 97.086 27.7397 94.7078 27.7397 94.7078C27.7397 94.7078 29.3409 89.3554 31.3314 82.3225C33.7423 73.8088 36.7257 62.8346 38.1317 55.9112C38.5265 53.972 38.7958 52.3517 38.8957 51.1916L42.0046 44.811C42.0046 44.811 46.6395 55.8162 46.8887 58.5908C47.1387 61.3654 41.6437 94.0023 41.6437 94.0023V94.0032Z" fill="#2A4E96"/>
<path id="Vector_21" d="M37.9027 58.178L42.0055 44.811C41.9945 44.8168 36.8237 46.4391 34.2231 47.8288C34.2231 47.8288 32.5972 50.0461 31.5915 55.1621C31.5915 55.1621 30.5289 67.4446 32.9014 71.9365C32.9014 71.9365 40.3951 73.522 52.3846 69.1619V66.2546C52.3846 66.2546 39.2712 66.9814 36.5855 67.3119L37.9027 58.178Z" fill="#FFB27D"/>
<path id="Vector_22" d="M41.4778 64.4055C41.3102 68.8983 40.3117 77.6184 31.4027 82.2876C31.3789 82.2992 31.3551 82.3128 31.3313 82.3235C33.7422 73.8098 36.7256 62.8355 38.1317 55.9122C39.7676 58.4997 41.5685 61.9323 41.4778 64.4055Z" fill="#1E3D70"/>
<path id="Vector_23" d="M42.0054 44.811C42.0054 44.811 34.3999 45.3779 32.5688 49.6943C30.7368 54.0108 30.1542 68.3692 32.4855 72.5974C32.4855 72.5974 35.6951 73.5646 41.3716 72.4414C41.4412 72.4278 41.5108 72.4133 41.5813 72.3988C41.5813 72.3988 43.3922 67.7083 41.7682 66.7827C41.7682 66.7827 36.9803 67.0473 37.4804 65.3737C37.9796 63.7 42.0045 44.811 42.0045 44.811H42.0054Z" fill="#2A4E96"/>
<path id="Vector_24" d="M61.0729 68.0513L60.8484 68.813L48.3689 64.7059C48.3689 64.7059 48.2022 64.5053 48.2846 64.2388C48.3753 63.9452 48.5933 63.9442 48.5933 63.9442L61.0729 68.0513Z" fill="#A9453D"/>
<path id="Vector_25" d="M61.9751 68.7714L61.0729 68.0513L60.8494 68.813L61.9751 68.7714Z" fill="#A9453D"/>
<path id="Vector_26" d="M63.9565 86.0759C63.9565 86.0759 67.1222 87.9269 67.5389 89.337C67.9557 90.747 67.669 93.6999 67.1671 93.6553C66.6642 93.6117 65.9149 90.4825 65.4981 90.2625C65.0813 90.0425 64.4988 89.3815 64.4988 89.8661C64.4988 90.3506 64.9155 91.2325 64.7067 91.3643C64.4987 91.4961 63.8319 90.1307 63.3739 89.8661C62.9159 89.6015 62.7235 87.4229 62.2784 86.8376C61.8332 86.2523 63.9574 86.0759 63.9574 86.0759H63.9565Z" fill="#FFB27D"/>
<path id="Vector_27" d="M52.3845 66.2555C52.3845 66.2555 55.2158 64.4113 56.4029 64.6943C57.591 64.9782 60.6175 67.2973 59.1619 67.7993C57.7064 68.3013 56.5275 67.7751 55.9669 68.1395C55.4073 68.5039 54.9941 69.1716 52.3845 69.1619C49.7748 69.1532 52.3845 66.2546 52.3845 66.2546V66.2555Z" fill="#FFB27D"/>
<path id="Vector_28" d="M137.884 149.13C137.884 149.13 139.983 151.158 139.574 152.598C139.164 154.038 137.269 154.998 137.013 156.759C136.757 158.52 135.732 159.481 134.811 159.481H130.416C130.416 159.481 129.737 158.242 131.376 157.868C133.014 157.495 133.633 155.426 133.53 153.505C133.427 151.584 133.684 149.024 133.684 149.024L137.167 148.17L137.884 149.13Z" fill="#233862"/>
<path id="Vector_29" d="M112.206 154.417C112.206 154.417 112.583 159.031 111.661 159.511L99.9359 159.523C99.9359 159.523 99.8626 158.044 101.758 157.724C103.653 157.405 106.982 156.23 107.545 153.616C108.108 151.002 112.206 154.417 112.206 154.417Z" fill="#233862"/>
<path id="Vector_30" d="M102.164 89.1567C102.164 89.1567 102.786 97.2439 103.517 106.966C104.512 120.172 105.706 136.393 105.826 139.466C106.03 144.802 106.851 153.338 106.851 153.338C106.851 153.338 108.795 155.367 112.689 154.512C112.689 154.512 116.158 142.327 117.149 129.435C117.165 129.224 117.179 129.011 117.195 128.798C118.116 115.674 119.55 88.0374 119.55 88.0374L102.164 89.1577V89.1567Z" fill="#EE9849"/>
<path id="Vector_31" d="M102.164 89.1567C102.164 89.1567 102.786 97.2439 103.517 106.966L117.148 129.434C117.164 129.223 117.179 129.01 117.194 128.797C118.116 115.673 119.549 88.0364 119.549 88.0364L102.164 89.1567H102.164Z" fill="#E58638"/>
<path id="Vector_32" d="M105.006 90.1171C105.006 90.1171 116.221 119.407 123.596 133.171C130.971 146.935 133.275 150.777 133.275 150.777C133.275 150.777 137.5 149.016 137.885 147.816C137.885 147.816 135.065 121.243 130.126 114.766C127.336 111.105 124.058 100.12 123.904 96.2797C123.75 92.4381 122.905 84.8354 122.905 84.8354L105.007 90.1171H105.006Z" fill="#EE9849"/>
<path id="Vector_33" d="M80.7704 66.0637C80.7704 66.0637 77.4325 65.4308 76.7886 64.9017C76.1446 64.3735 76.5605 64.0954 76.7638 63.1951C77.1595 61.441 76.9077 62.382 77.58 62.3045C78.2523 62.2279 77.7311 61.7792 77.7284 61.4226C77.7256 61.0659 77.5818 60.6957 78.1882 60.7616C78.7946 60.8275 80.2483 62.8636 81.4657 63.637C82.683 64.4103 80.7704 66.0637 80.7704 66.0637Z" fill="#FFB27D"/>
<path id="Vector_34" d="M112.167 45.5407C112.167 45.5407 115.725 61.4003 102.442 73.6644C98.2962 77.4924 80.2153 66.2129 80.2153 66.2129C80.2153 66.2129 80.2538 64.3202 81.9658 63.5285C81.9658 63.5285 96.2105 65.8136 97.8987 65.9658C99.3963 66.1005 102.428 53.1735 106.106 48.8522C108.953 45.5078 112.167 45.5397 112.167 45.5397V45.5407Z" fill="#233862"/>
<path id="Vector_35" d="M119.763 44.9796C119.763 44.9796 112.175 48.8532 107.799 47.416C107.799 47.416 108.876 45.9788 110.76 44.9089C110.609 43.9795 110.491 43.1732 110.424 42.49C110.239 40.9122 110.239 40.0177 110.239 40.0177L113.167 37.5814L115.943 35.2497C115.724 41.8058 119.763 44.9777 119.763 44.9777V44.9796Z" fill="#FFB27D"/>
<path id="Vector_36" d="M101.685 89.8244C101.819 89.9475 101.971 90.0163 102.141 90.0163C103.788 89.9804 108.585 90.9447 112.639 90.5067C116.072 90.1559 119.1 89.1053 122.348 87.5984C122.785 87.3881 123.779 86.8269 123.761 86.3366C123.743 85.7755 123.694 84.9866 123.627 83.969C123.492 81.9668 123.3 79.1234 123.239 75.7519C123.124 69.4255 123.492 67.9757 123.492 63.6709C123.523 57.6983 122.675 46.7075 118.142 43.1974C117.839 42.9512 115.954 43.9145 114.204 44.81C112.605 45.6338 111.008 45.7219 109.493 45.407L107.979 46.8093C106.144 48.5779 104.125 51.0152 103.233 54.6969C102.494 57.8175 102.056 63.4606 101.819 69.316C101.615 73.9949 101.566 77.9663 101.566 78.0632C101.484 84.566 101.566 89.7372 101.684 89.8244H101.685Z" fill="#2B478B"/>
<path id="Vector_37" d="M115.993 37.7578C115.993 37.7578 114.075 41.4559 110.424 42.4909C110.239 40.9132 110.239 40.0187 110.239 40.0187L113.167 37.5824L115.993 37.7578Z" fill="#ED985F"/>
<path id="Vector_38" d="M108.904 39.9121C108.904 39.9121 116.143 41.1652 116.822 36.4562C117.502 31.7473 118.893 28.7382 114.301 27.7391C109.707 26.7399 108.548 28.3951 107.954 29.9099C107.36 31.4236 107.038 39.4644 108.904 39.9111V39.9121Z" fill="#FFB27D"/>
<path id="Vector_39" d="M119.454 27.176C119.52 27.0965 119.671 27.0316 120.009 27.0122C120.009 27.0122 119.74 26.8339 119.379 26.8242C119.308 26.328 119.059 25.449 118.251 25.2358C118.251 25.2358 118.685 25.481 118.742 26.0082C117.807 24.9926 115.804 24.2531 110.255 24.7164C102.944 25.3269 105.353 30.2801 106.3 30.8703C107.246 31.4604 109.629 29.842 111.393 29.9903C113.157 30.1386 113.493 32.8347 114.091 33.2049C114.689 33.5751 114.453 32.9209 115.263 32.5333C116.073 32.1466 116.15 33.5654 115.915 34.488C115.682 35.4106 116.794 36.6278 116.794 36.6278L117.918 35.3466C119.042 34.0664 120.101 28.6413 119.59 27.4851C119.545 27.3834 119.501 27.2797 119.455 27.176H119.454Z" fill="#2C3A64"/>
<path id="Vector_40" d="M123.239 75.7519C123.194 73.2526 123.219 70.4634 123.391 67.5096C123.401 67.3119 123.411 67.1113 123.418 66.9107C122.73 63.3036 121.689 60.1036 120.157 59.9989C120.157 59.9989 115.593 67.5881 123.24 75.7509L123.239 75.7519Z" fill="#233862"/>
<path id="Vector_41" d="M129.277 88.8388C129.277 88.8388 128.897 92.7521 128.479 93.4925C128.061 94.2329 126.284 96.5985 125.527 97.0627C124.769 97.5269 125.989 93.946 125.835 93.2492C125.681 92.5524 125.212 94.5207 124.877 94.5672C124.544 94.6138 124.629 92.8422 124.617 92.1968C124.605 91.5523 126.24 89.9601 126.818 88.5868C127.394 87.2146 129.276 88.8388 129.276 88.8388H129.277Z" fill="#FFB27D"/>
<path id="Vector_42" d="M118.138 43.1586C118.138 43.1586 122.718 45.4535 124.914 48.9811C128.321 54.4527 132.27 74.3961 132.342 76.2432C132.415 78.0904 129.46 91.1279 129.46 91.1279C129.46 91.1279 126.463 90.9186 125.69 89.3185C125.69 89.3185 126.289 75.9225 125.91 75.0609C125.531 74.1994 113.416 57.0906 114.778 53.44C116.14 49.7893 118.138 43.1577 118.138 43.1577V43.1586Z" fill="#2B478B"/>
<path id="Vector_43" d="M94.0855 56.085L79.3582 52.4104L74.5678 73.9002L89.2952 77.5748L94.0855 56.085Z" fill="#DBAF8F"/>
<path id="Vector_44" d="M93.7068 55.9897L78.9795 52.315L74.1892 73.8048L88.9165 77.4795L93.7068 55.9897Z" fill="#EFCBAB"/>
<path id="Vector_45" d="M92.367 57.2129L79.6599 54.0423L75.5267 72.5845L88.2338 75.7551L92.367 57.2129Z" fill="#EBF3FA"/>
<path id="Vector_46" d="M90.5011 59.7218C90.4837 59.7218 90.4663 59.7198 90.4489 59.715L80.678 57.2767C80.5561 57.2467 80.481 57.1178 80.5094 56.9889C80.5378 56.86 80.6596 56.7805 80.7815 56.8106L90.5524 59.2488C90.6742 59.2789 90.7494 59.4078 90.721 59.5367C90.6962 59.6472 90.6037 59.7208 90.5011 59.7208V59.7218Z" fill="#B5C1CF"/>
<path id="Vector_47" d="M90.099 61.1803C90.0816 61.1803 90.0642 61.1784 90.0468 61.1735L80.2759 58.7352C80.154 58.7052 80.0789 58.5763 80.1073 58.4474C80.1357 58.3185 80.2575 58.239 80.3794 58.2691L90.1503 60.7074C90.2721 60.7374 90.3473 60.8663 90.3189 60.9952C90.2941 61.1057 90.2016 61.1793 90.099 61.1793V61.1803Z" fill="#B5C1CF"/>
<path id="Vector_48" d="M89.672 62.6388C89.6546 62.6388 89.6372 62.6369 89.6198 62.632L79.8489 60.1937C79.727 60.1637 79.6519 60.0348 79.6803 59.9059C79.7087 59.777 79.8305 59.6975 79.9524 59.7276L89.7233 62.1659C89.8451 62.1959 89.9202 62.3248 89.8909 62.4537C89.8662 62.5642 89.7737 62.6378 89.6711 62.6378L89.672 62.6388Z" fill="#B5C1CF"/>
<path id="Vector_49" d="M89.2699 64.0973C89.2525 64.0973 89.2351 64.0954 89.2177 64.0905L79.4468 61.6523C79.3249 61.6222 79.2498 61.4933 79.2782 61.3644C79.3066 61.2355 79.4284 61.1561 79.5503 61.1861L89.3212 63.6244C89.443 63.6544 89.5182 63.7833 89.4898 63.9122C89.465 64.0227 89.3725 64.0964 89.2699 64.0964V64.0973Z" fill="#B5C1CF"/>
<path id="Vector_50" d="M88.3925 56.8949L83.3453 55.635C83.1951 55.5972 83.1007 55.4364 83.1365 55.2774L83.534 53.4962C83.5697 53.3373 83.7218 53.2374 83.872 53.2752L88.9192 54.5351C89.0694 54.5729 89.1637 54.7337 89.128 54.8927L88.7305 56.6739C88.6947 56.8328 88.5427 56.9327 88.3925 56.8949Z" fill="#EE9849"/>
<path id="Vector_51" d="M77.9703 63.1825C78.1434 62.5419 77.4775 60.7015 77.1432 60.4777C76.8088 60.2538 76.4324 61.2297 76.1118 62.4421C75.7912 63.6544 75.9579 64.7108 76.2162 64.7554C76.4754 64.799 77.8109 63.7727 77.9703 63.1835V63.1825Z" fill="#FFB27D"/>
</g>
</svg>
