<?xml version="1.0" encoding="UTF-8"?>
<svg id="Warstwa_1" xmlns="http://www.w3.org/2000/svg" version="1.1" viewBox="0 0 1200 630">
  <!-- Generator: Adobe Illustrator 29.0.1, SVG Export Plug-In . SVG Version: 2.1.0 Build 192)  -->
  <defs>
    <style>
      .st0 {
        fill: none;
      }

      .st1 {
        fill: #332d32;
      }

      .st2 {
        fill: #fff;
      }

      .st3 {
        fill: #00bb27;
      }
    </style>
  </defs>
  <rect class="st2" width="1200" height="630"/>
  <g>
    <g>
      <path class="st1" d="M347.3,244.5h-64v31.1h55.2v24.8h-55.2v32.3h64v25h-93v-138h93s0,24.6,0,24.6Z"/>
      <path class="st1" d="M456.3,357.8l-42.8-55.8-10.6,11.6v44.1h-29.7v-138h29.7v58.7l50.4-58.7h36.5l-55.8,60.3,59.7,77.6h-37.4,0Z"/>
      <path class="st1" d="M582.2,220.6c7.9,2.6,14.5,5.9,19.9,9.6l-12.2,21.7c-4.9-3.4-10.3-6.2-16.3-8.3-6-2.1-11.7-3.1-17-3.1s-11.7,1.4-15.4,4-5.5,6.4-5.5,11.1,2.2,8.5,6.5,11.1,11,5.6,19.9,8.8c9.2,3.3,16.6,6.3,22.1,9.1,5.5,2.8,10.4,6.8,14.5,12.1s6.2,12.1,6.2,20.4-2.3,16.4-6.8,22.9c-4.5,6.4-10.9,11.4-19,14.9-8.2,3.5-17.5,5.2-28,5.2s-17.3-1.1-26.1-3.4c-8.9-2.3-16.7-5.4-23.4-9.3l9.1-24c6.3,3.4,13,6.2,20,8.2,7,2,13.9,3.1,20.8,3.1s13.1-1.4,16.9-4.3c3.7-2.9,5.6-6.7,5.6-11.4s-2-8.4-6.1-11-10.3-5.3-18.7-8.1c-9.5-3-17.1-5.9-22.9-8.8-5.8-2.8-10.7-7-14.9-12.4s-6.2-12.6-6.2-21.4,2.1-15.3,6.4-21.4c4.2-6.1,10.3-10.8,18-14.1,7.7-3.3,16.7-4.9,26.8-4.9s17.9,1.3,25.8,4h.2Z"/>
      <path class="st1" d="M627,219.8h48.3c17.2,0,30.4,3.9,39.5,11.7s13.7,18.4,13.7,31.8-2,17-6.1,24.3-10.1,13.1-18.1,17.4c-8,4.3-17.7,6.5-29,6.5h-19.3v46.1h-29v-137.9h0ZM674.5,287.1c7.4,0,13-2,17-5.9,4-4,6-9.4,6-16.4s-2-11.9-6-15.3c-4-3.4-9.8-5-17.3-5h-18.3v42.6h18.5Z"/>
      <path class="st1" d="M840.2,244.5h-64v31.1h55.2v24.8h-55.2v32.3h64v25h-93v-138h93v24.6Z"/>
      <path class="st1" d="M946.6,357.8l-27.8-46.5h-23.8v46.5h-29v-138h51.6c18.9,0,32.8,3.8,41.8,11.3,8.9,7.6,13.4,18.1,13.4,31.6s-2.3,19.5-7,26.6c-4.7,7.1-11.2,12.5-19.6,16.1l32.5,52.2h-32.1,0ZM895,286.5h22.6c7.6,0,13.6-2,17.8-5.8,4.2-3.9,6.4-9.2,6.4-16.1s-2.1-11.7-6.2-15.1-10.7-5-19.8-5h-20.9v42h0Z"/>
      <path class="st1" d="M1028.6,244.7h-41.8v-24.8h112.6v24.8h-41.8v113.1h-29v-113.1h0Z"/>
      <path class="st1" d="M294.2,385.3c2.1.6,3.9,1.4,5.4,2.5l-2.5,4c-2.8-1.8-6-2.7-9.8-2.7s-4.5.6-6.5,1.7c-2,1.1-3.5,2.8-4.6,5.1-1.1,2.3-1.7,5.2-1.7,8.6,0,5.1,1.2,8.8,3.6,11.3s5.4,3.7,9.3,3.7,4-.3,5.7-.9,3.3-1.5,4.8-2.8l2.7,3.7c-1.7,1.4-3.6,2.6-5.9,3.4-2.3.8-4.8,1.2-7.5,1.2s-6.5-.7-9.2-2.2c-2.7-1.4-4.8-3.7-6.4-6.7s-2.3-6.7-2.3-11,.8-8,2.4-11c1.6-3,3.7-5.2,6.5-6.7,2.7-1.4,5.8-2.2,9.3-2.2s4.8.3,6.9.9h0Z"/>
      <path class="st1" d="M329.9,410.7h-20.8c.6,6.3,3.7,9.5,9.4,9.5s3.6-.3,5.1-.9c1.5-.6,2.8-1.4,3.9-2.3l2.3,3.2c-1.5,1.3-3.3,2.3-5.2,3-1.9.7-4.2,1.1-6.7,1.1s-4.9-.6-7-1.7c-2.1-1.1-3.7-2.8-5-5.1-1.2-2.3-1.9-5-1.9-8.2s.6-5.9,1.7-8.2c1.1-2.3,2.7-4.1,4.8-5.3,2-1.2,4.4-1.8,7.1-1.8s5,.6,6.9,1.8c1.9,1.2,3.3,2.8,4.2,4.9.9,2,1.4,4.2,1.4,6.7s0,2.2-.3,3.3h0ZM311.7,400.3c-1.5,1.6-2.4,3.8-2.6,6.7h16.5c-.1-2.8-.8-5-2.1-6.6s-3.2-2.4-5.7-2.4-4.5.8-6.1,2.3Z"/>
      <path class="st1" d="M337.1,394.8h3.4l.8,4.4h.2c1.4-1.7,2.8-2.9,4.4-3.8,1.5-.8,3.4-1.3,5.6-1.3s5.4.8,7.1,2.4,2.5,4,2.5,7.1v19.9h-4.9v-18.4c0-2.3-.5-4-1.4-5s-2.3-1.4-4-1.4c-3.5,0-6.4,1.8-8.8,5.3v19.5h-4.8s0-28.7,0-28.7Z"/>
      <path class="st1" d="M371,418v-19h-4.8v-4.2h4.8v-4.2l2.4-3.2h2.6v7.4h7v4.2h-7v18.1c0,.9.2,1.7.6,2.1.4.4,1,.6,1.7.6,1.1,0,2.3-.3,3.8-.9l1.3,3.7c-1.9,1.1-3.9,1.6-5.9,1.6-4.3,0-6.5-2.1-6.5-6.2h0Z"/>
      <path class="st1" d="M389.6,394.8h3.7l.9,4.2h.2c1.4-3.3,3.7-4.9,7-4.9s2.4.3,3.1.7l-.8,4.4c-.9-.3-1.9-.5-2.9-.5-2.9,0-5,2-6.3,6.1v18.6h-4.9v-28.7h0Z"/>
      <path class="st1" d="M433.5,394.8v28.7h-3.6l-1.1-4.3c-1.3,1.6-2.7,2.8-4.2,3.7s-3.4,1.3-5.5,1.3-5.1-.8-6.8-2.5c-1.7-1.7-2.5-4.2-2.5-7.6v-19.2h4.9v18c0,4.6,1.8,6.9,5.3,6.9s3.3-.4,4.6-1.4c1.3-.9,2.6-2.1,3.9-3.7v-19.9h4.9,0Z"/>
      <path class="st1" d="M479.5,396.6c1.6,1.7,2.4,4.1,2.4,7.3v19.5h-5v-19.2c0-3.9-1.7-5.9-5-5.9s-2.9.4-4.2,1.3-2.4,2.2-3.4,3.9v19.8h-5.1v-19.3c0-2-.5-3.4-1.4-4.3s-2.2-1.4-3.6-1.4-3,.5-4.3,1.4-2.4,2.2-3.2,3.8v19.8h-5v-28.7h3.8l.6,4.1h.2c1.1-1.7,2.4-2.9,3.7-3.7s3-1.1,4.9-1.1,3.8.4,5.1,1.2,2.4,2.1,3.2,3.9c1.2-1.8,2.6-3.1,4.2-3.9s3.2-1.2,5.1-1.2c2.8,0,5.1.8,6.7,2.5Z"/>
      <path class="st1" d="M506.6,385.2h11.8c4.3,0,7.6,1,10,3.1,2.3,2,3.4,4.8,3.4,8.3s-.5,4.5-1.5,6.3c-1,1.9-2.5,3.4-4.5,4.5-2,1.1-4.4,1.7-7.3,1.7h-6.8v14.4h-5.1v-38.3ZM518.1,404.6c2.7,0,4.8-.7,6.2-2.1,1.4-1.4,2.1-3.3,2.1-5.8,0-4.8-2.8-7.1-8.3-7.1h-6.4v15h6.4Z"/>
      <path class="st1" d="M537.4,394.8h3.7l.9,4.2h.2c1.4-3.3,3.7-4.9,7-4.9s2.4.3,3.1.7l-.8,4.4c-.9-.3-1.9-.5-2.9-.5-2.9,0-5,2-6.3,6.1v18.6h-4.9v-28.7h0Z"/>
      <path class="st1" d="M575.4,395.8c2.1,1.1,3.9,2.8,5.1,5,1.3,2.3,2,5.1,2,8.4s-.6,6.2-2,8.4-3,3.9-5.1,5c-2.1,1.1-4.5,1.7-7,1.7s-4.8-.6-7-1.7-3.9-2.8-5.1-5c-1.3-2.3-2-5.1-2-8.4s.6-6.2,2-8.4c1.3-2.3,3-3.9,5.1-5,2.1-1.1,4.5-1.7,7-1.7s4.8.6,7,1.7ZM561.9,401.3c-1.6,1.9-2.4,4.5-2.4,7.9s.8,6,2.4,7.9,3.8,2.8,6.6,2.8,5-.9,6.6-2.8c1.6-1.9,2.4-4.5,2.4-7.8s-.8-5.9-2.4-7.8c-1.6-1.9-3.8-2.8-6.6-2.8s-5,.9-6.6,2.8Z"/>
      <path class="st1" d="M603.8,382.2l-.8,3.9c-.9-.3-1.9-.4-3-.4-2.9,0-4.4,1.3-4.4,4v5.1h7.1v4.2h-7.1v24.5h-5v-24.5h-4.3v-4.2h4.3v-5.1c0-2.7.8-4.8,2.3-6.1s3.7-2,6.3-2,3.2.2,4.5.6ZM613.7,385c.6.6,1,1.3,1,2.3s-.3,1.8-1,2.3-1.4.8-2.3.8-1.7-.3-2.3-.8c-.6-.6-.9-1.3-.9-2.3s.3-1.8.9-2.3c.6-.5,1.4-.8,2.3-.8s1.7.3,2.3.8ZM613.9,423.5h-4.9v-28.7h4.9v28.7Z"/>
      <path class="st1" d="M627.7,423.5h-4.9v-41.2h4.9v41.2Z"/>
      <path class="st1" d="M661.1,420l-.4,3.3c-.6.4-1.6.6-2.8.6s-2.3-.3-3-1c-.8-.6-1.3-1.7-1.5-3.1-2.5,2.9-5.7,4.3-9.6,4.3s-4.9-.7-6.7-2.1-2.6-3.4-2.6-6,1.1-5.1,3.3-6.5c2.2-1.4,4.9-2.1,8.3-2.1s2.4,0,3.7.2,2.4.3,3.2.5v-3.8c0-2.2-.6-3.7-1.9-4.7-1.3-1-2.9-1.4-5-1.4s-5.4.9-7.9,2.8l-2.1-3.2c3-2.5,6.6-3.8,10.8-3.8s6.4.8,8.2,2.6c1.9,1.7,2.8,4.3,2.8,7.6v13.4c0,1.5.6,2.3,1.8,2.3h1.4ZM649.5,419.1c1.4-.8,2.6-1.8,3.6-3.1v-4.3c-.8-.2-1.8-.3-3.1-.5-1.3-.1-2.5-.2-3.5-.2-2,0-3.7.4-5.1,1.1s-2,2-2,3.7.6,2.6,1.7,3.4,2.4,1.1,3.9,1.1,3.2-.4,4.7-1.1h0Z"/>
      <path class="st1" d="M685.5,423.5l-9.9-13.1-3.6,4v9.1h-4.9v-41.2h4.9v26.2l11.9-13.7h5.9l-11,12,12.7,16.7s-6.1,0-6.1,0Z"/>
      <path class="st1" d="M698.1,418v-19h-4.8v-4.2h4.8v-4.2l2.4-3.2h2.6v7.4h7v4.2h-7v18.1c0,.9.2,1.7.6,2.1s1,.6,1.7.6c1.1,0,2.3-.3,3.8-.9l1.3,3.7c-1.9,1.1-3.8,1.6-5.9,1.6-4.3,0-6.5-2.1-6.5-6.2h0Z"/>
      <path class="st1" d="M741.7,394.8l-11.2,30.5c-1.1,3.2-2.6,5.6-4.3,7.2-1.7,1.6-3.9,2.4-6.5,2.4s-3.2-.3-4.7-.7l.9-3.8c.4.1,1,.3,1.6.4.6.1,1.2.2,1.7.2,1.2,0,2.3-.4,3.4-1.4,1.1-.9,1.9-2.1,2.5-3.7l.6-1.5-12.1-29.6h5.2l9.3,24.5,8.4-24.5h5.1,0Z"/>
      <path class="st1" d="M765.3,423.5l-9.9-13.1-3.6,4v9.1h-4.9v-41.2h4.9v26.2l11.9-13.7h5.9l-11,12,12.7,16.7s-6.1,0-6.1,0Z"/>
      <path class="st1" d="M781.1,385c.6.6.9,1.3.9,2.3s-.3,1.8-.9,2.3c-.6.6-1.4.8-2.3.8s-1.7-.3-2.3-.8-.9-1.3-.9-2.3.3-1.8.9-2.3c.6-.5,1.4-.8,2.3-.8s1.7.3,2.3.8ZM781.2,423.5h-4.9v-28.7h4.9v28.7Z"/>
      <path class="st1" d="M810.6,420.7c-2.8-2.4-4.1-6-4.1-11v-24.5h5.1v24.7c0,3,.8,5.4,2.5,7.1s4,2.5,7.1,2.5,5.4-.8,7.1-2.5c1.7-1.7,2.5-4,2.5-7.1v-24.7h5.1v24.5c0,5-1.4,8.6-4.1,11s-6.2,3.6-10.5,3.6-7.8-1.2-10.5-3.6h0Z"/>
      <path class="st1" d="M864.2,398.6l-15.7,20.6h16.3v4.3h-21.9v-3.6l15.4-20.7h-15v-4.3h20.9v3.8h0Z"/>
      <path class="st1" d="M895.4,420l-.4,3.3c-.6.4-1.6.6-2.8.6s-2.3-.3-3.1-1c-.8-.6-1.2-1.7-1.5-3.1-2.5,2.9-5.7,4.3-9.6,4.3s-4.9-.7-6.7-2.1c-1.8-1.4-2.6-3.4-2.6-6s1.1-5.1,3.3-6.5c2.2-1.4,4.9-2.1,8.3-2.1s2.4,0,3.7.2c1.3.1,2.4.3,3.2.5v-3.8c0-2.2-.6-3.7-1.9-4.7s-2.9-1.4-5-1.4-5.4.9-7.9,2.8l-2.1-3.2c3-2.5,6.6-3.8,10.8-3.8s6.3.8,8.2,2.6c1.9,1.7,2.8,4.3,2.8,7.6v13.4c0,1.5.6,2.3,1.8,2.3h1.4ZM883.7,419.1c1.4-.8,2.6-1.8,3.6-3.1v-4.3c-.8-.2-1.8-.3-3.1-.5-1.3-.1-2.5-.2-3.5-.2-2,0-3.7.4-5.1,1.1s-2,2-2,3.7.6,2.6,1.7,3.4,2.4,1.1,3.9,1.1,3.2-.4,4.7-1.1h0Z"/>
      <path class="st1" d="M906.2,423.5h-4.9v-41.2h4.9v41.2Z"/>
      <path class="st1" d="M938.8,410.7h-20.8c.6,6.3,3.7,9.5,9.4,9.5s3.6-.3,5.1-.9c1.5-.6,2.8-1.4,3.9-2.3l2.3,3.2c-1.5,1.3-3.3,2.3-5.2,3-1.9.7-4.2,1.1-6.7,1.1s-4.9-.6-7-1.7-3.7-2.8-5-5.1-1.9-5-1.9-8.2.6-5.9,1.7-8.2c1.1-2.3,2.7-4.1,4.8-5.3,2.1-1.2,4.4-1.8,7.1-1.8s5,.6,6.9,1.8c1.9,1.2,3.3,2.8,4.2,4.9.9,2,1.4,4.2,1.4,6.7s0,2.2-.3,3.3h0ZM920.6,400.3c-1.6,1.6-2.4,3.8-2.6,6.7h16.5c-.1-2.8-.8-5-2.1-6.6s-3.2-2.4-5.7-2.4-4.5.8-6.1,2.3Z"/>
      <path class="st1" d="M965.1,398.6l-15.7,20.6h16.3v4.3h-21.9v-3.6l15.4-20.7h-15v-4.3h20.9v3.8h0ZM957.5,385c.6.6,1,1.3,1,2.3s-.3,1.8-1,2.3c-.6.6-1.4.8-2.3.8s-1.7-.3-2.3-.8-.9-1.3-.9-2.3.3-1.8.9-2.3c.6-.5,1.4-.8,2.3-.8s1.7.3,2.3.8Z"/>
      <path class="st1" d="M971.9,394.8h3.4l.8,4.4h.2c1.4-1.7,2.8-2.9,4.4-3.8,1.6-.8,3.4-1.3,5.6-1.3s5.4.8,7.1,2.4,2.5,4,2.5,7.1v19.9h-4.9v-18.4c0-2.3-.5-4-1.4-5s-2.3-1.4-4-1.4c-3.5,0-6.4,1.8-8.8,5.3v19.5h-4.8v-28.7h0Z"/>
      <path class="st1" d="M1009.1,385c.6.6.9,1.3.9,2.3s-.3,1.8-.9,2.3c-.6.6-1.4.8-2.3.8s-1.7-.3-2.3-.8-.9-1.3-.9-2.3.3-1.8.9-2.3c.6-.5,1.4-.8,2.3-.8s1.7.3,2.3.8ZM1009.2,423.5h-4.9v-28.7h4.9v28.7Z"/>
      <path class="st1" d="M1041.9,410.7h-20.8c.6,6.3,3.7,9.5,9.4,9.5s3.6-.3,5.1-.9c1.5-.6,2.8-1.4,3.9-2.3l2.3,3.2c-1.5,1.3-3.3,2.3-5.2,3-1.9.7-4.2,1.1-6.7,1.1s-4.9-.6-7-1.7-3.7-2.8-5-5.1c-1.2-2.3-1.9-5-1.9-8.2s.6-5.9,1.7-8.2c1.1-2.3,2.7-4.1,4.8-5.3,2.1-1.2,4.4-1.8,7.1-1.8s5,.6,6.9,1.8c1.9,1.2,3.3,2.8,4.2,4.9.9,2,1.4,4.2,1.4,6.7s0,2.2-.3,3.3h0ZM1023.7,400.3c-1.6,1.6-2.4,3.8-2.6,6.7h16.5c-.1-2.8-.8-5-2.1-6.6s-3.2-2.4-5.7-2.4-4.5.8-6.1,2.3Z"/>
      <path class="st1" d="M1049.1,394.8h3.4l.8,4.4h.2c1.4-1.7,2.8-2.9,4.4-3.8,1.6-.8,3.4-1.3,5.6-1.3s5.4.8,7.1,2.4,2.5,4,2.5,7.1v19.9h-4.9v-18.4c0-2.3-.5-4-1.4-5s-2.3-1.4-4-1.4c-3.5,0-6.4,1.8-8.8,5.3v19.5h-4.8v-28.7h0ZM1061.6,391.2h-3.6l3.9-6.7h6.2l-6.6,6.7Z"/>
    </g>
    <g>
      <g>
        <path class="st0" d="M234.4,237.6l4.7-7.8-21.8-13.1-.7,1.1c7.1,5.5,13,12.2,17.8,19.8Z"/>
        <path class="st3" d="M154.3,321.3l14.9,24.8,14.9-24.8,50.3-83.7c-4.8-7.6-10.8-14.3-17.8-19.8l-47.3,78.8-14.9,24.7Z"/>
        <path class="st0" d="M121.9,217.8l-.6-1.1-21.9,13.1,4.6,7.8c4.8-7.6,10.8-14.3,17.8-19.8h0Z"/>
        <path class="st1" d="M169.2,346.1l14.9-24.8-14.9-24.7-47.3-78.8c-7.1,5.5-13.1,12.2-17.9,19.8l50.3,83.7s14.9,24.8,14.9,24.8Z"/>
      </g>
      <path class="st1" d="M169.3,296.5h0l-14.9,24.8,14.9,24.8,14.9-24.8,9-15c-1.8.6-3.7.9-5.8.9-7.8,0-14.5-4.4-18.1-10.7h0Z"/>
      <circle class="st1" cx="169.2" cy="220.3" r="25.2"/>
    </g>
  </g>
</svg>